<?xml version="1.0" encoding="utf-8" standalone="no"?>
<!DOCTYPE svg PUBLIC "-//W3C//DTD SVG 1.1//EN"
  "http://www.w3.org/Graphics/SVG/1.1/DTD/svg11.dtd">
<svg xmlns:xlink="http://www.w3.org/1999/xlink" width="454.498948pt" height="342.733846pt" viewBox="0 0 454.498948 342.733846" xmlns="http://www.w3.org/2000/svg" version="1.1">
 <metadata>
  <rdf:RDF xmlns:dc="http://purl.org/dc/elements/1.1/" xmlns:cc="http://creativecommons.org/ns#" xmlns:rdf="http://www.w3.org/1999/02/22-rdf-syntax-ns#">
   <cc:Work>
    <dc:type rdf:resource="http://purl.org/dc/dcmitype/StillImage"/>
    <dc:date>2024-05-11T12:38:42.490170</dc:date>
    <dc:format>image/svg+xml</dc:format>
    <dc:creator>
     <cc:Agent>
      <dc:title>Matplotlib v3.7.1, https://matplotlib.org/</dc:title>
     </cc:Agent>
    </dc:creator>
   </cc:Work>
  </rdf:RDF>
 </metadata>
 <defs>
  <style type="text/css">*{stroke-linejoin: round; stroke-linecap: butt}</style>
 </defs>
 <g id="figure_1">
  <g id="patch_1">
   <path d="M 0 342.733846 
L 454.498948 342.733846 
L 454.498948 0 
L 0 0 
z
" style="fill: #ffffff"/>
  </g>
  <g id="axes_1">
   <g id="patch_2">
    <path d="M 31.914062 283.185099 
L 445.29355 283.185099 
L 445.29355 22.318125 
L 31.914062 22.318125 
z
" style="fill: #ffffff"/>
   </g>
   <g id="patch_3">
    <path d="M 42.24855 283.185099 
L 49.138208 283.185099 
L 49.138208 39.709257 
L 42.24855 39.709257 
z
" clip-path="url(#p950001d0f4)" style="fill: #1f77b4"/>
   </g>
   <g id="patch_4">
    <path d="M 83.586498 283.185099 
L 90.476156 283.185099 
L 90.476156 47.162599 
L 83.586498 47.162599 
z
" clip-path="url(#p950001d0f4)" style="fill: #1f77b4"/>
   </g>
   <g id="patch_5">
    <path d="M 124.924447 283.185099 
L 131.814105 283.185099 
L 131.814105 49.647046 
L 124.924447 49.647046 
z
" clip-path="url(#p950001d0f4)" style="fill: #1f77b4"/>
   </g>
   <g id="patch_6">
    <path d="M 166.262396 283.185099 
L 173.152054 283.185099 
L 173.152054 37.224809 
L 166.262396 37.224809 
z
" clip-path="url(#p950001d0f4)" style="fill: #1f77b4"/>
   </g>
   <g id="patch_7">
    <path d="M 207.600344 283.185099 
L 214.490003 283.185099 
L 214.490003 39.709257 
L 207.600344 39.709257 
z
" clip-path="url(#p950001d0f4)" style="fill: #1f77b4"/>
   </g>
   <g id="patch_8">
    <path d="M 248.938293 283.185099 
L 255.827951 283.185099 
L 255.827951 47.162599 
L 248.938293 47.162599 
z
" clip-path="url(#p950001d0f4)" style="fill: #1f77b4"/>
   </g>
   <g id="patch_9">
    <path d="M 290.276242 283.185099 
L 297.1659 283.185099 
L 297.1659 49.647046 
L 290.276242 49.647046 
z
" clip-path="url(#p950001d0f4)" style="fill: #1f77b4"/>
   </g>
   <g id="patch_10">
    <path d="M 331.614191 283.185099 
L 338.503849 283.185099 
L 338.503849 47.162599 
L 331.614191 47.162599 
z
" clip-path="url(#p950001d0f4)" style="fill: #1f77b4"/>
   </g>
   <g id="patch_11">
    <path d="M 372.952139 283.185099 
L 379.841797 283.185099 
L 379.841797 57.100388 
L 372.952139 57.100388 
z
" clip-path="url(#p950001d0f4)" style="fill: #1f77b4"/>
   </g>
   <g id="patch_12">
    <path d="M 414.290088 283.185099 
L 421.179746 283.185099 
L 421.179746 47.162599 
L 414.290088 47.162599 
z
" clip-path="url(#p950001d0f4)" style="fill: #1f77b4"/>
   </g>
   <g id="patch_13">
    <path d="M 49.138208 283.185099 
L 56.027866 283.185099 
L 56.027866 37.224809 
L 49.138208 37.224809 
z
" clip-path="url(#p950001d0f4)" style="fill: #ff7f0e"/>
   </g>
   <g id="patch_14">
    <path d="M 90.476156 283.185099 
L 97.365815 283.185099 
L 97.365815 42.193704 
L 90.476156 42.193704 
z
" clip-path="url(#p950001d0f4)" style="fill: #ff7f0e"/>
   </g>
   <g id="patch_15">
    <path d="M 131.814105 283.185099 
L 138.703763 283.185099 
L 138.703763 42.193704 
L 131.814105 42.193704 
z
" clip-path="url(#p950001d0f4)" style="fill: #ff7f0e"/>
   </g>
   <g id="patch_16">
    <path d="M 173.152054 283.185099 
L 180.041712 283.185099 
L 180.041712 34.740362 
L 173.152054 34.740362 
z
" clip-path="url(#p950001d0f4)" style="fill: #ff7f0e"/>
   </g>
   <g id="patch_17">
    <path d="M 214.490003 283.185099 
L 221.379661 283.185099 
L 221.379661 54.615941 
L 214.490003 54.615941 
z
" clip-path="url(#p950001d0f4)" style="fill: #ff7f0e"/>
   </g>
   <g id="patch_18">
    <path d="M 255.827951 283.185099 
L 262.717609 283.185099 
L 262.717609 44.678151 
L 255.827951 44.678151 
z
" clip-path="url(#p950001d0f4)" style="fill: #ff7f0e"/>
   </g>
   <g id="patch_19">
    <path d="M 297.1659 283.185099 
L 304.055558 283.185099 
L 304.055558 54.615941 
L 297.1659 54.615941 
z
" clip-path="url(#p950001d0f4)" style="fill: #ff7f0e"/>
   </g>
   <g id="patch_20">
    <path d="M 338.503849 283.185099 
L 345.393507 283.185099 
L 345.393507 52.131493 
L 338.503849 52.131493 
z
" clip-path="url(#p950001d0f4)" style="fill: #ff7f0e"/>
   </g>
   <g id="patch_21">
    <path d="M 379.841797 283.185099 
L 386.731456 283.185099 
L 386.731456 59.584836 
L 379.841797 59.584836 
z
" clip-path="url(#p950001d0f4)" style="fill: #ff7f0e"/>
   </g>
   <g id="patch_22">
    <path d="M 421.179746 283.185099 
L 428.069404 283.185099 
L 428.069404 81.944862 
L 421.179746 81.944862 
z
" clip-path="url(#p950001d0f4)" style="fill: #ff7f0e"/>
   </g>
   <g id="patch_23">
    <path d="M 56.027866 283.185099 
L 62.917524 283.185099 
L 62.917524 49.647046 
L 56.027866 49.647046 
z
" clip-path="url(#p950001d0f4)" style="fill: #2ca02c"/>
   </g>
   <g id="patch_24">
    <path d="M 97.365815 283.185099 
L 104.255473 283.185099 
L 104.255473 39.709257 
L 97.365815 39.709257 
z
" clip-path="url(#p950001d0f4)" style="fill: #2ca02c"/>
   </g>
   <g id="patch_25">
    <path d="M 138.703763 283.185099 
L 145.593421 283.185099 
L 145.593421 49.647046 
L 138.703763 49.647046 
z
" clip-path="url(#p950001d0f4)" style="fill: #2ca02c"/>
   </g>
   <g id="patch_26">
    <path d="M 180.041712 283.185099 
L 186.93137 283.185099 
L 186.93137 84.429309 
L 180.041712 84.429309 
z
" clip-path="url(#p950001d0f4)" style="fill: #2ca02c"/>
   </g>
   <g id="patch_27">
    <path d="M 221.379661 283.185099 
L 228.269319 283.185099 
L 228.269319 42.193704 
L 221.379661 42.193704 
z
" clip-path="url(#p950001d0f4)" style="fill: #2ca02c"/>
   </g>
   <g id="patch_28">
    <path d="M 262.717609 283.185099 
L 269.607268 283.185099 
L 269.607268 69.522625 
L 262.717609 69.522625 
z
" clip-path="url(#p950001d0f4)" style="fill: #2ca02c"/>
   </g>
   <g id="patch_29">
    <path d="M 304.055558 283.185099 
L 310.945216 283.185099 
L 310.945216 64.55373 
L 304.055558 64.55373 
z
" clip-path="url(#p950001d0f4)" style="fill: #2ca02c"/>
   </g>
   <g id="patch_30">
    <path d="M 345.393507 283.185099 
L 352.283165 283.185099 
L 352.283165 76.975967 
L 345.393507 76.975967 
z
" clip-path="url(#p950001d0f4)" style="fill: #2ca02c"/>
   </g>
   <g id="patch_31">
    <path d="M 386.731456 283.185099 
L 393.621114 283.185099 
L 393.621114 54.615941 
L 386.731456 54.615941 
z
" clip-path="url(#p950001d0f4)" style="fill: #2ca02c"/>
   </g>
   <g id="patch_32">
    <path d="M 428.069404 283.185099 
L 434.959062 283.185099 
L 434.959062 42.193704 
L 428.069404 42.193704 
z
" clip-path="url(#p950001d0f4)" style="fill: #2ca02c"/>
   </g>
   <g id="matplotlib.axis_1">
    <g id="xtick_1">
     <g id="line2d_1">
      <defs>
       <path id="m58a749949f" d="M 0 0 
L 0 3.5 
" style="stroke: #000000; stroke-width: 0.8"/>
      </defs>
      <g>
       <use xlink:href="#m58a749949f" x="52.583037" y="283.185099" style="stroke: #000000; stroke-width: 0.8"/>
      </g>
     </g>
     <g id="text_1">
      <!-- acidic -->
      <g transform="translate(43.00174 318.622945) rotate(-45) scale(0.1 -0.1)">
       <defs>
        <path id="DejaVuSans-Bold-61" d="M 2106 1575 
Q 1756 1575 1579 1456 
Q 1403 1338 1403 1106 
Q 1403 894 1545 773 
Q 1688 653 1941 653 
Q 2256 653 2472 879 
Q 2688 1106 2688 1447 
L 2688 1575 
L 2106 1575 
z
M 3816 1997 
L 3816 0 
L 2688 0 
L 2688 519 
Q 2463 200 2181 54 
Q 1900 -91 1497 -91 
Q 953 -91 614 226 
Q 275 544 275 1050 
Q 275 1666 698 1953 
Q 1122 2241 2028 2241 
L 2688 2241 
L 2688 2328 
Q 2688 2594 2478 2717 
Q 2269 2841 1825 2841 
Q 1466 2841 1156 2769 
Q 847 2697 581 2553 
L 581 3406 
Q 941 3494 1303 3539 
Q 1666 3584 2028 3584 
Q 2975 3584 3395 3211 
Q 3816 2838 3816 1997 
z
" transform="scale(0.015625)"/>
        <path id="DejaVuSans-Bold-63" d="M 3366 3391 
L 3366 2478 
Q 3138 2634 2908 2709 
Q 2678 2784 2431 2784 
Q 1963 2784 1702 2511 
Q 1441 2238 1441 1747 
Q 1441 1256 1702 982 
Q 1963 709 2431 709 
Q 2694 709 2930 787 
Q 3166 866 3366 1019 
L 3366 103 
Q 3103 6 2833 -42 
Q 2563 -91 2291 -91 
Q 1344 -91 809 395 
Q 275 881 275 1747 
Q 275 2613 809 3098 
Q 1344 3584 2291 3584 
Q 2566 3584 2833 3536 
Q 3100 3488 3366 3391 
z
" transform="scale(0.015625)"/>
        <path id="DejaVuSans-Bold-69" d="M 538 3500 
L 1656 3500 
L 1656 0 
L 538 0 
L 538 3500 
z
M 538 4863 
L 1656 4863 
L 1656 3950 
L 538 3950 
L 538 4863 
z
" transform="scale(0.015625)"/>
        <path id="DejaVuSans-Bold-64" d="M 2919 2988 
L 2919 4863 
L 4044 4863 
L 4044 0 
L 2919 0 
L 2919 506 
Q 2688 197 2409 53 
Q 2131 -91 1766 -91 
Q 1119 -91 703 423 
Q 288 938 288 1747 
Q 288 2556 703 3070 
Q 1119 3584 1766 3584 
Q 2128 3584 2408 3439 
Q 2688 3294 2919 2988 
z
M 2181 722 
Q 2541 722 2730 984 
Q 2919 1247 2919 1747 
Q 2919 2247 2730 2509 
Q 2541 2772 2181 2772 
Q 1825 2772 1636 2509 
Q 1447 2247 1447 1747 
Q 1447 1247 1636 984 
Q 1825 722 2181 722 
z
" transform="scale(0.015625)"/>
       </defs>
       <use xlink:href="#DejaVuSans-Bold-61"/>
       <use xlink:href="#DejaVuSans-Bold-63" x="67.480469"/>
       <use xlink:href="#DejaVuSans-Bold-69" x="126.757812"/>
       <use xlink:href="#DejaVuSans-Bold-64" x="161.035156"/>
       <use xlink:href="#DejaVuSans-Bold-69" x="232.617188"/>
       <use xlink:href="#DejaVuSans-Bold-63" x="266.894531"/>
      </g>
     </g>
    </g>
    <g id="xtick_2">
     <g id="line2d_2">
      <g>
       <use xlink:href="#m58a749949f" x="93.920986" y="283.185099" style="stroke: #000000; stroke-width: 0.8"/>
      </g>
     </g>
     <g id="text_2">
      <!-- cheesy -->
      <g transform="translate(82.026676 323.193728) rotate(-45) scale(0.1 -0.1)">
       <defs>
        <path id="DejaVuSans-Bold-68" d="M 4056 2131 
L 4056 0 
L 2931 0 
L 2931 347 
L 2931 1625 
Q 2931 2084 2911 2256 
Q 2891 2428 2841 2509 
Q 2775 2619 2662 2680 
Q 2550 2741 2406 2741 
Q 2056 2741 1856 2470 
Q 1656 2200 1656 1722 
L 1656 0 
L 538 0 
L 538 4863 
L 1656 4863 
L 1656 2988 
Q 1909 3294 2193 3439 
Q 2478 3584 2822 3584 
Q 3428 3584 3742 3212 
Q 4056 2841 4056 2131 
z
" transform="scale(0.015625)"/>
        <path id="DejaVuSans-Bold-65" d="M 4031 1759 
L 4031 1441 
L 1416 1441 
Q 1456 1047 1700 850 
Q 1944 653 2381 653 
Q 2734 653 3104 758 
Q 3475 863 3866 1075 
L 3866 213 
Q 3469 63 3072 -14 
Q 2675 -91 2278 -91 
Q 1328 -91 801 392 
Q 275 875 275 1747 
Q 275 2603 792 3093 
Q 1309 3584 2216 3584 
Q 3041 3584 3536 3087 
Q 4031 2591 4031 1759 
z
M 2881 2131 
Q 2881 2450 2695 2645 
Q 2509 2841 2209 2841 
Q 1884 2841 1681 2658 
Q 1478 2475 1428 2131 
L 2881 2131 
z
" transform="scale(0.015625)"/>
        <path id="DejaVuSans-Bold-73" d="M 3272 3391 
L 3272 2541 
Q 2913 2691 2578 2766 
Q 2244 2841 1947 2841 
Q 1628 2841 1473 2761 
Q 1319 2681 1319 2516 
Q 1319 2381 1436 2309 
Q 1553 2238 1856 2203 
L 2053 2175 
Q 2913 2066 3209 1816 
Q 3506 1566 3506 1031 
Q 3506 472 3093 190 
Q 2681 -91 1863 -91 
Q 1516 -91 1145 -36 
Q 775 19 384 128 
L 384 978 
Q 719 816 1070 734 
Q 1422 653 1784 653 
Q 2113 653 2278 743 
Q 2444 834 2444 1013 
Q 2444 1163 2330 1236 
Q 2216 1309 1875 1350 
L 1678 1375 
Q 931 1469 631 1722 
Q 331 1975 331 2491 
Q 331 3047 712 3315 
Q 1094 3584 1881 3584 
Q 2191 3584 2531 3537 
Q 2872 3491 3272 3391 
z
" transform="scale(0.015625)"/>
        <path id="DejaVuSans-Bold-79" d="M 78 3500 
L 1197 3500 
L 2138 1125 
L 2938 3500 
L 4056 3500 
L 2584 -331 
Q 2363 -916 2067 -1148 
Q 1772 -1381 1288 -1381 
L 641 -1381 
L 641 -647 
L 991 -647 
Q 1275 -647 1404 -556 
Q 1534 -466 1606 -231 
L 1638 -134 
L 78 3500 
z
" transform="scale(0.015625)"/>
       </defs>
       <use xlink:href="#DejaVuSans-Bold-63"/>
       <use xlink:href="#DejaVuSans-Bold-68" x="59.277344"/>
       <use xlink:href="#DejaVuSans-Bold-65" x="130.46875"/>
       <use xlink:href="#DejaVuSans-Bold-65" x="198.291016"/>
       <use xlink:href="#DejaVuSans-Bold-73" x="266.113281"/>
       <use xlink:href="#DejaVuSans-Bold-79" x="325.634766"/>
      </g>
     </g>
    </g>
    <g id="xtick_3">
     <g id="line2d_3">
      <g>
       <use xlink:href="#m58a749949f" x="135.258934" y="283.185099" style="stroke: #000000; stroke-width: 0.8"/>
      </g>
     </g>
     <g id="text_3">
      <!-- mossy -->
      <g transform="translate(124.528589 320.755314) rotate(-45) scale(0.1 -0.1)">
       <defs>
        <path id="DejaVuSans-Bold-6d" d="M 3781 2919 
Q 3994 3244 4286 3414 
Q 4578 3584 4928 3584 
Q 5531 3584 5847 3212 
Q 6163 2841 6163 2131 
L 6163 0 
L 5038 0 
L 5038 1825 
Q 5041 1866 5042 1909 
Q 5044 1953 5044 2034 
Q 5044 2406 4934 2573 
Q 4825 2741 4581 2741 
Q 4263 2741 4089 2478 
Q 3916 2216 3909 1719 
L 3909 0 
L 2784 0 
L 2784 1825 
Q 2784 2406 2684 2573 
Q 2584 2741 2328 2741 
Q 2006 2741 1831 2477 
Q 1656 2213 1656 1722 
L 1656 0 
L 531 0 
L 531 3500 
L 1656 3500 
L 1656 2988 
Q 1863 3284 2130 3434 
Q 2397 3584 2719 3584 
Q 3081 3584 3359 3409 
Q 3638 3234 3781 2919 
z
" transform="scale(0.015625)"/>
        <path id="DejaVuSans-Bold-6f" d="M 2203 2784 
Q 1831 2784 1636 2517 
Q 1441 2250 1441 1747 
Q 1441 1244 1636 976 
Q 1831 709 2203 709 
Q 2569 709 2762 976 
Q 2956 1244 2956 1747 
Q 2956 2250 2762 2517 
Q 2569 2784 2203 2784 
z
M 2203 3584 
Q 3106 3584 3614 3096 
Q 4122 2609 4122 1747 
Q 4122 884 3614 396 
Q 3106 -91 2203 -91 
Q 1297 -91 786 396 
Q 275 884 275 1747 
Q 275 2609 786 3096 
Q 1297 3584 2203 3584 
z
" transform="scale(0.015625)"/>
       </defs>
       <use xlink:href="#DejaVuSans-Bold-6d"/>
       <use xlink:href="#DejaVuSans-Bold-6f" x="104.199219"/>
       <use xlink:href="#DejaVuSans-Bold-73" x="172.900391"/>
       <use xlink:href="#DejaVuSans-Bold-73" x="232.421875"/>
       <use xlink:href="#DejaVuSans-Bold-79" x="291.943359"/>
      </g>
     </g>
    </g>
    <g id="xtick_4">
     <g id="line2d_4">
      <g>
       <use xlink:href="#m58a749949f" x="176.596883" y="283.185099" style="stroke: #000000; stroke-width: 0.8"/>
      </g>
     </g>
     <g id="text_4">
      <!-- sour -->
      <g transform="translate(169.75452 313.145077) rotate(-45) scale(0.1 -0.1)">
       <defs>
        <path id="DejaVuSans-Bold-75" d="M 500 1363 
L 500 3500 
L 1625 3500 
L 1625 3150 
Q 1625 2866 1622 2436 
Q 1619 2006 1619 1863 
Q 1619 1441 1641 1255 
Q 1663 1069 1716 984 
Q 1784 875 1895 815 
Q 2006 756 2150 756 
Q 2500 756 2700 1025 
Q 2900 1294 2900 1772 
L 2900 3500 
L 4019 3500 
L 4019 0 
L 2900 0 
L 2900 506 
Q 2647 200 2364 54 
Q 2081 -91 1741 -91 
Q 1134 -91 817 281 
Q 500 653 500 1363 
z
" transform="scale(0.015625)"/>
        <path id="DejaVuSans-Bold-72" d="M 3138 2547 
Q 2991 2616 2845 2648 
Q 2700 2681 2553 2681 
Q 2122 2681 1889 2404 
Q 1656 2128 1656 1613 
L 1656 0 
L 538 0 
L 538 3500 
L 1656 3500 
L 1656 2925 
Q 1872 3269 2151 3426 
Q 2431 3584 2822 3584 
Q 2878 3584 2943 3579 
Q 3009 3575 3134 3559 
L 3138 2547 
z
" transform="scale(0.015625)"/>
       </defs>
       <use xlink:href="#DejaVuSans-Bold-73"/>
       <use xlink:href="#DejaVuSans-Bold-6f" x="59.521484"/>
       <use xlink:href="#DejaVuSans-Bold-75" x="128.222656"/>
       <use xlink:href="#DejaVuSans-Bold-72" x="199.414062"/>
      </g>
     </g>
    </g>
    <g id="xtick_5">
     <g id="line2d_5">
      <g>
       <use xlink:href="#m58a749949f" x="217.934832" y="283.185099" style="stroke: #000000; stroke-width: 0.8"/>
      </g>
     </g>
     <g id="text_5">
      <!-- vanilla -->
      <g transform="translate(206.656479 322.017058) rotate(-45) scale(0.1 -0.1)">
       <defs>
        <path id="DejaVuSans-Bold-76" d="M 97 3500 
L 1216 3500 
L 2088 1081 
L 2956 3500 
L 4078 3500 
L 2700 0 
L 1472 0 
L 97 3500 
z
" transform="scale(0.015625)"/>
        <path id="DejaVuSans-Bold-6e" d="M 4056 2131 
L 4056 0 
L 2931 0 
L 2931 347 
L 2931 1631 
Q 2931 2084 2911 2256 
Q 2891 2428 2841 2509 
Q 2775 2619 2662 2680 
Q 2550 2741 2406 2741 
Q 2056 2741 1856 2470 
Q 1656 2200 1656 1722 
L 1656 0 
L 538 0 
L 538 3500 
L 1656 3500 
L 1656 2988 
Q 1909 3294 2193 3439 
Q 2478 3584 2822 3584 
Q 3428 3584 3742 3212 
Q 4056 2841 4056 2131 
z
" transform="scale(0.015625)"/>
        <path id="DejaVuSans-Bold-6c" d="M 538 4863 
L 1656 4863 
L 1656 0 
L 538 0 
L 538 4863 
z
" transform="scale(0.015625)"/>
       </defs>
       <use xlink:href="#DejaVuSans-Bold-76"/>
       <use xlink:href="#DejaVuSans-Bold-61" x="65.185547"/>
       <use xlink:href="#DejaVuSans-Bold-6e" x="132.666016"/>
       <use xlink:href="#DejaVuSans-Bold-69" x="203.857422"/>
       <use xlink:href="#DejaVuSans-Bold-6c" x="238.134766"/>
       <use xlink:href="#DejaVuSans-Bold-6c" x="272.412109"/>
       <use xlink:href="#DejaVuSans-Bold-61" x="306.689453"/>
      </g>
     </g>
    </g>
    <g id="xtick_6">
     <g id="line2d_6">
      <g>
       <use xlink:href="#m58a749949f" x="259.27278" y="283.185099" style="stroke: #000000; stroke-width: 0.8"/>
      </g>
     </g>
     <g id="text_6">
      <!-- amber -->
      <g transform="translate(248.481668 321.042576) rotate(-45) scale(0.1 -0.1)">
       <defs>
        <path id="DejaVuSans-Bold-62" d="M 2400 722 
Q 2759 722 2948 984 
Q 3138 1247 3138 1747 
Q 3138 2247 2948 2509 
Q 2759 2772 2400 2772 
Q 2041 2772 1848 2508 
Q 1656 2244 1656 1747 
Q 1656 1250 1848 986 
Q 2041 722 2400 722 
z
M 1656 2988 
Q 1888 3294 2169 3439 
Q 2450 3584 2816 3584 
Q 3463 3584 3878 3070 
Q 4294 2556 4294 1747 
Q 4294 938 3878 423 
Q 3463 -91 2816 -91 
Q 2450 -91 2169 54 
Q 1888 200 1656 506 
L 1656 0 
L 538 0 
L 538 4863 
L 1656 4863 
L 1656 2988 
z
" transform="scale(0.015625)"/>
       </defs>
       <use xlink:href="#DejaVuSans-Bold-61"/>
       <use xlink:href="#DejaVuSans-Bold-6d" x="67.480469"/>
       <use xlink:href="#DejaVuSans-Bold-62" x="171.679688"/>
       <use xlink:href="#DejaVuSans-Bold-65" x="243.261719"/>
       <use xlink:href="#DejaVuSans-Bold-72" x="311.083984"/>
      </g>
     </g>
    </g>
    <g id="xtick_7">
     <g id="line2d_7">
      <g>
       <use xlink:href="#m58a749949f" x="300.610729" y="283.185099" style="stroke: #000000; stroke-width: 0.8"/>
      </g>
     </g>
     <g id="text_7">
      <!-- coffee -->
      <g transform="translate(290.164884 320.352042) rotate(-45) scale(0.1 -0.1)">
       <defs>
        <path id="DejaVuSans-Bold-66" d="M 2841 4863 
L 2841 4128 
L 2222 4128 
Q 1984 4128 1890 4042 
Q 1797 3956 1797 3744 
L 1797 3500 
L 2753 3500 
L 2753 2700 
L 1797 2700 
L 1797 0 
L 678 0 
L 678 2700 
L 122 2700 
L 122 3500 
L 678 3500 
L 678 3744 
Q 678 4316 997 4589 
Q 1316 4863 1984 4863 
L 2841 4863 
z
" transform="scale(0.015625)"/>
       </defs>
       <use xlink:href="#DejaVuSans-Bold-63"/>
       <use xlink:href="#DejaVuSans-Bold-6f" x="59.277344"/>
       <use xlink:href="#DejaVuSans-Bold-66" x="127.978516"/>
       <use xlink:href="#DejaVuSans-Bold-66" x="171.484375"/>
       <use xlink:href="#DejaVuSans-Bold-65" x="214.990234"/>
       <use xlink:href="#DejaVuSans-Bold-65" x="282.8125"/>
      </g>
     </g>
    </g>
    <g id="xtick_8">
     <g id="line2d_8">
      <g>
       <use xlink:href="#m58a749949f" x="341.948678" y="283.185099" style="stroke: #000000; stroke-width: 0.8"/>
      </g>
     </g>
     <g id="text_8">
      <!-- buttery -->
      <g transform="translate(328.99868 325.305104) rotate(-45) scale(0.1 -0.1)">
       <defs>
        <path id="DejaVuSans-Bold-74" d="M 1759 4494 
L 1759 3500 
L 2913 3500 
L 2913 2700 
L 1759 2700 
L 1759 1216 
Q 1759 972 1856 886 
Q 1953 800 2241 800 
L 2816 800 
L 2816 0 
L 1856 0 
Q 1194 0 917 276 
Q 641 553 641 1216 
L 641 2700 
L 84 2700 
L 84 3500 
L 641 3500 
L 641 4494 
L 1759 4494 
z
" transform="scale(0.015625)"/>
       </defs>
       <use xlink:href="#DejaVuSans-Bold-62"/>
       <use xlink:href="#DejaVuSans-Bold-75" x="71.582031"/>
       <use xlink:href="#DejaVuSans-Bold-74" x="142.773438"/>
       <use xlink:href="#DejaVuSans-Bold-74" x="190.576172"/>
       <use xlink:href="#DejaVuSans-Bold-65" x="238.378906"/>
       <use xlink:href="#DejaVuSans-Bold-72" x="306.201172"/>
       <use xlink:href="#DejaVuSans-Bold-79" x="355.517578"/>
      </g>
     </g>
    </g>
    <g id="xtick_9">
     <g id="line2d_9">
      <g>
       <use xlink:href="#m58a749949f" x="383.286626" y="283.185099" style="stroke: #000000; stroke-width: 0.8"/>
      </g>
     </g>
     <g id="text_9">
      <!-- fresh -->
      <g transform="translate(374.937242 316.15912) rotate(-45) scale(0.1 -0.1)">
       <use xlink:href="#DejaVuSans-Bold-66"/>
       <use xlink:href="#DejaVuSans-Bold-72" x="43.505859"/>
       <use xlink:href="#DejaVuSans-Bold-65" x="92.822266"/>
       <use xlink:href="#DejaVuSans-Bold-73" x="160.644531"/>
       <use xlink:href="#DejaVuSans-Bold-68" x="220.166016"/>
      </g>
     </g>
    </g>
    <g id="xtick_10">
     <g id="line2d_10">
      <g>
       <use xlink:href="#m58a749949f" x="424.624575" y="283.185099" style="stroke: #000000; stroke-width: 0.8"/>
      </g>
     </g>
     <g id="text_10">
      <!-- chocolate -->
      <g transform="translate(407.323109 334.063285) rotate(-45) scale(0.1 -0.1)">
       <use xlink:href="#DejaVuSans-Bold-63"/>
       <use xlink:href="#DejaVuSans-Bold-68" x="59.277344"/>
       <use xlink:href="#DejaVuSans-Bold-6f" x="130.46875"/>
       <use xlink:href="#DejaVuSans-Bold-63" x="199.169922"/>
       <use xlink:href="#DejaVuSans-Bold-6f" x="258.447266"/>
       <use xlink:href="#DejaVuSans-Bold-6c" x="327.148438"/>
       <use xlink:href="#DejaVuSans-Bold-61" x="361.425781"/>
       <use xlink:href="#DejaVuSans-Bold-74" x="428.90625"/>
       <use xlink:href="#DejaVuSans-Bold-65" x="476.708984"/>
      </g>
     </g>
    </g>
   </g>
   <g id="matplotlib.axis_2">
    <g id="ytick_1">
     <g id="line2d_11">
      <defs>
       <path id="m442a319084" d="M 0 0 
L -3.5 0 
" style="stroke: #000000; stroke-width: 0.8"/>
      </defs>
      <g>
       <use xlink:href="#m442a319084" x="31.914062" y="283.185099" style="stroke: #000000; stroke-width: 0.8"/>
      </g>
     </g>
     <g id="text_11">
      <!-- 0.0 -->
      <g transform="translate(7.2 286.984318) scale(0.1 -0.1)">
       <defs>
        <path id="DejaVuSans-Bold-30" d="M 2944 2338 
Q 2944 3213 2780 3570 
Q 2616 3928 2228 3928 
Q 1841 3928 1675 3570 
Q 1509 3213 1509 2338 
Q 1509 1453 1675 1090 
Q 1841 728 2228 728 
Q 2613 728 2778 1090 
Q 2944 1453 2944 2338 
z
M 4147 2328 
Q 4147 1169 3647 539 
Q 3147 -91 2228 -91 
Q 1306 -91 806 539 
Q 306 1169 306 2328 
Q 306 3491 806 4120 
Q 1306 4750 2228 4750 
Q 3147 4750 3647 4120 
Q 4147 3491 4147 2328 
z
" transform="scale(0.015625)"/>
        <path id="DejaVuSans-Bold-2e" d="M 653 1209 
L 1778 1209 
L 1778 0 
L 653 0 
L 653 1209 
z
" transform="scale(0.015625)"/>
       </defs>
       <use xlink:href="#DejaVuSans-Bold-30"/>
       <use xlink:href="#DejaVuSans-Bold-2e" x="69.580078"/>
       <use xlink:href="#DejaVuSans-Bold-30" x="107.568359"/>
      </g>
     </g>
    </g>
    <g id="ytick_2">
     <g id="line2d_12">
      <g>
       <use xlink:href="#m442a319084" x="31.914062" y="233.496152" style="stroke: #000000; stroke-width: 0.8"/>
      </g>
     </g>
     <g id="text_12">
      <!-- 0.2 -->
      <g transform="translate(7.2 237.29537) scale(0.1 -0.1)">
       <defs>
        <path id="DejaVuSans-Bold-32" d="M 1844 884 
L 3897 884 
L 3897 0 
L 506 0 
L 506 884 
L 2209 2388 
Q 2438 2594 2547 2791 
Q 2656 2988 2656 3200 
Q 2656 3528 2436 3728 
Q 2216 3928 1850 3928 
Q 1569 3928 1234 3808 
Q 900 3688 519 3450 
L 519 4475 
Q 925 4609 1322 4679 
Q 1719 4750 2100 4750 
Q 2938 4750 3402 4381 
Q 3866 4013 3866 3353 
Q 3866 2972 3669 2642 
Q 3472 2313 2841 1759 
L 1844 884 
z
" transform="scale(0.015625)"/>
       </defs>
       <use xlink:href="#DejaVuSans-Bold-30"/>
       <use xlink:href="#DejaVuSans-Bold-2e" x="69.580078"/>
       <use xlink:href="#DejaVuSans-Bold-32" x="107.568359"/>
      </g>
     </g>
    </g>
    <g id="ytick_3">
     <g id="line2d_13">
      <g>
       <use xlink:href="#m442a319084" x="31.914062" y="183.807204" style="stroke: #000000; stroke-width: 0.8"/>
      </g>
     </g>
     <g id="text_13">
      <!-- 0.4 -->
      <g transform="translate(7.2 187.606423) scale(0.1 -0.1)">
       <defs>
        <path id="DejaVuSans-Bold-34" d="M 2356 3675 
L 1038 1722 
L 2356 1722 
L 2356 3675 
z
M 2156 4666 
L 3494 4666 
L 3494 1722 
L 4159 1722 
L 4159 850 
L 3494 850 
L 3494 0 
L 2356 0 
L 2356 850 
L 288 850 
L 288 1881 
L 2156 4666 
z
" transform="scale(0.015625)"/>
       </defs>
       <use xlink:href="#DejaVuSans-Bold-30"/>
       <use xlink:href="#DejaVuSans-Bold-2e" x="69.580078"/>
       <use xlink:href="#DejaVuSans-Bold-34" x="107.568359"/>
      </g>
     </g>
    </g>
    <g id="ytick_4">
     <g id="line2d_14">
      <g>
       <use xlink:href="#m442a319084" x="31.914062" y="134.118257" style="stroke: #000000; stroke-width: 0.8"/>
      </g>
     </g>
     <g id="text_14">
      <!-- 0.6 -->
      <g transform="translate(7.2 137.917475) scale(0.1 -0.1)">
       <defs>
        <path id="DejaVuSans-Bold-36" d="M 2316 2303 
Q 2000 2303 1842 2098 
Q 1684 1894 1684 1484 
Q 1684 1075 1842 870 
Q 2000 666 2316 666 
Q 2634 666 2792 870 
Q 2950 1075 2950 1484 
Q 2950 1894 2792 2098 
Q 2634 2303 2316 2303 
z
M 3803 4544 
L 3803 3681 
Q 3506 3822 3243 3889 
Q 2981 3956 2731 3956 
Q 2194 3956 1894 3657 
Q 1594 3359 1544 2772 
Q 1750 2925 1990 3001 
Q 2231 3078 2516 3078 
Q 3231 3078 3670 2659 
Q 4109 2241 4109 1563 
Q 4109 813 3618 361 
Q 3128 -91 2303 -91 
Q 1394 -91 895 523 
Q 397 1138 397 2266 
Q 397 3422 980 4083 
Q 1563 4744 2578 4744 
Q 2900 4744 3203 4694 
Q 3506 4644 3803 4544 
z
" transform="scale(0.015625)"/>
       </defs>
       <use xlink:href="#DejaVuSans-Bold-30"/>
       <use xlink:href="#DejaVuSans-Bold-2e" x="69.580078"/>
       <use xlink:href="#DejaVuSans-Bold-36" x="107.568359"/>
      </g>
     </g>
    </g>
    <g id="ytick_5">
     <g id="line2d_15">
      <g>
       <use xlink:href="#m442a319084" x="31.914062" y="84.429309" style="stroke: #000000; stroke-width: 0.8"/>
      </g>
     </g>
     <g id="text_15">
      <!-- 0.8 -->
      <g transform="translate(7.2 88.228528) scale(0.1 -0.1)">
       <defs>
        <path id="DejaVuSans-Bold-38" d="M 2228 2088 
Q 1891 2088 1709 1903 
Q 1528 1719 1528 1375 
Q 1528 1031 1709 848 
Q 1891 666 2228 666 
Q 2563 666 2741 848 
Q 2919 1031 2919 1375 
Q 2919 1722 2741 1905 
Q 2563 2088 2228 2088 
z
M 1350 2484 
Q 925 2613 709 2878 
Q 494 3144 494 3541 
Q 494 4131 934 4440 
Q 1375 4750 2228 4750 
Q 3075 4750 3515 4442 
Q 3956 4134 3956 3541 
Q 3956 3144 3739 2878 
Q 3522 2613 3097 2484 
Q 3572 2353 3814 2058 
Q 4056 1763 4056 1313 
Q 4056 619 3595 264 
Q 3134 -91 2228 -91 
Q 1319 -91 855 264 
Q 391 619 391 1313 
Q 391 1763 633 2058 
Q 875 2353 1350 2484 
z
M 1631 3419 
Q 1631 3141 1786 2991 
Q 1941 2841 2228 2841 
Q 2509 2841 2662 2991 
Q 2816 3141 2816 3419 
Q 2816 3697 2662 3845 
Q 2509 3994 2228 3994 
Q 1941 3994 1786 3844 
Q 1631 3694 1631 3419 
z
" transform="scale(0.015625)"/>
       </defs>
       <use xlink:href="#DejaVuSans-Bold-30"/>
       <use xlink:href="#DejaVuSans-Bold-2e" x="69.580078"/>
       <use xlink:href="#DejaVuSans-Bold-38" x="107.568359"/>
      </g>
     </g>
    </g>
    <g id="ytick_6">
     <g id="line2d_16">
      <g>
       <use xlink:href="#m442a319084" x="31.914062" y="34.740362" style="stroke: #000000; stroke-width: 0.8"/>
      </g>
     </g>
     <g id="text_16">
      <!-- 1.0 -->
      <g transform="translate(7.2 38.539581) scale(0.1 -0.1)">
       <defs>
        <path id="DejaVuSans-Bold-31" d="M 750 831 
L 1813 831 
L 1813 3847 
L 722 3622 
L 722 4441 
L 1806 4666 
L 2950 4666 
L 2950 831 
L 4013 831 
L 4013 0 
L 750 0 
L 750 831 
z
" transform="scale(0.015625)"/>
       </defs>
       <use xlink:href="#DejaVuSans-Bold-31"/>
       <use xlink:href="#DejaVuSans-Bold-2e" x="69.580078"/>
       <use xlink:href="#DejaVuSans-Bold-30" x="107.568359"/>
      </g>
     </g>
    </g>
   </g>
   <g id="patch_33">
    <path d="M 31.914062 283.185099 
L 31.914062 22.318125 
" style="fill: none; stroke: #000000; stroke-width: 0.8; stroke-linejoin: miter; stroke-linecap: square"/>
   </g>
   <g id="patch_34">
    <path d="M 445.29355 283.185099 
L 445.29355 22.318125 
" style="fill: none; stroke: #000000; stroke-width: 0.8; stroke-linejoin: miter; stroke-linecap: square"/>
   </g>
   <g id="patch_35">
    <path d="M 31.914063 283.185099 
L 445.29355 283.185099 
" style="fill: none; stroke: #000000; stroke-width: 0.8; stroke-linejoin: miter; stroke-linecap: square"/>
   </g>
   <g id="patch_36">
    <path d="M 31.914063 22.318125 
L 445.29355 22.318125 
" style="fill: none; stroke: #000000; stroke-width: 0.8; stroke-linejoin: miter; stroke-linecap: square"/>
   </g>
   <g id="text_17">
    <!-- Top 10 Predicted Labels, by Model -->
    <g transform="translate(122.665056 16.318125) scale(0.12 -0.12)">
     <defs>
      <path id="DejaVuSans-Bold-54" d="M 31 4666 
L 4331 4666 
L 4331 3756 
L 2784 3756 
L 2784 0 
L 1581 0 
L 1581 3756 
L 31 3756 
L 31 4666 
z
" transform="scale(0.015625)"/>
      <path id="DejaVuSans-Bold-70" d="M 1656 506 
L 1656 -1331 
L 538 -1331 
L 538 3500 
L 1656 3500 
L 1656 2988 
Q 1888 3294 2169 3439 
Q 2450 3584 2816 3584 
Q 3463 3584 3878 3070 
Q 4294 2556 4294 1747 
Q 4294 938 3878 423 
Q 3463 -91 2816 -91 
Q 2450 -91 2169 54 
Q 1888 200 1656 506 
z
M 2400 2772 
Q 2041 2772 1848 2508 
Q 1656 2244 1656 1747 
Q 1656 1250 1848 986 
Q 2041 722 2400 722 
Q 2759 722 2948 984 
Q 3138 1247 3138 1747 
Q 3138 2247 2948 2509 
Q 2759 2772 2400 2772 
z
" transform="scale(0.015625)"/>
      <path id="DejaVuSans-Bold-20" transform="scale(0.015625)"/>
      <path id="DejaVuSans-Bold-50" d="M 588 4666 
L 2584 4666 
Q 3475 4666 3951 4270 
Q 4428 3875 4428 3144 
Q 4428 2409 3951 2014 
Q 3475 1619 2584 1619 
L 1791 1619 
L 1791 0 
L 588 0 
L 588 4666 
z
M 1791 3794 
L 1791 2491 
L 2456 2491 
Q 2806 2491 2997 2661 
Q 3188 2831 3188 3144 
Q 3188 3456 2997 3625 
Q 2806 3794 2456 3794 
L 1791 3794 
z
" transform="scale(0.015625)"/>
      <path id="DejaVuSans-Bold-4c" d="M 588 4666 
L 1791 4666 
L 1791 909 
L 3903 909 
L 3903 0 
L 588 0 
L 588 4666 
z
" transform="scale(0.015625)"/>
      <path id="DejaVuSans-Bold-2c" d="M 653 1209 
L 1778 1209 
L 1778 256 
L 1006 -909 
L 341 -909 
L 653 256 
L 653 1209 
z
" transform="scale(0.015625)"/>
      <path id="DejaVuSans-Bold-4d" d="M 588 4666 
L 2119 4666 
L 3181 2169 
L 4250 4666 
L 5778 4666 
L 5778 0 
L 4641 0 
L 4641 3413 
L 3566 897 
L 2803 897 
L 1728 3413 
L 1728 0 
L 588 0 
L 588 4666 
z
" transform="scale(0.015625)"/>
     </defs>
     <use xlink:href="#DejaVuSans-Bold-54"/>
     <use xlink:href="#DejaVuSans-Bold-6f" x="54.962891"/>
     <use xlink:href="#DejaVuSans-Bold-70" x="123.664062"/>
     <use xlink:href="#DejaVuSans-Bold-20" x="195.246094"/>
     <use xlink:href="#DejaVuSans-Bold-31" x="230.060547"/>
     <use xlink:href="#DejaVuSans-Bold-30" x="299.640625"/>
     <use xlink:href="#DejaVuSans-Bold-20" x="369.220703"/>
     <use xlink:href="#DejaVuSans-Bold-50" x="404.035156"/>
     <use xlink:href="#DejaVuSans-Bold-72" x="477.326172"/>
     <use xlink:href="#DejaVuSans-Bold-65" x="526.642578"/>
     <use xlink:href="#DejaVuSans-Bold-64" x="594.464844"/>
     <use xlink:href="#DejaVuSans-Bold-69" x="666.046875"/>
     <use xlink:href="#DejaVuSans-Bold-63" x="700.324219"/>
     <use xlink:href="#DejaVuSans-Bold-74" x="759.601562"/>
     <use xlink:href="#DejaVuSans-Bold-65" x="807.404297"/>
     <use xlink:href="#DejaVuSans-Bold-64" x="875.226562"/>
     <use xlink:href="#DejaVuSans-Bold-20" x="946.808594"/>
     <use xlink:href="#DejaVuSans-Bold-4c" x="981.623047"/>
     <use xlink:href="#DejaVuSans-Bold-61" x="1045.34375"/>
     <use xlink:href="#DejaVuSans-Bold-62" x="1112.824219"/>
     <use xlink:href="#DejaVuSans-Bold-65" x="1184.40625"/>
     <use xlink:href="#DejaVuSans-Bold-6c" x="1252.228516"/>
     <use xlink:href="#DejaVuSans-Bold-73" x="1286.505859"/>
     <use xlink:href="#DejaVuSans-Bold-2c" x="1346.027344"/>
     <use xlink:href="#DejaVuSans-Bold-20" x="1384.015625"/>
     <use xlink:href="#DejaVuSans-Bold-62" x="1418.830078"/>
     <use xlink:href="#DejaVuSans-Bold-79" x="1490.412109"/>
     <use xlink:href="#DejaVuSans-Bold-20" x="1555.597656"/>
     <use xlink:href="#DejaVuSans-Bold-4d" x="1590.412109"/>
     <use xlink:href="#DejaVuSans-Bold-6f" x="1689.923828"/>
     <use xlink:href="#DejaVuSans-Bold-64" x="1758.625"/>
     <use xlink:href="#DejaVuSans-Bold-65" x="1830.207031"/>
     <use xlink:href="#DejaVuSans-Bold-6c" x="1898.029297"/>
    </g>
   </g>
   <g id="legend_1">
    <g id="patch_37">
     <path d="M 296.36855 74.430625 
L 438.29355 74.430625 
Q 440.29355 74.430625 440.29355 72.430625 
L 440.29355 29.318125 
Q 440.29355 27.318125 438.29355 27.318125 
L 296.36855 27.318125 
Q 294.36855 27.318125 294.36855 29.318125 
L 294.36855 72.430625 
Q 294.36855 74.430625 296.36855 74.430625 
z
" style="fill: #ffffff; opacity: 0.8; stroke: #cccccc; stroke-linejoin: miter"/>
    </g>
    <g id="patch_38">
     <path d="M 298.36855 38.916563 
L 318.36855 38.916563 
L 318.36855 31.916563 
L 298.36855 31.916563 
z
" style="fill: #1f77b4"/>
    </g>
    <g id="text_18">
     <!-- MPNN-GNN -->
     <g transform="translate(326.36855 38.916563) scale(0.1 -0.1)">
      <defs>
       <path id="DejaVuSans-Bold-4e" d="M 588 4666 
L 1931 4666 
L 3628 1466 
L 3628 4666 
L 4769 4666 
L 4769 0 
L 3425 0 
L 1728 3200 
L 1728 0 
L 588 0 
L 588 4666 
z
" transform="scale(0.015625)"/>
       <path id="DejaVuSans-Bold-2d" d="M 347 2297 
L 2309 2297 
L 2309 1388 
L 347 1388 
L 347 2297 
z
" transform="scale(0.015625)"/>
       <path id="DejaVuSans-Bold-47" d="M 4781 347 
Q 4331 128 3847 18 
Q 3363 -91 2847 -91 
Q 1681 -91 1000 561 
Q 319 1213 319 2328 
Q 319 3456 1012 4103 
Q 1706 4750 2913 4750 
Q 3378 4750 3804 4662 
Q 4231 4575 4609 4403 
L 4609 3438 
Q 4219 3659 3833 3768 
Q 3447 3878 3059 3878 
Q 2341 3878 1952 3476 
Q 1563 3075 1563 2328 
Q 1563 1588 1938 1184 
Q 2313 781 3003 781 
Q 3191 781 3352 804 
Q 3513 828 3641 878 
L 3641 1784 
L 2906 1784 
L 2906 2591 
L 4781 2591 
L 4781 347 
z
" transform="scale(0.015625)"/>
      </defs>
      <use xlink:href="#DejaVuSans-Bold-4d"/>
      <use xlink:href="#DejaVuSans-Bold-50" x="99.511719"/>
      <use xlink:href="#DejaVuSans-Bold-4e" x="172.802734"/>
      <use xlink:href="#DejaVuSans-Bold-4e" x="256.494141"/>
      <use xlink:href="#DejaVuSans-Bold-2d" x="340.185547"/>
      <use xlink:href="#DejaVuSans-Bold-47" x="381.689453"/>
      <use xlink:href="#DejaVuSans-Bold-4e" x="463.769531"/>
      <use xlink:href="#DejaVuSans-Bold-4e" x="547.460938"/>
     </g>
    </g>
    <g id="patch_39">
     <path d="M 298.36855 53.594688 
L 318.36855 53.594688 
L 318.36855 46.594688 
L 298.36855 46.594688 
z
" style="fill: #ff7f0e"/>
    </g>
    <g id="text_19">
     <!-- GIN-GNN -->
     <g transform="translate(326.36855 53.594688) scale(0.1 -0.1)">
      <defs>
       <path id="DejaVuSans-Bold-49" d="M 588 4666 
L 1791 4666 
L 1791 0 
L 588 0 
L 588 4666 
z
" transform="scale(0.015625)"/>
      </defs>
      <use xlink:href="#DejaVuSans-Bold-47"/>
      <use xlink:href="#DejaVuSans-Bold-49" x="82.080078"/>
      <use xlink:href="#DejaVuSans-Bold-4e" x="119.287109"/>
      <use xlink:href="#DejaVuSans-Bold-2d" x="202.978516"/>
      <use xlink:href="#DejaVuSans-Bold-47" x="244.482422"/>
      <use xlink:href="#DejaVuSans-Bold-4e" x="326.5625"/>
      <use xlink:href="#DejaVuSans-Bold-4e" x="410.253906"/>
     </g>
    </g>
    <g id="patch_40">
     <path d="M 298.36855 68.272813 
L 318.36855 68.272813 
L 318.36855 61.272813 
L 298.36855 61.272813 
z
" style="fill: #2ca02c"/>
    </g>
    <g id="text_20">
     <!-- Morgan Fingerprint -->
     <g transform="translate(326.36855 68.272813) scale(0.1 -0.1)">
      <defs>
       <path id="DejaVuSans-Bold-67" d="M 2919 594 
Q 2688 288 2409 144 
Q 2131 0 1766 0 
Q 1125 0 706 504 
Q 288 1009 288 1791 
Q 288 2575 706 3076 
Q 1125 3578 1766 3578 
Q 2131 3578 2409 3434 
Q 2688 3291 2919 2981 
L 2919 3500 
L 4044 3500 
L 4044 353 
Q 4044 -491 3511 -936 
Q 2978 -1381 1966 -1381 
Q 1638 -1381 1331 -1331 
Q 1025 -1281 716 -1178 
L 716 -306 
Q 1009 -475 1290 -558 
Q 1572 -641 1856 -641 
Q 2406 -641 2662 -400 
Q 2919 -159 2919 353 
L 2919 594 
z
M 2181 2772 
Q 1834 2772 1640 2515 
Q 1447 2259 1447 1791 
Q 1447 1309 1634 1061 
Q 1822 813 2181 813 
Q 2531 813 2725 1069 
Q 2919 1325 2919 1791 
Q 2919 2259 2725 2515 
Q 2531 2772 2181 2772 
z
" transform="scale(0.015625)"/>
       <path id="DejaVuSans-Bold-46" d="M 588 4666 
L 3834 4666 
L 3834 3756 
L 1791 3756 
L 1791 2888 
L 3713 2888 
L 3713 1978 
L 1791 1978 
L 1791 0 
L 588 0 
L 588 4666 
z
" transform="scale(0.015625)"/>
      </defs>
      <use xlink:href="#DejaVuSans-Bold-4d"/>
      <use xlink:href="#DejaVuSans-Bold-6f" x="99.511719"/>
      <use xlink:href="#DejaVuSans-Bold-72" x="168.212891"/>
      <use xlink:href="#DejaVuSans-Bold-67" x="217.529297"/>
      <use xlink:href="#DejaVuSans-Bold-61" x="289.111328"/>
      <use xlink:href="#DejaVuSans-Bold-6e" x="356.591797"/>
      <use xlink:href="#DejaVuSans-Bold-20" x="427.783203"/>
      <use xlink:href="#DejaVuSans-Bold-46" x="462.597656"/>
      <use xlink:href="#DejaVuSans-Bold-69" x="530.908203"/>
      <use xlink:href="#DejaVuSans-Bold-6e" x="565.185547"/>
      <use xlink:href="#DejaVuSans-Bold-67" x="636.376953"/>
      <use xlink:href="#DejaVuSans-Bold-65" x="707.958984"/>
      <use xlink:href="#DejaVuSans-Bold-72" x="775.78125"/>
      <use xlink:href="#DejaVuSans-Bold-70" x="825.097656"/>
      <use xlink:href="#DejaVuSans-Bold-72" x="896.679688"/>
      <use xlink:href="#DejaVuSans-Bold-69" x="945.996094"/>
      <use xlink:href="#DejaVuSans-Bold-6e" x="980.273438"/>
      <use xlink:href="#DejaVuSans-Bold-74" x="1051.464844"/>
     </g>
    </g>
   </g>
  </g>
 </g>
 <defs>
  <clipPath id="p950001d0f4">
   <rect x="31.914062" y="22.318125" width="413.379487" height="260.866974"/>
  </clipPath>
 </defs>
</svg>
