<?xml version="1.0" encoding="utf-8" standalone="no"?>
<!DOCTYPE svg PUBLIC "-//W3C//DTD SVG 1.1//EN"
  "http://www.w3.org/Graphics/SVG/1.1/DTD/svg11.dtd">
<svg xmlns:xlink="http://www.w3.org/1999/xlink" width="1234.376562pt" height="624.437898pt" viewBox="0 0 1234.376562 624.437898" xmlns="http://www.w3.org/2000/svg" version="1.1">
 <metadata>
  <rdf:RDF xmlns:dc="http://purl.org/dc/elements/1.1/" xmlns:cc="http://creativecommons.org/ns#" xmlns:rdf="http://www.w3.org/1999/02/22-rdf-syntax-ns#">
   <cc:Work>
    <dc:type rdf:resource="http://purl.org/dc/dcmitype/StillImage"/>
    <dc:date>2024-05-15T16:40:27.061680</dc:date>
    <dc:format>image/svg+xml</dc:format>
    <dc:creator>
     <cc:Agent>
      <dc:title>Matplotlib v3.7.1, https://matplotlib.org/</dc:title>
     </cc:Agent>
    </dc:creator>
   </cc:Work>
  </rdf:RDF>
 </metadata>
 <defs>
  <style type="text/css">*{stroke-linejoin: round; stroke-linecap: butt}</style>
 </defs>
 <g id="figure_1">
  <g id="patch_1">
   <path d="M -0 624.437898 
L 1234.376562 624.437898 
L 1234.376562 0 
L -0 0 
z
" style="fill: #ffffff"/>
  </g>
  <g id="axes_1">
   <g id="patch_2">
    <path d="M 62.667188 561.6 
L 1178.667187 561.6 
L 1178.667187 7.2 
L 62.667188 7.2 
z
" style="fill: #ffffff"/>
   </g>
   <g id="patch_3">
    <path d="M 113.39446 561.6 
L 129.123847 561.6 
L 129.123847 33.6 
L 113.39446 33.6 
z
" clip-path="url(#pcadab969ce)" style="fill: #1f77b4"/>
   </g>
   <g id="patch_4">
    <path d="M 152.717927 561.6 
L 168.447314 561.6 
L 168.447314 62.739558 
L 152.717927 62.739558 
z
" clip-path="url(#pcadab969ce)" style="fill: #1f77b4"/>
   </g>
   <g id="patch_5">
    <path d="M 192.041395 561.6 
L 207.770782 561.6 
L 207.770782 253.916848 
L 192.041395 253.916848 
z
" clip-path="url(#pcadab969ce)" style="fill: #1f77b4"/>
   </g>
   <g id="patch_6">
    <path d="M 231.364862 561.6 
L 247.094249 561.6 
L 247.094249 445.418842 
L 231.364862 445.418842 
z
" clip-path="url(#pcadab969ce)" style="fill: #1f77b4"/>
   </g>
   <g id="patch_7">
    <path d="M 270.688329 561.6 
L 286.417716 561.6 
L 286.417716 465.686651 
L 270.688329 465.686651 
z
" clip-path="url(#pcadab969ce)" style="fill: #1f77b4"/>
   </g>
   <g id="patch_8">
    <path d="M 310.011796 561.6 
L 325.741183 561.6 
L 325.741183 470.400095 
L 310.011796 470.400095 
z
" clip-path="url(#pcadab969ce)" style="fill: #1f77b4"/>
   </g>
   <g id="patch_9">
    <path d="M 349.335264 561.6 
L 365.064651 561.6 
L 365.064651 487.787467 
L 349.335264 487.787467 
z
" clip-path="url(#pcadab969ce)" style="fill: #1f77b4"/>
   </g>
   <g id="patch_10">
    <path d="M 388.658731 561.6 
L 404.388118 561.6 
L 404.388118 503.53037 
L 388.658731 503.53037 
z
" clip-path="url(#pcadab969ce)" style="fill: #1f77b4"/>
   </g>
   <g id="patch_11">
    <path d="M 427.982198 561.6 
L 443.711585 561.6 
L 443.711585 506.180373 
L 427.982198 506.180373 
z
" clip-path="url(#pcadab969ce)" style="fill: #1f77b4"/>
   </g>
   <g id="patch_12">
    <path d="M 467.305665 561.6 
L 483.035052 561.6 
L 483.035052 512.590656 
L 467.305665 512.590656 
z
" clip-path="url(#pcadab969ce)" style="fill: #1f77b4"/>
   </g>
   <g id="patch_13">
    <path d="M 506.629133 561.6 
L 522.358519 561.6 
L 522.358519 517.429792 
L 506.629133 517.429792 
z
" clip-path="url(#pcadab969ce)" style="fill: #1f77b4"/>
   </g>
   <g id="patch_14">
    <path d="M 545.9526 561.6 
L 561.681987 561.6 
L 561.681987 523.808653 
L 545.9526 523.808653 
z
" clip-path="url(#pcadab969ce)" style="fill: #1f77b4"/>
   </g>
   <g id="patch_15">
    <path d="M 585.276067 561.6 
L 601.005454 561.6 
L 601.005454 530.10372 
L 585.276067 530.10372 
z
" clip-path="url(#pcadab969ce)" style="fill: #1f77b4"/>
   </g>
   <g id="patch_16">
    <path d="M 624.599534 561.6 
L 640.328921 561.6 
L 640.328921 530.732179 
L 624.599534 530.732179 
z
" clip-path="url(#pcadab969ce)" style="fill: #1f77b4"/>
   </g>
   <g id="patch_17">
    <path d="M 663.923001 561.6 
L 679.652388 561.6 
L 679.652388 535.686532 
L 663.923001 535.686532 
z
" clip-path="url(#pcadab969ce)" style="fill: #1f77b4"/>
   </g>
   <g id="patch_18">
    <path d="M 703.246469 561.6 
L 718.975856 561.6 
L 718.975856 536.597798 
L 703.246469 536.597798 
z
" clip-path="url(#pcadab969ce)" style="fill: #1f77b4"/>
   </g>
   <g id="patch_19">
    <path d="M 742.569936 561.6 
L 758.299323 561.6 
L 758.299323 539.373493 
L 742.569936 539.373493 
z
" clip-path="url(#pcadab969ce)" style="fill: #1f77b4"/>
   </g>
   <g id="patch_20">
    <path d="M 781.893403 561.6 
L 797.62279 561.6 
L 797.62279 539.48871 
L 781.893403 539.48871 
z
" clip-path="url(#pcadab969ce)" style="fill: #1f77b4"/>
   </g>
   <g id="patch_21">
    <path d="M 821.21687 561.6 
L 836.946257 561.6 
L 836.946257 541.709266 
L 821.21687 541.709266 
z
" clip-path="url(#pcadab969ce)" style="fill: #1f77b4"/>
   </g>
   <g id="patch_22">
    <path d="M 860.540338 561.6 
L 876.269724 561.6 
L 876.269724 544.013617 
L 860.540338 544.013617 
z
" clip-path="url(#pcadab969ce)" style="fill: #1f77b4"/>
   </g>
   <g id="patch_23">
    <path d="M 899.863805 561.6 
L 915.593192 561.6 
L 915.593192 546.988324 
L 899.863805 546.988324 
z
" clip-path="url(#pcadab969ce)" style="fill: #1f77b4"/>
   </g>
   <g id="patch_24">
    <path d="M 939.187272 561.6 
L 954.916659 561.6 
L 954.916659 547.187336 
L 939.187272 547.187336 
z
" clip-path="url(#pcadab969ce)" style="fill: #1f77b4"/>
   </g>
   <g id="patch_25">
    <path d="M 978.510739 561.6 
L 994.240126 561.6 
L 994.240126 547.564411 
L 978.510739 547.564411 
z
" clip-path="url(#pcadab969ce)" style="fill: #1f77b4"/>
   </g>
   <g id="patch_26">
    <path d="M 1017.834207 561.6 
L 1033.563593 561.6 
L 1033.563593 547.868166 
L 1017.834207 547.868166 
z
" clip-path="url(#pcadab969ce)" style="fill: #1f77b4"/>
   </g>
   <g id="patch_27">
    <path d="M 1057.157674 561.6 
L 1072.887061 561.6 
L 1072.887061 549.303148 
L 1057.157674 549.303148 
z
" clip-path="url(#pcadab969ce)" style="fill: #1f77b4"/>
   </g>
   <g id="patch_28">
    <path d="M 1096.481141 561.6 
L 1112.210528 561.6 
L 1112.210528 549.439314 
L 1096.481141 549.439314 
z
" clip-path="url(#pcadab969ce)" style="fill: #1f77b4"/>
   </g>
   <g id="matplotlib.axis_1">
    <g id="xtick_1">
     <g id="line2d_1">
      <defs>
       <path id="md4117bb126" d="M 0 0 
L 0 3.5 
" style="stroke: #000000; stroke-width: 0.8"/>
      </defs>
      <g>
       <use xlink:href="#md4117bb126" x="129.123847" y="561.6" style="stroke: #000000; stroke-width: 0.8"/>
      </g>
     </g>
     <g id="text_1">
      <!-- fruity -->
      <g transform="translate(105.58824 595.98271) rotate(-45) scale(0.1 -0.1)">
       <defs>
        <path id="DejaVuSans-Bold-66" d="M 2841 4863 
L 2841 4128 
L 2222 4128 
Q 1984 4128 1890 4042 
Q 1797 3956 1797 3744 
L 1797 3500 
L 2753 3500 
L 2753 2700 
L 1797 2700 
L 1797 0 
L 678 0 
L 678 2700 
L 122 2700 
L 122 3500 
L 678 3500 
L 678 3744 
Q 678 4316 997 4589 
Q 1316 4863 1984 4863 
L 2841 4863 
z
" transform="scale(0.015625)"/>
        <path id="DejaVuSans-Bold-72" d="M 3138 2547 
Q 2991 2616 2845 2648 
Q 2700 2681 2553 2681 
Q 2122 2681 1889 2404 
Q 1656 2128 1656 1613 
L 1656 0 
L 538 0 
L 538 3500 
L 1656 3500 
L 1656 2925 
Q 1872 3269 2151 3426 
Q 2431 3584 2822 3584 
Q 2878 3584 2943 3579 
Q 3009 3575 3134 3559 
L 3138 2547 
z
" transform="scale(0.015625)"/>
        <path id="DejaVuSans-Bold-75" d="M 500 1363 
L 500 3500 
L 1625 3500 
L 1625 3150 
Q 1625 2866 1622 2436 
Q 1619 2006 1619 1863 
Q 1619 1441 1641 1255 
Q 1663 1069 1716 984 
Q 1784 875 1895 815 
Q 2006 756 2150 756 
Q 2500 756 2700 1025 
Q 2900 1294 2900 1772 
L 2900 3500 
L 4019 3500 
L 4019 0 
L 2900 0 
L 2900 506 
Q 2647 200 2364 54 
Q 2081 -91 1741 -91 
Q 1134 -91 817 281 
Q 500 653 500 1363 
z
" transform="scale(0.015625)"/>
        <path id="DejaVuSans-Bold-69" d="M 538 3500 
L 1656 3500 
L 1656 0 
L 538 0 
L 538 3500 
z
M 538 4863 
L 1656 4863 
L 1656 3950 
L 538 3950 
L 538 4863 
z
" transform="scale(0.015625)"/>
        <path id="DejaVuSans-Bold-74" d="M 1759 4494 
L 1759 3500 
L 2913 3500 
L 2913 2700 
L 1759 2700 
L 1759 1216 
Q 1759 972 1856 886 
Q 1953 800 2241 800 
L 2816 800 
L 2816 0 
L 1856 0 
Q 1194 0 917 276 
Q 641 553 641 1216 
L 641 2700 
L 84 2700 
L 84 3500 
L 641 3500 
L 641 4494 
L 1759 4494 
z
" transform="scale(0.015625)"/>
        <path id="DejaVuSans-Bold-79" d="M 78 3500 
L 1197 3500 
L 2138 1125 
L 2938 3500 
L 4056 3500 
L 2584 -331 
Q 2363 -916 2067 -1148 
Q 1772 -1381 1288 -1381 
L 641 -1381 
L 641 -647 
L 991 -647 
Q 1275 -647 1404 -556 
Q 1534 -466 1606 -231 
L 1638 -134 
L 78 3500 
z
" transform="scale(0.015625)"/>
       </defs>
       <use xlink:href="#DejaVuSans-Bold-66"/>
       <use xlink:href="#DejaVuSans-Bold-72" x="43.505859"/>
       <use xlink:href="#DejaVuSans-Bold-75" x="92.822266"/>
       <use xlink:href="#DejaVuSans-Bold-69" x="164.013672"/>
       <use xlink:href="#DejaVuSans-Bold-74" x="198.291016"/>
       <use xlink:href="#DejaVuSans-Bold-79" x="246.09375"/>
      </g>
     </g>
    </g>
    <g id="xtick_2">
     <g id="line2d_2">
      <g>
       <use xlink:href="#md4117bb126" x="168.447314" y="561.6" style="stroke: #000000; stroke-width: 0.8"/>
      </g>
     </g>
     <g id="text_2">
      <!-- floral -->
      <g transform="translate(145.935907 595.013753) rotate(-45) scale(0.1 -0.1)">
       <defs>
        <path id="DejaVuSans-Bold-6c" d="M 538 4863 
L 1656 4863 
L 1656 0 
L 538 0 
L 538 4863 
z
" transform="scale(0.015625)"/>
        <path id="DejaVuSans-Bold-6f" d="M 2203 2784 
Q 1831 2784 1636 2517 
Q 1441 2250 1441 1747 
Q 1441 1244 1636 976 
Q 1831 709 2203 709 
Q 2569 709 2762 976 
Q 2956 1244 2956 1747 
Q 2956 2250 2762 2517 
Q 2569 2784 2203 2784 
z
M 2203 3584 
Q 3106 3584 3614 3096 
Q 4122 2609 4122 1747 
Q 4122 884 3614 396 
Q 3106 -91 2203 -91 
Q 1297 -91 786 396 
Q 275 884 275 1747 
Q 275 2609 786 3096 
Q 1297 3584 2203 3584 
z
" transform="scale(0.015625)"/>
        <path id="DejaVuSans-Bold-61" d="M 2106 1575 
Q 1756 1575 1579 1456 
Q 1403 1338 1403 1106 
Q 1403 894 1545 773 
Q 1688 653 1941 653 
Q 2256 653 2472 879 
Q 2688 1106 2688 1447 
L 2688 1575 
L 2106 1575 
z
M 3816 1997 
L 3816 0 
L 2688 0 
L 2688 519 
Q 2463 200 2181 54 
Q 1900 -91 1497 -91 
Q 953 -91 614 226 
Q 275 544 275 1050 
Q 275 1666 698 1953 
Q 1122 2241 2028 2241 
L 2688 2241 
L 2688 2328 
Q 2688 2594 2478 2717 
Q 2269 2841 1825 2841 
Q 1466 2841 1156 2769 
Q 847 2697 581 2553 
L 581 3406 
Q 941 3494 1303 3539 
Q 1666 3584 2028 3584 
Q 2975 3584 3395 3211 
Q 3816 2838 3816 1997 
z
" transform="scale(0.015625)"/>
       </defs>
       <use xlink:href="#DejaVuSans-Bold-66"/>
       <use xlink:href="#DejaVuSans-Bold-6c" x="43.505859"/>
       <use xlink:href="#DejaVuSans-Bold-6f" x="77.783203"/>
       <use xlink:href="#DejaVuSans-Bold-72" x="146.484375"/>
       <use xlink:href="#DejaVuSans-Bold-61" x="195.800781"/>
       <use xlink:href="#DejaVuSans-Bold-6c" x="263.28125"/>
      </g>
     </g>
    </g>
    <g id="xtick_3">
     <g id="line2d_3">
      <g>
       <use xlink:href="#md4117bb126" x="207.770782" y="561.6" style="stroke: #000000; stroke-width: 0.8"/>
      </g>
     </g>
     <g id="text_3">
      <!-- green -->
      <g transform="translate(183.070658 597.091984) rotate(-45) scale(0.1 -0.1)">
       <defs>
        <path id="DejaVuSans-Bold-67" d="M 2919 594 
Q 2688 288 2409 144 
Q 2131 0 1766 0 
Q 1125 0 706 504 
Q 288 1009 288 1791 
Q 288 2575 706 3076 
Q 1125 3578 1766 3578 
Q 2131 3578 2409 3434 
Q 2688 3291 2919 2981 
L 2919 3500 
L 4044 3500 
L 4044 353 
Q 4044 -491 3511 -936 
Q 2978 -1381 1966 -1381 
Q 1638 -1381 1331 -1331 
Q 1025 -1281 716 -1178 
L 716 -306 
Q 1009 -475 1290 -558 
Q 1572 -641 1856 -641 
Q 2406 -641 2662 -400 
Q 2919 -159 2919 353 
L 2919 594 
z
M 2181 2772 
Q 1834 2772 1640 2515 
Q 1447 2259 1447 1791 
Q 1447 1309 1634 1061 
Q 1822 813 2181 813 
Q 2531 813 2725 1069 
Q 2919 1325 2919 1791 
Q 2919 2259 2725 2515 
Q 2531 2772 2181 2772 
z
" transform="scale(0.015625)"/>
        <path id="DejaVuSans-Bold-65" d="M 4031 1759 
L 4031 1441 
L 1416 1441 
Q 1456 1047 1700 850 
Q 1944 653 2381 653 
Q 2734 653 3104 758 
Q 3475 863 3866 1075 
L 3866 213 
Q 3469 63 3072 -14 
Q 2675 -91 2278 -91 
Q 1328 -91 801 392 
Q 275 875 275 1747 
Q 275 2603 792 3093 
Q 1309 3584 2216 3584 
Q 3041 3584 3536 3087 
Q 4031 2591 4031 1759 
z
M 2881 2131 
Q 2881 2450 2695 2645 
Q 2509 2841 2209 2841 
Q 1884 2841 1681 2658 
Q 1478 2475 1428 2131 
L 2881 2131 
z
" transform="scale(0.015625)"/>
        <path id="DejaVuSans-Bold-6e" d="M 4056 2131 
L 4056 0 
L 2931 0 
L 2931 347 
L 2931 1631 
Q 2931 2084 2911 2256 
Q 2891 2428 2841 2509 
Q 2775 2619 2662 2680 
Q 2550 2741 2406 2741 
Q 2056 2741 1856 2470 
Q 1656 2200 1656 1722 
L 1656 0 
L 538 0 
L 538 3500 
L 1656 3500 
L 1656 2988 
Q 1909 3294 2193 3439 
Q 2478 3584 2822 3584 
Q 3428 3584 3742 3212 
Q 4056 2841 4056 2131 
z
" transform="scale(0.015625)"/>
       </defs>
       <use xlink:href="#DejaVuSans-Bold-67"/>
       <use xlink:href="#DejaVuSans-Bold-72" x="71.582031"/>
       <use xlink:href="#DejaVuSans-Bold-65" x="120.898438"/>
       <use xlink:href="#DejaVuSans-Bold-65" x="188.720703"/>
       <use xlink:href="#DejaVuSans-Bold-6e" x="256.542969"/>
      </g>
     </g>
    </g>
    <g id="xtick_4">
     <g id="line2d_4">
      <g>
       <use xlink:href="#md4117bb126" x="247.094249" y="561.6" style="stroke: #000000; stroke-width: 0.8"/>
      </g>
     </g>
     <g id="text_4">
      <!-- waxy -->
      <g transform="translate(225.093284 594.392825) rotate(-45) scale(0.1 -0.1)">
       <defs>
        <path id="DejaVuSans-Bold-77" d="M 225 3500 
L 1313 3500 
L 1900 1088 
L 2491 3500 
L 3425 3500 
L 4013 1113 
L 4603 3500 
L 5691 3500 
L 4769 0 
L 3547 0 
L 2956 2406 
L 2369 0 
L 1147 0 
L 225 3500 
z
" transform="scale(0.015625)"/>
        <path id="DejaVuSans-Bold-78" d="M 1422 1791 
L 159 3500 
L 1344 3500 
L 2059 2463 
L 2784 3500 
L 3969 3500 
L 2706 1797 
L 4031 0 
L 2847 0 
L 2059 1106 
L 1281 0 
L 97 0 
L 1422 1791 
z
" transform="scale(0.015625)"/>
       </defs>
       <use xlink:href="#DejaVuSans-Bold-77"/>
       <use xlink:href="#DejaVuSans-Bold-61" x="92.382812"/>
       <use xlink:href="#DejaVuSans-Bold-78" x="159.863281"/>
       <use xlink:href="#DejaVuSans-Bold-79" x="224.365234"/>
      </g>
     </g>
    </g>
    <g id="xtick_5">
     <g id="line2d_5">
      <g>
       <use xlink:href="#md4117bb126" x="286.417716" y="561.6" style="stroke: #000000; stroke-width: 0.8"/>
      </g>
     </g>
     <g id="text_5">
      <!-- herbal -->
      <g transform="translate(259.373091 599.54697) rotate(-45) scale(0.1 -0.1)">
       <defs>
        <path id="DejaVuSans-Bold-68" d="M 4056 2131 
L 4056 0 
L 2931 0 
L 2931 347 
L 2931 1625 
Q 2931 2084 2911 2256 
Q 2891 2428 2841 2509 
Q 2775 2619 2662 2680 
Q 2550 2741 2406 2741 
Q 2056 2741 1856 2470 
Q 1656 2200 1656 1722 
L 1656 0 
L 538 0 
L 538 4863 
L 1656 4863 
L 1656 2988 
Q 1909 3294 2193 3439 
Q 2478 3584 2822 3584 
Q 3428 3584 3742 3212 
Q 4056 2841 4056 2131 
z
" transform="scale(0.015625)"/>
        <path id="DejaVuSans-Bold-62" d="M 2400 722 
Q 2759 722 2948 984 
Q 3138 1247 3138 1747 
Q 3138 2247 2948 2509 
Q 2759 2772 2400 2772 
Q 2041 2772 1848 2508 
Q 1656 2244 1656 1747 
Q 1656 1250 1848 986 
Q 2041 722 2400 722 
z
M 1656 2988 
Q 1888 3294 2169 3439 
Q 2450 3584 2816 3584 
Q 3463 3584 3878 3070 
Q 4294 2556 4294 1747 
Q 4294 938 3878 423 
Q 3463 -91 2816 -91 
Q 2450 -91 2169 54 
Q 1888 200 1656 506 
L 1656 0 
L 538 0 
L 538 4863 
L 1656 4863 
L 1656 2988 
z
" transform="scale(0.015625)"/>
       </defs>
       <use xlink:href="#DejaVuSans-Bold-68"/>
       <use xlink:href="#DejaVuSans-Bold-65" x="71.191406"/>
       <use xlink:href="#DejaVuSans-Bold-72" x="139.013672"/>
       <use xlink:href="#DejaVuSans-Bold-62" x="188.330078"/>
       <use xlink:href="#DejaVuSans-Bold-61" x="259.912109"/>
       <use xlink:href="#DejaVuSans-Bold-6c" x="327.392578"/>
      </g>
     </g>
    </g>
    <g id="xtick_6">
     <g id="line2d_6">
      <g>
       <use xlink:href="#md4117bb126" x="325.741183" y="561.6" style="stroke: #000000; stroke-width: 0.8"/>
      </g>
     </g>
     <g id="text_6">
      <!-- woody -->
      <g transform="translate(298.295496 599.89279) rotate(-45) scale(0.1 -0.1)">
       <defs>
        <path id="DejaVuSans-Bold-64" d="M 2919 2988 
L 2919 4863 
L 4044 4863 
L 4044 0 
L 2919 0 
L 2919 506 
Q 2688 197 2409 53 
Q 2131 -91 1766 -91 
Q 1119 -91 703 423 
Q 288 938 288 1747 
Q 288 2556 703 3070 
Q 1119 3584 1766 3584 
Q 2128 3584 2408 3439 
Q 2688 3294 2919 2988 
z
M 2181 722 
Q 2541 722 2730 984 
Q 2919 1247 2919 1747 
Q 2919 2247 2730 2509 
Q 2541 2772 2181 2772 
Q 1825 2772 1636 2509 
Q 1447 2247 1447 1747 
Q 1447 1247 1636 984 
Q 1825 722 2181 722 
z
" transform="scale(0.015625)"/>
       </defs>
       <use xlink:href="#DejaVuSans-Bold-77"/>
       <use xlink:href="#DejaVuSans-Bold-6f" x="92.382812"/>
       <use xlink:href="#DejaVuSans-Bold-6f" x="161.083984"/>
       <use xlink:href="#DejaVuSans-Bold-64" x="229.785156"/>
       <use xlink:href="#DejaVuSans-Bold-79" x="301.367188"/>
      </g>
     </g>
    </g>
    <g id="xtick_7">
     <g id="line2d_7">
      <g>
       <use xlink:href="#md4117bb126" x="365.064651" y="561.6" style="stroke: #000000; stroke-width: 0.8"/>
      </g>
     </g>
     <g id="text_7">
      <!-- balsamic -->
      <g transform="translate(328.372438 609.194558) rotate(-45) scale(0.1 -0.1)">
       <defs>
        <path id="DejaVuSans-Bold-73" d="M 3272 3391 
L 3272 2541 
Q 2913 2691 2578 2766 
Q 2244 2841 1947 2841 
Q 1628 2841 1473 2761 
Q 1319 2681 1319 2516 
Q 1319 2381 1436 2309 
Q 1553 2238 1856 2203 
L 2053 2175 
Q 2913 2066 3209 1816 
Q 3506 1566 3506 1031 
Q 3506 472 3093 190 
Q 2681 -91 1863 -91 
Q 1516 -91 1145 -36 
Q 775 19 384 128 
L 384 978 
Q 719 816 1070 734 
Q 1422 653 1784 653 
Q 2113 653 2278 743 
Q 2444 834 2444 1013 
Q 2444 1163 2330 1236 
Q 2216 1309 1875 1350 
L 1678 1375 
Q 931 1469 631 1722 
Q 331 1975 331 2491 
Q 331 3047 712 3315 
Q 1094 3584 1881 3584 
Q 2191 3584 2531 3537 
Q 2872 3491 3272 3391 
z
" transform="scale(0.015625)"/>
        <path id="DejaVuSans-Bold-6d" d="M 3781 2919 
Q 3994 3244 4286 3414 
Q 4578 3584 4928 3584 
Q 5531 3584 5847 3212 
Q 6163 2841 6163 2131 
L 6163 0 
L 5038 0 
L 5038 1825 
Q 5041 1866 5042 1909 
Q 5044 1953 5044 2034 
Q 5044 2406 4934 2573 
Q 4825 2741 4581 2741 
Q 4263 2741 4089 2478 
Q 3916 2216 3909 1719 
L 3909 0 
L 2784 0 
L 2784 1825 
Q 2784 2406 2684 2573 
Q 2584 2741 2328 2741 
Q 2006 2741 1831 2477 
Q 1656 2213 1656 1722 
L 1656 0 
L 531 0 
L 531 3500 
L 1656 3500 
L 1656 2988 
Q 1863 3284 2130 3434 
Q 2397 3584 2719 3584 
Q 3081 3584 3359 3409 
Q 3638 3234 3781 2919 
z
" transform="scale(0.015625)"/>
        <path id="DejaVuSans-Bold-63" d="M 3366 3391 
L 3366 2478 
Q 3138 2634 2908 2709 
Q 2678 2784 2431 2784 
Q 1963 2784 1702 2511 
Q 1441 2238 1441 1747 
Q 1441 1256 1702 982 
Q 1963 709 2431 709 
Q 2694 709 2930 787 
Q 3166 866 3366 1019 
L 3366 103 
Q 3103 6 2833 -42 
Q 2563 -91 2291 -91 
Q 1344 -91 809 395 
Q 275 881 275 1747 
Q 275 2613 809 3098 
Q 1344 3584 2291 3584 
Q 2566 3584 2833 3536 
Q 3100 3488 3366 3391 
z
" transform="scale(0.015625)"/>
       </defs>
       <use xlink:href="#DejaVuSans-Bold-62"/>
       <use xlink:href="#DejaVuSans-Bold-61" x="71.582031"/>
       <use xlink:href="#DejaVuSans-Bold-6c" x="139.0625"/>
       <use xlink:href="#DejaVuSans-Bold-73" x="173.339844"/>
       <use xlink:href="#DejaVuSans-Bold-61" x="232.861328"/>
       <use xlink:href="#DejaVuSans-Bold-6d" x="300.341797"/>
       <use xlink:href="#DejaVuSans-Bold-69" x="404.541016"/>
       <use xlink:href="#DejaVuSans-Bold-63" x="438.818359"/>
      </g>
     </g>
    </g>
    <g id="xtick_8">
     <g id="line2d_8">
      <g>
       <use xlink:href="#md4117bb126" x="404.388118" y="561.6" style="stroke: #000000; stroke-width: 0.8"/>
      </g>
     </g>
     <g id="text_8">
      <!-- citrus -->
      <g transform="translate(380.192912 596.697551) rotate(-45) scale(0.1 -0.1)">
       <use xlink:href="#DejaVuSans-Bold-63"/>
       <use xlink:href="#DejaVuSans-Bold-69" x="59.277344"/>
       <use xlink:href="#DejaVuSans-Bold-74" x="93.554688"/>
       <use xlink:href="#DejaVuSans-Bold-72" x="141.357422"/>
       <use xlink:href="#DejaVuSans-Bold-75" x="190.673828"/>
       <use xlink:href="#DejaVuSans-Bold-73" x="261.865234"/>
      </g>
     </g>
    </g>
    <g id="xtick_9">
     <g id="line2d_9">
      <g>
       <use xlink:href="#md4117bb126" x="443.711585" y="561.6" style="stroke: #000000; stroke-width: 0.8"/>
      </g>
     </g>
     <g id="text_9">
      <!-- spicy -->
      <g transform="translate(421.690733 594.467955) rotate(-45) scale(0.1 -0.1)">
       <defs>
        <path id="DejaVuSans-Bold-70" d="M 1656 506 
L 1656 -1331 
L 538 -1331 
L 538 3500 
L 1656 3500 
L 1656 2988 
Q 1888 3294 2169 3439 
Q 2450 3584 2816 3584 
Q 3463 3584 3878 3070 
Q 4294 2556 4294 1747 
Q 4294 938 3878 423 
Q 3463 -91 2816 -91 
Q 2450 -91 2169 54 
Q 1888 200 1656 506 
z
M 2400 2772 
Q 2041 2772 1848 2508 
Q 1656 2244 1656 1747 
Q 1656 1250 1848 986 
Q 2041 722 2400 722 
Q 2759 722 2948 984 
Q 3138 1247 3138 1747 
Q 3138 2247 2948 2509 
Q 2759 2772 2400 2772 
z
" transform="scale(0.015625)"/>
       </defs>
       <use xlink:href="#DejaVuSans-Bold-73"/>
       <use xlink:href="#DejaVuSans-Bold-70" x="59.521484"/>
       <use xlink:href="#DejaVuSans-Bold-69" x="131.103516"/>
       <use xlink:href="#DejaVuSans-Bold-63" x="165.380859"/>
       <use xlink:href="#DejaVuSans-Bold-79" x="224.658203"/>
      </g>
     </g>
    </g>
    <g id="xtick_10">
     <g id="line2d_10">
      <g>
       <use xlink:href="#md4117bb126" x="483.035052" y="561.6" style="stroke: #000000; stroke-width: 0.8"/>
      </g>
     </g>
     <g id="text_10">
      <!-- fatty -->
      <g transform="translate(462.292517 593.189638) rotate(-45) scale(0.1 -0.1)">
       <use xlink:href="#DejaVuSans-Bold-66"/>
       <use xlink:href="#DejaVuSans-Bold-61" x="43.505859"/>
       <use xlink:href="#DejaVuSans-Bold-74" x="110.986328"/>
       <use xlink:href="#DejaVuSans-Bold-74" x="158.789062"/>
       <use xlink:href="#DejaVuSans-Bold-79" x="206.591797"/>
      </g>
     </g>
    </g>
    <g id="xtick_11">
     <g id="line2d_11">
      <g>
       <use xlink:href="#md4117bb126" x="522.358519" y="561.6" style="stroke: #000000; stroke-width: 0.8"/>
      </g>
     </g>
     <g id="text_11">
      <!-- sulfurous -->
      <g transform="translate(483.525099 611.335766) rotate(-45) scale(0.1 -0.1)">
       <use xlink:href="#DejaVuSans-Bold-73"/>
       <use xlink:href="#DejaVuSans-Bold-75" x="59.521484"/>
       <use xlink:href="#DejaVuSans-Bold-6c" x="130.712891"/>
       <use xlink:href="#DejaVuSans-Bold-66" x="164.990234"/>
       <use xlink:href="#DejaVuSans-Bold-75" x="208.496094"/>
       <use xlink:href="#DejaVuSans-Bold-72" x="279.6875"/>
       <use xlink:href="#DejaVuSans-Bold-6f" x="329.003906"/>
       <use xlink:href="#DejaVuSans-Bold-75" x="397.705078"/>
       <use xlink:href="#DejaVuSans-Bold-73" x="468.896484"/>
      </g>
     </g>
    </g>
    <g id="xtick_12">
     <g id="line2d_12">
      <g>
       <use xlink:href="#md4117bb126" x="561.681987" y="561.6" style="stroke: #000000; stroke-width: 0.8"/>
      </g>
     </g>
     <g id="text_12">
      <!-- aldehydic -->
      <g transform="translate(521.782382 612.346708) rotate(-45) scale(0.1 -0.1)">
       <use xlink:href="#DejaVuSans-Bold-61"/>
       <use xlink:href="#DejaVuSans-Bold-6c" x="67.480469"/>
       <use xlink:href="#DejaVuSans-Bold-64" x="101.757812"/>
       <use xlink:href="#DejaVuSans-Bold-65" x="173.339844"/>
       <use xlink:href="#DejaVuSans-Bold-68" x="241.162109"/>
       <use xlink:href="#DejaVuSans-Bold-79" x="312.353516"/>
       <use xlink:href="#DejaVuSans-Bold-64" x="377.539062"/>
       <use xlink:href="#DejaVuSans-Bold-69" x="449.121094"/>
       <use xlink:href="#DejaVuSans-Bold-63" x="483.398438"/>
      </g>
     </g>
    </g>
    <g id="xtick_13">
     <g id="line2d_13">
      <g>
       <use xlink:href="#md4117bb126" x="601.005454" y="561.6" style="stroke: #000000; stroke-width: 0.8"/>
      </g>
     </g>
     <g id="text_13">
      <!-- honey -->
      <g transform="translate(575.148548 598.304009) rotate(-45) scale(0.1 -0.1)">
       <use xlink:href="#DejaVuSans-Bold-68"/>
       <use xlink:href="#DejaVuSans-Bold-6f" x="71.191406"/>
       <use xlink:href="#DejaVuSans-Bold-6e" x="139.892578"/>
       <use xlink:href="#DejaVuSans-Bold-65" x="211.083984"/>
       <use xlink:href="#DejaVuSans-Bold-79" x="278.90625"/>
      </g>
     </g>
    </g>
    <g id="xtick_14">
     <g id="line2d_14">
      <g>
       <use xlink:href="#md4117bb126" x="640.328921" y="561.6" style="stroke: #000000; stroke-width: 0.8"/>
      </g>
     </g>
     <g id="text_14">
      <!-- ethereal -->
      <g transform="translate(605.373539 607.457727) rotate(-45) scale(0.1 -0.1)">
       <use xlink:href="#DejaVuSans-Bold-65"/>
       <use xlink:href="#DejaVuSans-Bold-74" x="67.822266"/>
       <use xlink:href="#DejaVuSans-Bold-68" x="115.625"/>
       <use xlink:href="#DejaVuSans-Bold-65" x="186.816406"/>
       <use xlink:href="#DejaVuSans-Bold-72" x="254.638672"/>
       <use xlink:href="#DejaVuSans-Bold-65" x="303.955078"/>
       <use xlink:href="#DejaVuSans-Bold-61" x="371.777344"/>
       <use xlink:href="#DejaVuSans-Bold-6c" x="439.257812"/>
      </g>
     </g>
    </g>
    <g id="xtick_15">
     <g id="line2d_15">
      <g>
       <use xlink:href="#md4117bb126" x="679.652388" y="561.6" style="stroke: #000000; stroke-width: 0.8"/>
      </g>
     </g>
     <g id="text_15">
      <!-- caramellic -->
      <g transform="translate(637.330943 614.823791) rotate(-45) scale(0.1 -0.1)">
       <use xlink:href="#DejaVuSans-Bold-63"/>
       <use xlink:href="#DejaVuSans-Bold-61" x="59.277344"/>
       <use xlink:href="#DejaVuSans-Bold-72" x="126.757812"/>
       <use xlink:href="#DejaVuSans-Bold-61" x="176.074219"/>
       <use xlink:href="#DejaVuSans-Bold-6d" x="243.554688"/>
       <use xlink:href="#DejaVuSans-Bold-65" x="347.753906"/>
       <use xlink:href="#DejaVuSans-Bold-6c" x="415.576172"/>
       <use xlink:href="#DejaVuSans-Bold-6c" x="449.853516"/>
       <use xlink:href="#DejaVuSans-Bold-69" x="484.130859"/>
       <use xlink:href="#DejaVuSans-Bold-63" x="518.408203"/>
      </g>
     </g>
    </g>
    <g id="xtick_16">
     <g id="line2d_16">
      <g>
       <use xlink:href="#md4117bb126" x="718.975856" y="561.6" style="stroke: #000000; stroke-width: 0.8"/>
      </g>
     </g>
     <g id="text_16">
      <!-- creamy -->
      <g transform="translate(688.225549 603.142166) rotate(-45) scale(0.1 -0.1)">
       <use xlink:href="#DejaVuSans-Bold-63"/>
       <use xlink:href="#DejaVuSans-Bold-72" x="59.277344"/>
       <use xlink:href="#DejaVuSans-Bold-65" x="108.59375"/>
       <use xlink:href="#DejaVuSans-Bold-61" x="176.416016"/>
       <use xlink:href="#DejaVuSans-Bold-6d" x="243.896484"/>
       <use xlink:href="#DejaVuSans-Bold-79" x="348.095703"/>
      </g>
     </g>
    </g>
    <g id="xtick_17">
     <g id="line2d_17">
      <g>
       <use xlink:href="#md4117bb126" x="758.299323" y="561.6" style="stroke: #000000; stroke-width: 0.8"/>
      </g>
     </g>
     <g id="text_17">
      <!-- alliaceous -->
      <g transform="translate(716.924737 613.876931) rotate(-45) scale(0.1 -0.1)">
       <use xlink:href="#DejaVuSans-Bold-61"/>
       <use xlink:href="#DejaVuSans-Bold-6c" x="67.480469"/>
       <use xlink:href="#DejaVuSans-Bold-6c" x="101.757812"/>
       <use xlink:href="#DejaVuSans-Bold-69" x="136.035156"/>
       <use xlink:href="#DejaVuSans-Bold-61" x="170.3125"/>
       <use xlink:href="#DejaVuSans-Bold-63" x="237.792969"/>
       <use xlink:href="#DejaVuSans-Bold-65" x="297.070312"/>
       <use xlink:href="#DejaVuSans-Bold-6f" x="364.892578"/>
       <use xlink:href="#DejaVuSans-Bold-75" x="433.59375"/>
       <use xlink:href="#DejaVuSans-Bold-73" x="504.785156"/>
      </g>
     </g>
    </g>
    <g id="xtick_18">
     <g id="line2d_18">
      <g>
       <use xlink:href="#md4117bb126" x="797.62279" y="561.6" style="stroke: #000000; stroke-width: 0.8"/>
      </g>
     </g>
     <g id="text_18">
      <!-- berry -->
      <g transform="translate(774.656183 595.41371) rotate(-45) scale(0.1 -0.1)">
       <use xlink:href="#DejaVuSans-Bold-62"/>
       <use xlink:href="#DejaVuSans-Bold-65" x="71.582031"/>
       <use xlink:href="#DejaVuSans-Bold-72" x="139.404297"/>
       <use xlink:href="#DejaVuSans-Bold-72" x="188.720703"/>
       <use xlink:href="#DejaVuSans-Bold-79" x="238.037109"/>
      </g>
     </g>
    </g>
    <g id="xtick_19">
     <g id="line2d_19">
      <g>
       <use xlink:href="#md4117bb126" x="836.946257" y="561.6" style="stroke: #000000; stroke-width: 0.8"/>
      </g>
     </g>
     <g id="text_19">
      <!-- vanilla -->
      <g transform="translate(809.016644 600.431959) rotate(-45) scale(0.1 -0.1)">
       <defs>
        <path id="DejaVuSans-Bold-76" d="M 97 3500 
L 1216 3500 
L 2088 1081 
L 2956 3500 
L 4078 3500 
L 2700 0 
L 1472 0 
L 97 3500 
z
" transform="scale(0.015625)"/>
       </defs>
       <use xlink:href="#DejaVuSans-Bold-76"/>
       <use xlink:href="#DejaVuSans-Bold-61" x="65.185547"/>
       <use xlink:href="#DejaVuSans-Bold-6e" x="132.666016"/>
       <use xlink:href="#DejaVuSans-Bold-69" x="203.857422"/>
       <use xlink:href="#DejaVuSans-Bold-6c" x="238.134766"/>
       <use xlink:href="#DejaVuSans-Bold-6c" x="272.412109"/>
       <use xlink:href="#DejaVuSans-Bold-61" x="306.689453"/>
      </g>
     </g>
    </g>
    <g id="xtick_20">
     <g id="line2d_20">
      <g>
       <use xlink:href="#md4117bb126" x="876.269724" y="561.6" style="stroke: #000000; stroke-width: 0.8"/>
      </g>
     </g>
     <g id="text_20">
      <!-- nutty -->
      <g transform="translate(853.307537 595.354048) rotate(-45) scale(0.1 -0.1)">
       <use xlink:href="#DejaVuSans-Bold-6e"/>
       <use xlink:href="#DejaVuSans-Bold-75" x="71.191406"/>
       <use xlink:href="#DejaVuSans-Bold-74" x="142.382812"/>
       <use xlink:href="#DejaVuSans-Bold-74" x="190.185547"/>
       <use xlink:href="#DejaVuSans-Bold-79" x="237.988281"/>
      </g>
     </g>
    </g>
    <g id="xtick_21">
     <g id="line2d_21">
      <g>
       <use xlink:href="#md4117bb126" x="915.593192" y="561.6" style="stroke: #000000; stroke-width: 0.8"/>
      </g>
     </g>
     <g id="text_21">
      <!-- buttery -->
      <g transform="translate(884.320289 603.720005) rotate(-45) scale(0.1 -0.1)">
       <use xlink:href="#DejaVuSans-Bold-62"/>
       <use xlink:href="#DejaVuSans-Bold-75" x="71.582031"/>
       <use xlink:href="#DejaVuSans-Bold-74" x="142.773438"/>
       <use xlink:href="#DejaVuSans-Bold-74" x="190.576172"/>
       <use xlink:href="#DejaVuSans-Bold-65" x="238.378906"/>
       <use xlink:href="#DejaVuSans-Bold-72" x="306.201172"/>
       <use xlink:href="#DejaVuSans-Bold-79" x="355.517578"/>
      </g>
     </g>
    </g>
    <g id="xtick_22">
     <g id="line2d_22">
      <g>
       <use xlink:href="#md4117bb126" x="954.916659" y="561.6" style="stroke: #000000; stroke-width: 0.8"/>
      </g>
     </g>
     <g id="text_22">
      <!-- tropical -->
      <g transform="translate(922.848262 604.570743) rotate(-45) scale(0.1 -0.1)">
       <use xlink:href="#DejaVuSans-Bold-74"/>
       <use xlink:href="#DejaVuSans-Bold-72" x="47.802734"/>
       <use xlink:href="#DejaVuSans-Bold-6f" x="97.119141"/>
       <use xlink:href="#DejaVuSans-Bold-70" x="165.820312"/>
       <use xlink:href="#DejaVuSans-Bold-69" x="237.402344"/>
       <use xlink:href="#DejaVuSans-Bold-63" x="271.679688"/>
       <use xlink:href="#DejaVuSans-Bold-61" x="330.957031"/>
       <use xlink:href="#DejaVuSans-Bold-6c" x="398.4375"/>
      </g>
     </g>
    </g>
    <g id="xtick_23">
     <g id="line2d_23">
      <g>
       <use xlink:href="#md4117bb126" x="994.240126" y="561.6" style="stroke: #000000; stroke-width: 0.8"/>
      </g>
     </g>
     <g id="text_23">
      <!-- earthy -->
      <g transform="translate(966.636445 600.050784) rotate(-45) scale(0.1 -0.1)">
       <use xlink:href="#DejaVuSans-Bold-65"/>
       <use xlink:href="#DejaVuSans-Bold-61" x="67.822266"/>
       <use xlink:href="#DejaVuSans-Bold-72" x="135.302734"/>
       <use xlink:href="#DejaVuSans-Bold-74" x="184.619141"/>
       <use xlink:href="#DejaVuSans-Bold-68" x="232.421875"/>
       <use xlink:href="#DejaVuSans-Bold-79" x="303.613281"/>
      </g>
     </g>
    </g>
    <g id="xtick_24">
     <g id="line2d_24">
      <g>
       <use xlink:href="#md4117bb126" x="1033.563593" y="561.6" style="stroke: #000000; stroke-width: 0.8"/>
      </g>
     </g>
     <g id="text_24">
      <!-- musk -->
      <g transform="translate(1010.780392 595.285547) rotate(-45) scale(0.1 -0.1)">
       <defs>
        <path id="DejaVuSans-Bold-6b" d="M 538 4863 
L 1656 4863 
L 1656 2216 
L 2944 3500 
L 4244 3500 
L 2534 1894 
L 4378 0 
L 3022 0 
L 1656 1459 
L 1656 0 
L 538 0 
L 538 4863 
z
" transform="scale(0.015625)"/>
       </defs>
       <use xlink:href="#DejaVuSans-Bold-6d"/>
       <use xlink:href="#DejaVuSans-Bold-75" x="104.199219"/>
       <use xlink:href="#DejaVuSans-Bold-73" x="175.390625"/>
       <use xlink:href="#DejaVuSans-Bold-6b" x="234.912109"/>
      </g>
     </g>
    </g>
    <g id="xtick_25">
     <g id="line2d_25">
      <g>
       <use xlink:href="#md4117bb126" x="1072.887061" y="561.6" style="stroke: #000000; stroke-width: 0.8"/>
      </g>
     </g>
     <g id="text_25">
      <!-- fermented -->
      <g transform="translate(1029.622069 615.767337) rotate(-45) scale(0.1 -0.1)">
       <use xlink:href="#DejaVuSans-Bold-66"/>
       <use xlink:href="#DejaVuSans-Bold-65" x="43.505859"/>
       <use xlink:href="#DejaVuSans-Bold-72" x="111.328125"/>
       <use xlink:href="#DejaVuSans-Bold-6d" x="160.644531"/>
       <use xlink:href="#DejaVuSans-Bold-65" x="264.84375"/>
       <use xlink:href="#DejaVuSans-Bold-6e" x="332.666016"/>
       <use xlink:href="#DejaVuSans-Bold-74" x="403.857422"/>
       <use xlink:href="#DejaVuSans-Bold-65" x="451.660156"/>
       <use xlink:href="#DejaVuSans-Bold-64" x="519.482422"/>
      </g>
     </g>
    </g>
    <g id="xtick_26">
     <g id="line2d_26">
      <g>
       <use xlink:href="#md4117bb126" x="1112.210528" y="561.6" style="stroke: #000000; stroke-width: 0.8"/>
      </g>
     </g>
     <g id="text_26">
      <!-- minty -->
      <g transform="translate(1087.869482 596.788149) rotate(-45) scale(0.1 -0.1)">
       <use xlink:href="#DejaVuSans-Bold-6d"/>
       <use xlink:href="#DejaVuSans-Bold-69" x="104.199219"/>
       <use xlink:href="#DejaVuSans-Bold-6e" x="138.476562"/>
       <use xlink:href="#DejaVuSans-Bold-74" x="209.667969"/>
       <use xlink:href="#DejaVuSans-Bold-79" x="257.470703"/>
      </g>
     </g>
    </g>
   </g>
   <g id="matplotlib.axis_2">
    <g id="ytick_1">
     <g id="line2d_27">
      <defs>
       <path id="ma2921f8284" d="M 0 0 
L -3.5 0 
" style="stroke: #000000; stroke-width: 0.8"/>
      </defs>
      <g>
       <use xlink:href="#ma2921f8284" x="62.667188" y="561.6" style="stroke: #000000; stroke-width: 0.8"/>
      </g>
     </g>
     <g id="text_27">
      <!-- 0 -->
      <g transform="translate(48.709375 565.399219) scale(0.1 -0.1)">
       <defs>
        <path id="DejaVuSans-Bold-30" d="M 2944 2338 
Q 2944 3213 2780 3570 
Q 2616 3928 2228 3928 
Q 1841 3928 1675 3570 
Q 1509 3213 1509 2338 
Q 1509 1453 1675 1090 
Q 1841 728 2228 728 
Q 2613 728 2778 1090 
Q 2944 1453 2944 2338 
z
M 4147 2328 
Q 4147 1169 3647 539 
Q 3147 -91 2228 -91 
Q 1306 -91 806 539 
Q 306 1169 306 2328 
Q 306 3491 806 4120 
Q 1306 4750 2228 4750 
Q 3147 4750 3647 4120 
Q 4147 3491 4147 2328 
z
" transform="scale(0.015625)"/>
       </defs>
       <use xlink:href="#DejaVuSans-Bold-30"/>
      </g>
     </g>
    </g>
    <g id="ytick_2">
     <g id="line2d_28">
      <g>
       <use xlink:href="#ma2921f8284" x="62.667188" y="456.856799" style="stroke: #000000; stroke-width: 0.8"/>
      </g>
     </g>
     <g id="text_28">
      <!-- 10000 -->
      <g transform="translate(20.878125 460.656018) scale(0.1 -0.1)">
       <defs>
        <path id="DejaVuSans-Bold-31" d="M 750 831 
L 1813 831 
L 1813 3847 
L 722 3622 
L 722 4441 
L 1806 4666 
L 2950 4666 
L 2950 831 
L 4013 831 
L 4013 0 
L 750 0 
L 750 831 
z
" transform="scale(0.015625)"/>
       </defs>
       <use xlink:href="#DejaVuSans-Bold-31"/>
       <use xlink:href="#DejaVuSans-Bold-30" x="69.580078"/>
       <use xlink:href="#DejaVuSans-Bold-30" x="139.160156"/>
       <use xlink:href="#DejaVuSans-Bold-30" x="208.740234"/>
       <use xlink:href="#DejaVuSans-Bold-30" x="278.320312"/>
      </g>
     </g>
    </g>
    <g id="ytick_3">
     <g id="line2d_29">
      <g>
       <use xlink:href="#ma2921f8284" x="62.667188" y="352.113599" style="stroke: #000000; stroke-width: 0.8"/>
      </g>
     </g>
     <g id="text_29">
      <!-- 20000 -->
      <g transform="translate(20.878125 355.912818) scale(0.1 -0.1)">
       <defs>
        <path id="DejaVuSans-Bold-32" d="M 1844 884 
L 3897 884 
L 3897 0 
L 506 0 
L 506 884 
L 2209 2388 
Q 2438 2594 2547 2791 
Q 2656 2988 2656 3200 
Q 2656 3528 2436 3728 
Q 2216 3928 1850 3928 
Q 1569 3928 1234 3808 
Q 900 3688 519 3450 
L 519 4475 
Q 925 4609 1322 4679 
Q 1719 4750 2100 4750 
Q 2938 4750 3402 4381 
Q 3866 4013 3866 3353 
Q 3866 2972 3669 2642 
Q 3472 2313 2841 1759 
L 1844 884 
z
" transform="scale(0.015625)"/>
       </defs>
       <use xlink:href="#DejaVuSans-Bold-32"/>
       <use xlink:href="#DejaVuSans-Bold-30" x="69.580078"/>
       <use xlink:href="#DejaVuSans-Bold-30" x="139.160156"/>
       <use xlink:href="#DejaVuSans-Bold-30" x="208.740234"/>
       <use xlink:href="#DejaVuSans-Bold-30" x="278.320312"/>
      </g>
     </g>
    </g>
    <g id="ytick_4">
     <g id="line2d_30">
      <g>
       <use xlink:href="#ma2921f8284" x="62.667188" y="247.370398" style="stroke: #000000; stroke-width: 0.8"/>
      </g>
     </g>
     <g id="text_30">
      <!-- 30000 -->
      <g transform="translate(20.878125 251.169617) scale(0.1 -0.1)">
       <defs>
        <path id="DejaVuSans-Bold-33" d="M 2981 2516 
Q 3453 2394 3698 2092 
Q 3944 1791 3944 1325 
Q 3944 631 3412 270 
Q 2881 -91 1863 -91 
Q 1503 -91 1142 -33 
Q 781 25 428 141 
L 428 1069 
Q 766 900 1098 814 
Q 1431 728 1753 728 
Q 2231 728 2486 893 
Q 2741 1059 2741 1369 
Q 2741 1688 2480 1852 
Q 2219 2016 1709 2016 
L 1228 2016 
L 1228 2791 
L 1734 2791 
Q 2188 2791 2409 2933 
Q 2631 3075 2631 3366 
Q 2631 3634 2415 3781 
Q 2200 3928 1806 3928 
Q 1516 3928 1219 3862 
Q 922 3797 628 3669 
L 628 4550 
Q 984 4650 1334 4700 
Q 1684 4750 2022 4750 
Q 2931 4750 3382 4451 
Q 3834 4153 3834 3553 
Q 3834 3144 3618 2883 
Q 3403 2622 2981 2516 
z
" transform="scale(0.015625)"/>
       </defs>
       <use xlink:href="#DejaVuSans-Bold-33"/>
       <use xlink:href="#DejaVuSans-Bold-30" x="69.580078"/>
       <use xlink:href="#DejaVuSans-Bold-30" x="139.160156"/>
       <use xlink:href="#DejaVuSans-Bold-30" x="208.740234"/>
       <use xlink:href="#DejaVuSans-Bold-30" x="278.320312"/>
      </g>
     </g>
    </g>
    <g id="ytick_5">
     <g id="line2d_31">
      <g>
       <use xlink:href="#ma2921f8284" x="62.667188" y="142.627198" style="stroke: #000000; stroke-width: 0.8"/>
      </g>
     </g>
     <g id="text_31">
      <!-- 40000 -->
      <g transform="translate(20.878125 146.426416) scale(0.1 -0.1)">
       <defs>
        <path id="DejaVuSans-Bold-34" d="M 2356 3675 
L 1038 1722 
L 2356 1722 
L 2356 3675 
z
M 2156 4666 
L 3494 4666 
L 3494 1722 
L 4159 1722 
L 4159 850 
L 3494 850 
L 3494 0 
L 2356 0 
L 2356 850 
L 288 850 
L 288 1881 
L 2156 4666 
z
" transform="scale(0.015625)"/>
       </defs>
       <use xlink:href="#DejaVuSans-Bold-34"/>
       <use xlink:href="#DejaVuSans-Bold-30" x="69.580078"/>
       <use xlink:href="#DejaVuSans-Bold-30" x="139.160156"/>
       <use xlink:href="#DejaVuSans-Bold-30" x="208.740234"/>
       <use xlink:href="#DejaVuSans-Bold-30" x="278.320312"/>
      </g>
     </g>
    </g>
    <g id="ytick_6">
     <g id="line2d_32">
      <g>
       <use xlink:href="#ma2921f8284" x="62.667188" y="37.883997" style="stroke: #000000; stroke-width: 0.8"/>
      </g>
     </g>
     <g id="text_32">
      <!-- 50000 -->
      <g transform="translate(20.878125 41.683216) scale(0.1 -0.1)">
       <defs>
        <path id="DejaVuSans-Bold-35" d="M 678 4666 
L 3669 4666 
L 3669 3781 
L 1638 3781 
L 1638 3059 
Q 1775 3097 1914 3117 
Q 2053 3138 2203 3138 
Q 3056 3138 3531 2711 
Q 4006 2284 4006 1522 
Q 4006 766 3489 337 
Q 2972 -91 2053 -91 
Q 1656 -91 1267 -14 
Q 878 63 494 219 
L 494 1166 
Q 875 947 1217 837 
Q 1559 728 1863 728 
Q 2300 728 2551 942 
Q 2803 1156 2803 1522 
Q 2803 1891 2551 2103 
Q 2300 2316 1863 2316 
Q 1603 2316 1309 2248 
Q 1016 2181 678 2041 
L 678 4666 
z
" transform="scale(0.015625)"/>
       </defs>
       <use xlink:href="#DejaVuSans-Bold-35"/>
       <use xlink:href="#DejaVuSans-Bold-30" x="69.580078"/>
       <use xlink:href="#DejaVuSans-Bold-30" x="139.160156"/>
       <use xlink:href="#DejaVuSans-Bold-30" x="208.740234"/>
       <use xlink:href="#DejaVuSans-Bold-30" x="278.320312"/>
      </g>
     </g>
    </g>
    <g id="text_33">
     <!-- Frequency -->
     <g transform="translate(14.720313 313.666406) rotate(-90) scale(0.1 -0.1)">
      <defs>
       <path id="DejaVuSans-Bold-46" d="M 588 4666 
L 3834 4666 
L 3834 3756 
L 1791 3756 
L 1791 2888 
L 3713 2888 
L 3713 1978 
L 1791 1978 
L 1791 0 
L 588 0 
L 588 4666 
z
" transform="scale(0.015625)"/>
       <path id="DejaVuSans-Bold-71" d="M 2181 2772 
Q 1825 2772 1636 2509 
Q 1447 2247 1447 1747 
Q 1447 1247 1636 984 
Q 1825 722 2181 722 
Q 2541 722 2730 984 
Q 2919 1247 2919 1747 
Q 2919 2247 2730 2509 
Q 2541 2772 2181 2772 
z
M 2919 506 
Q 2688 197 2409 53 
Q 2131 -91 1766 -91 
Q 1119 -91 703 423 
Q 288 938 288 1747 
Q 288 2556 703 3067 
Q 1119 3578 1766 3578 
Q 2131 3578 2409 3434 
Q 2688 3291 2919 2981 
L 2919 3500 
L 4044 3500 
L 4044 -1331 
L 2919 -1331 
L 2919 506 
z
" transform="scale(0.015625)"/>
      </defs>
      <use xlink:href="#DejaVuSans-Bold-46"/>
      <use xlink:href="#DejaVuSans-Bold-72" x="61.935547"/>
      <use xlink:href="#DejaVuSans-Bold-65" x="111.251953"/>
      <use xlink:href="#DejaVuSans-Bold-71" x="179.074219"/>
      <use xlink:href="#DejaVuSans-Bold-75" x="250.65625"/>
      <use xlink:href="#DejaVuSans-Bold-65" x="321.847656"/>
      <use xlink:href="#DejaVuSans-Bold-6e" x="389.669922"/>
      <use xlink:href="#DejaVuSans-Bold-63" x="460.861328"/>
      <use xlink:href="#DejaVuSans-Bold-79" x="520.138672"/>
     </g>
    </g>
   </g>
   <g id="patch_29">
    <path d="M 62.667188 561.6 
L 62.667188 7.2 
" style="fill: none; stroke: #000000; stroke-width: 0.8; stroke-linejoin: miter; stroke-linecap: square"/>
   </g>
   <g id="patch_30">
    <path d="M 1178.667187 561.6 
L 1178.667187 7.2 
" style="fill: none; stroke: #000000; stroke-width: 0.8; stroke-linejoin: miter; stroke-linecap: square"/>
   </g>
   <g id="patch_31">
    <path d="M 62.667188 561.6 
L 1178.667188 561.6 
" style="fill: none; stroke: #000000; stroke-width: 0.8; stroke-linejoin: miter; stroke-linecap: square"/>
   </g>
   <g id="patch_32">
    <path d="M 62.667188 7.2 
L 1178.667188 7.2 
" style="fill: none; stroke: #000000; stroke-width: 0.8; stroke-linejoin: miter; stroke-linecap: square"/>
   </g>
  </g>
  <g id="axes_2">
   <g id="patch_33">
    <path d="M 129.123847 561.6 
L 144.853234 561.6 
L 144.853234 33.6 
L 129.123847 33.6 
z
" clip-path="url(#pcadab969ce)" style="fill: #d62728"/>
   </g>
   <g id="patch_34">
    <path d="M 168.447314 561.6 
L 184.176701 561.6 
L 184.176701 49.129412 
L 168.447314 49.129412 
z
" clip-path="url(#pcadab969ce)" style="fill: #d62728"/>
   </g>
   <g id="patch_35">
    <path d="M 207.770782 561.6 
L 223.500168 561.6 
L 223.500168 51.172755 
L 207.770782 51.172755 
z
" clip-path="url(#pcadab969ce)" style="fill: #d62728"/>
   </g>
   <g id="patch_36">
    <path d="M 247.094249 561.6 
L 262.823636 561.6 
L 262.823636 141.284211 
L 247.094249 141.284211 
z
" clip-path="url(#pcadab969ce)" style="fill: #d62728"/>
   </g>
   <g id="patch_37">
    <path d="M 286.417716 561.6 
L 302.147103 561.6 
L 302.147103 127.185139 
L 286.417716 127.185139 
z
" clip-path="url(#pcadab969ce)" style="fill: #d62728"/>
   </g>
   <g id="patch_38">
    <path d="M 325.741183 561.6 
L 341.47057 561.6 
L 341.47057 186.442105 
L 325.741183 186.442105 
z
" clip-path="url(#pcadab969ce)" style="fill: #d62728"/>
   </g>
   <g id="patch_39">
    <path d="M 365.064651 561.6 
L 380.794037 561.6 
L 380.794037 168.052012 
L 365.064651 168.052012 
z
" clip-path="url(#pcadab969ce)" style="fill: #d62728"/>
   </g>
   <g id="patch_40">
    <path d="M 404.388118 561.6 
L 420.117505 561.6 
L 420.117505 216.070588 
L 404.388118 216.070588 
z
" clip-path="url(#pcadab969ce)" style="fill: #d62728"/>
   </g>
   <g id="patch_41">
    <path d="M 443.711585 561.6 
L 459.440972 561.6 
L 459.440972 212.188235 
L 443.711585 212.188235 
z
" clip-path="url(#pcadab969ce)" style="fill: #d62728"/>
   </g>
   <g id="patch_42">
    <path d="M 483.035052 561.6 
L 498.764439 561.6 
L 498.764439 250.194427 
L 483.035052 250.194427 
z
" clip-path="url(#pcadab969ce)" style="fill: #d62728"/>
   </g>
   <g id="patch_43">
    <path d="M 522.358519 561.6 
L 538.087906 561.6 
L 538.087906 334.58452 
L 522.358519 334.58452 
z
" clip-path="url(#pcadab969ce)" style="fill: #d62728"/>
   </g>
   <g id="patch_44">
    <path d="M 561.681987 561.6 
L 577.411374 561.6 
L 577.411374 289.63096 
L 561.681987 289.63096 
z
" clip-path="url(#pcadab969ce)" style="fill: #d62728"/>
   </g>
   <g id="patch_45">
    <path d="M 601.005454 561.6 
L 616.734841 561.6 
L 616.734841 290.039628 
L 601.005454 290.039628 
z
" clip-path="url(#pcadab969ce)" style="fill: #d62728"/>
   </g>
   <g id="patch_46">
    <path d="M 640.328921 561.6 
L 656.058308 561.6 
L 656.058308 310.268731 
L 640.328921 310.268731 
z
" clip-path="url(#pcadab969ce)" style="fill: #d62728"/>
   </g>
   <g id="patch_47">
    <path d="M 679.652388 561.6 
L 695.381775 561.6 
L 695.381775 364.826006 
L 679.652388 364.826006 
z
" clip-path="url(#pcadab969ce)" style="fill: #d62728"/>
   </g>
   <g id="patch_48">
    <path d="M 718.975856 561.6 
L 734.705242 561.6 
L 734.705242 376.064396 
L 718.975856 376.064396 
z
" clip-path="url(#pcadab969ce)" style="fill: #d62728"/>
   </g>
   <g id="patch_49">
    <path d="M 758.299323 561.6 
L 774.02871 561.6 
L 774.02871 386.281115 
L 758.299323 386.281115 
z
" clip-path="url(#pcadab969ce)" style="fill: #d62728"/>
   </g>
   <g id="patch_50">
    <path d="M 797.62279 561.6 
L 813.352177 561.6 
L 813.352177 345.209907 
L 797.62279 345.209907 
z
" clip-path="url(#pcadab969ce)" style="fill: #d62728"/>
   </g>
   <g id="patch_51">
    <path d="M 836.946257 561.6 
L 852.675644 561.6 
L 852.675644 416.726935 
L 836.946257 416.726935 
z
" clip-path="url(#pcadab969ce)" style="fill: #d62728"/>
   </g>
   <g id="patch_52">
    <path d="M 876.269724 561.6 
L 891.999111 561.6 
L 891.999111 397.723839 
L 876.269724 397.723839 
z
" clip-path="url(#pcadab969ce)" style="fill: #d62728"/>
   </g>
   <g id="patch_53">
    <path d="M 915.593192 561.6 
L 931.322579 561.6 
L 931.322579 458.61548 
L 915.593192 458.61548 
z
" clip-path="url(#pcadab969ce)" style="fill: #d62728"/>
   </g>
   <g id="patch_54">
    <path d="M 954.916659 561.6 
L 970.646046 561.6 
L 970.646046 416.113932 
L 954.916659 416.113932 
z
" clip-path="url(#pcadab969ce)" style="fill: #d62728"/>
   </g>
   <g id="patch_55">
    <path d="M 994.240126 561.6 
L 1009.969513 561.6 
L 1009.969513 369.321362 
L 994.240126 369.321362 
z
" clip-path="url(#pcadab969ce)" style="fill: #d62728"/>
   </g>
   <g id="patch_56">
    <path d="M 1033.563593 561.6 
L 1049.29298 561.6 
L 1049.29298 451.055108 
L 1033.563593 451.055108 
z
" clip-path="url(#pcadab969ce)" style="fill: #d62728"/>
   </g>
   <g id="patch_57">
    <path d="M 1072.887061 561.6 
L 1088.616448 561.6 
L 1088.616448 385.259443 
L 1072.887061 385.259443 
z
" clip-path="url(#pcadab969ce)" style="fill: #d62728"/>
   </g>
   <g id="patch_58">
    <path d="M 1112.210528 561.6 
L 1127.939915 561.6 
L 1127.939915 423.265635 
L 1112.210528 423.265635 
z
" clip-path="url(#pcadab969ce)" style="fill: #d62728"/>
   </g>
   <g id="matplotlib.axis_3">
    <g id="ytick_7">
     <g id="line2d_33">
      <defs>
       <path id="m594f62159d" d="M 0 0 
L 3.5 0 
" style="stroke: #000000; stroke-width: 0.8"/>
      </defs>
      <g>
       <use xlink:href="#m594f62159d" x="1178.667187" y="561.6" style="stroke: #000000; stroke-width: 0.8"/>
      </g>
     </g>
     <g id="text_34">
      <!-- 0 -->
      <g transform="translate(1185.667187 565.399219) scale(0.1 -0.1)">
       <use xlink:href="#DejaVuSans-Bold-30"/>
      </g>
     </g>
    </g>
    <g id="ytick_8">
     <g id="line2d_34">
      <g>
       <use xlink:href="#m594f62159d" x="1178.667187" y="459.432817" style="stroke: #000000; stroke-width: 0.8"/>
      </g>
     </g>
     <g id="text_35">
      <!-- 500 -->
      <g transform="translate(1185.667187 463.232036) scale(0.1 -0.1)">
       <use xlink:href="#DejaVuSans-Bold-35"/>
       <use xlink:href="#DejaVuSans-Bold-30" x="69.580078"/>
       <use xlink:href="#DejaVuSans-Bold-30" x="139.160156"/>
      </g>
     </g>
    </g>
    <g id="ytick_9">
     <g id="line2d_35">
      <g>
       <use xlink:href="#m594f62159d" x="1178.667187" y="357.265635" style="stroke: #000000; stroke-width: 0.8"/>
      </g>
     </g>
     <g id="text_36">
      <!-- 1000 -->
      <g transform="translate(1185.667187 361.064853) scale(0.1 -0.1)">
       <use xlink:href="#DejaVuSans-Bold-31"/>
       <use xlink:href="#DejaVuSans-Bold-30" x="69.580078"/>
       <use xlink:href="#DejaVuSans-Bold-30" x="139.160156"/>
       <use xlink:href="#DejaVuSans-Bold-30" x="208.740234"/>
      </g>
     </g>
    </g>
    <g id="ytick_10">
     <g id="line2d_36">
      <g>
       <use xlink:href="#m594f62159d" x="1178.667187" y="255.098452" style="stroke: #000000; stroke-width: 0.8"/>
      </g>
     </g>
     <g id="text_37">
      <!-- 1500 -->
      <g transform="translate(1185.667187 258.897671) scale(0.1 -0.1)">
       <use xlink:href="#DejaVuSans-Bold-31"/>
       <use xlink:href="#DejaVuSans-Bold-35" x="69.580078"/>
       <use xlink:href="#DejaVuSans-Bold-30" x="139.160156"/>
       <use xlink:href="#DejaVuSans-Bold-30" x="208.740234"/>
      </g>
     </g>
    </g>
    <g id="ytick_11">
     <g id="line2d_37">
      <g>
       <use xlink:href="#m594f62159d" x="1178.667187" y="152.931269" style="stroke: #000000; stroke-width: 0.8"/>
      </g>
     </g>
     <g id="text_38">
      <!-- 2000 -->
      <g transform="translate(1185.667187 156.730488) scale(0.1 -0.1)">
       <use xlink:href="#DejaVuSans-Bold-32"/>
       <use xlink:href="#DejaVuSans-Bold-30" x="69.580078"/>
       <use xlink:href="#DejaVuSans-Bold-30" x="139.160156"/>
       <use xlink:href="#DejaVuSans-Bold-30" x="208.740234"/>
      </g>
     </g>
    </g>
    <g id="ytick_12">
     <g id="line2d_38">
      <g>
       <use xlink:href="#m594f62159d" x="1178.667187" y="50.764087" style="stroke: #000000; stroke-width: 0.8"/>
      </g>
     </g>
     <g id="text_39">
      <!-- 2500 -->
      <g transform="translate(1185.667187 54.563305) scale(0.1 -0.1)">
       <use xlink:href="#DejaVuSans-Bold-32"/>
       <use xlink:href="#DejaVuSans-Bold-35" x="69.580078"/>
       <use xlink:href="#DejaVuSans-Bold-30" x="139.160156"/>
       <use xlink:href="#DejaVuSans-Bold-30" x="208.740234"/>
      </g>
     </g>
    </g>
    <g id="text_40">
     <!-- Support Set -->
     <g transform="translate(1225.096875 318.13125) rotate(-90) scale(0.1 -0.1)">
      <defs>
       <path id="DejaVuSans-Bold-53" d="M 3834 4519 
L 3834 3531 
Q 3450 3703 3084 3790 
Q 2719 3878 2394 3878 
Q 1963 3878 1756 3759 
Q 1550 3641 1550 3391 
Q 1550 3203 1689 3098 
Q 1828 2994 2194 2919 
L 2706 2816 
Q 3484 2659 3812 2340 
Q 4141 2022 4141 1434 
Q 4141 663 3683 286 
Q 3225 -91 2284 -91 
Q 1841 -91 1394 -6 
Q 947 78 500 244 
L 500 1259 
Q 947 1022 1364 901 
Q 1781 781 2169 781 
Q 2563 781 2772 912 
Q 2981 1044 2981 1288 
Q 2981 1506 2839 1625 
Q 2697 1744 2272 1838 
L 1806 1941 
Q 1106 2091 782 2419 
Q 459 2747 459 3303 
Q 459 4000 909 4375 
Q 1359 4750 2203 4750 
Q 2588 4750 2994 4692 
Q 3400 4634 3834 4519 
z
" transform="scale(0.015625)"/>
       <path id="DejaVuSans-Bold-20" transform="scale(0.015625)"/>
      </defs>
      <use xlink:href="#DejaVuSans-Bold-53"/>
      <use xlink:href="#DejaVuSans-Bold-75" x="72.021484"/>
      <use xlink:href="#DejaVuSans-Bold-70" x="143.212891"/>
      <use xlink:href="#DejaVuSans-Bold-70" x="214.794922"/>
      <use xlink:href="#DejaVuSans-Bold-6f" x="286.376953"/>
      <use xlink:href="#DejaVuSans-Bold-72" x="355.078125"/>
      <use xlink:href="#DejaVuSans-Bold-74" x="404.394531"/>
      <use xlink:href="#DejaVuSans-Bold-20" x="452.197266"/>
      <use xlink:href="#DejaVuSans-Bold-53" x="487.011719"/>
      <use xlink:href="#DejaVuSans-Bold-65" x="559.033203"/>
      <use xlink:href="#DejaVuSans-Bold-74" x="626.855469"/>
     </g>
    </g>
   </g>
   <g id="patch_59">
    <path d="M 62.667188 561.6 
L 62.667188 7.2 
" style="fill: none; stroke: #000000; stroke-width: 0.8; stroke-linejoin: miter; stroke-linecap: square"/>
   </g>
   <g id="patch_60">
    <path d="M 1178.667187 561.6 
L 1178.667187 7.2 
" style="fill: none; stroke: #000000; stroke-width: 0.8; stroke-linejoin: miter; stroke-linecap: square"/>
   </g>
   <g id="patch_61">
    <path d="M 62.667188 561.6 
L 1178.667188 561.6 
" style="fill: none; stroke: #000000; stroke-width: 0.8; stroke-linejoin: miter; stroke-linecap: square"/>
   </g>
   <g id="patch_62">
    <path d="M 62.667188 7.2 
L 1178.667188 7.2 
" style="fill: none; stroke: #000000; stroke-width: 0.8; stroke-linejoin: miter; stroke-linecap: square"/>
   </g>
  </g>
  <g id="legend_1">
   <g id="patch_63">
    <path d="M 1072.204687 44.634375 
L 1171.667187 44.634375 
Q 1173.667187 44.634375 1173.667187 42.634375 
L 1173.667187 14.2 
Q 1173.667187 12.2 1171.667187 12.2 
L 1072.204687 12.2 
Q 1070.204687 12.2 1070.204687 14.2 
L 1070.204687 42.634375 
Q 1070.204687 44.634375 1072.204687 44.634375 
z
" style="fill: #ffffff; opacity: 0.8; stroke: #cccccc; stroke-linejoin: miter"/>
   </g>
   <g id="patch_64">
    <path d="M 1074.204687 23.798438 
L 1094.204687 23.798438 
L 1094.204687 16.798438 
L 1074.204687 16.798438 
z
" style="fill: #1f77b4"/>
   </g>
   <g id="text_41">
    <!-- Frequency -->
    <g transform="translate(1102.204687 23.798438) scale(0.1 -0.1)">
     <use xlink:href="#DejaVuSans-Bold-46"/>
     <use xlink:href="#DejaVuSans-Bold-72" x="61.935547"/>
     <use xlink:href="#DejaVuSans-Bold-65" x="111.251953"/>
     <use xlink:href="#DejaVuSans-Bold-71" x="179.074219"/>
     <use xlink:href="#DejaVuSans-Bold-75" x="250.65625"/>
     <use xlink:href="#DejaVuSans-Bold-65" x="321.847656"/>
     <use xlink:href="#DejaVuSans-Bold-6e" x="389.669922"/>
     <use xlink:href="#DejaVuSans-Bold-63" x="460.861328"/>
     <use xlink:href="#DejaVuSans-Bold-79" x="520.138672"/>
    </g>
   </g>
   <g id="patch_65">
    <path d="M 1074.204687 38.554688 
L 1094.204687 38.554688 
L 1094.204687 31.554688 
L 1074.204687 31.554688 
z
" style="fill: #d62728"/>
   </g>
   <g id="text_42">
    <!-- Support Set -->
    <g transform="translate(1102.204687 38.554688) scale(0.1 -0.1)">
     <use xlink:href="#DejaVuSans-Bold-53"/>
     <use xlink:href="#DejaVuSans-Bold-75" x="72.021484"/>
     <use xlink:href="#DejaVuSans-Bold-70" x="143.212891"/>
     <use xlink:href="#DejaVuSans-Bold-70" x="214.794922"/>
     <use xlink:href="#DejaVuSans-Bold-6f" x="286.376953"/>
     <use xlink:href="#DejaVuSans-Bold-72" x="355.078125"/>
     <use xlink:href="#DejaVuSans-Bold-74" x="404.394531"/>
     <use xlink:href="#DejaVuSans-Bold-20" x="452.197266"/>
     <use xlink:href="#DejaVuSans-Bold-53" x="487.011719"/>
     <use xlink:href="#DejaVuSans-Bold-65" x="559.033203"/>
     <use xlink:href="#DejaVuSans-Bold-74" x="626.855469"/>
    </g>
   </g>
  </g>
 </g>
 <defs>
  <clipPath id="pcadab969ce">
   <rect x="62.667188" y="7.2" width="1116" height="554.4"/>
  </clipPath>
 </defs>
</svg>
