<?xml version="1.0" encoding="utf-8" standalone="no"?>
<!DOCTYPE svg PUBLIC "-//W3C//DTD SVG 1.1//EN"
  "http://www.w3.org/Graphics/SVG/1.1/DTD/svg11.dtd">
<svg xmlns:xlink="http://www.w3.org/1999/xlink" width="460.8pt" height="345.6pt" viewBox="0 0 460.8 345.6" xmlns="http://www.w3.org/2000/svg" version="1.1">
 <metadata>
  <rdf:RDF xmlns:dc="http://purl.org/dc/elements/1.1/" xmlns:cc="http://creativecommons.org/ns#" xmlns:rdf="http://www.w3.org/1999/02/22-rdf-syntax-ns#">
   <cc:Work>
    <dc:type rdf:resource="http://purl.org/dc/dcmitype/StillImage"/>
    <dc:date>2024-05-09T14:05:37.227548</dc:date>
    <dc:format>image/svg+xml</dc:format>
    <dc:creator>
     <cc:Agent>
      <dc:title>Matplotlib v3.7.1, https://matplotlib.org/</dc:title>
     </cc:Agent>
    </dc:creator>
   </cc:Work>
  </rdf:RDF>
 </metadata>
 <defs>
  <style type="text/css">*{stroke-linejoin: round; stroke-linecap: butt}</style>
 </defs>
 <g id="figure_1">
  <g id="patch_1">
   <path d="M 0 345.6 
L 460.8 345.6 
L 460.8 0 
L 0 0 
z
" style="fill: #ffffff"/>
  </g>
  <g id="axes_1">
   <g id="patch_2">
    <path d="M 33.73 294.007367 
L 450 294.007367 
L 450 25.44 
L 33.73 25.44 
z
" style="fill: #ffffff"/>
   </g>
   <g id="patch_3">
    <path d="M 44.13675 294.007367 
L 51.074583 294.007367 
L 51.074583 73.644399 
L 44.13675 73.644399 
z
" clip-path="url(#pd9290dcb6f)" style="fill: #1f77b4"/>
   </g>
   <g id="patch_4">
    <path d="M 85.76375 294.007367 
L 92.701583 294.007367 
L 92.701583 148.410406 
L 85.76375 148.410406 
z
" clip-path="url(#pd9290dcb6f)" style="fill: #1f77b4"/>
   </g>
   <g id="patch_5">
    <path d="M 127.39075 294.007367 
L 134.328583 294.007367 
L 134.328583 179.89083 
L 127.39075 179.89083 
z
" clip-path="url(#pd9290dcb6f)" style="fill: #1f77b4"/>
   </g>
   <g id="patch_6">
    <path d="M 169.01775 294.007367 
L 175.955583 294.007367 
L 175.955583 69.709346 
L 169.01775 69.709346 
z
" clip-path="url(#pd9290dcb6f)" style="fill: #1f77b4"/>
   </g>
   <g id="patch_7">
    <path d="M 210.64475 294.007367 
L 217.582583 294.007367 
L 217.582583 73.644399 
L 210.64475 73.644399 
z
" clip-path="url(#pd9290dcb6f)" style="fill: #1f77b4"/>
   </g>
   <g id="patch_8">
    <path d="M 252.27175 294.007367 
L 259.209583 294.007367 
L 259.209583 89.384611 
L 252.27175 89.384611 
z
" clip-path="url(#pd9290dcb6f)" style="fill: #1f77b4"/>
   </g>
   <g id="patch_9">
    <path d="M 293.89875 294.007367 
L 300.836583 294.007367 
L 300.836583 116.929982 
L 293.89875 116.929982 
z
" clip-path="url(#pd9290dcb6f)" style="fill: #1f77b4"/>
   </g>
   <g id="patch_10">
    <path d="M 335.52575 294.007367 
L 342.463583 294.007367 
L 342.463583 156.280512 
L 335.52575 156.280512 
z
" clip-path="url(#pd9290dcb6f)" style="fill: #1f77b4"/>
   </g>
   <g id="patch_11">
    <path d="M 377.15275 294.007367 
L 384.090583 294.007367 
L 384.090583 50.034081 
L 377.15275 50.034081 
z
" clip-path="url(#pd9290dcb6f)" style="fill: #1f77b4"/>
   </g>
   <g id="patch_12">
    <path d="M 418.77975 294.007367 
L 425.717583 294.007367 
L 425.717583 65.774293 
L 418.77975 65.774293 
z
" clip-path="url(#pd9290dcb6f)" style="fill: #1f77b4"/>
   </g>
   <g id="patch_13">
    <path d="M 51.074583 294.007367 
L 58.012417 294.007367 
L 58.012417 124.800088 
L 51.074583 124.800088 
z
" clip-path="url(#pd9290dcb6f)" style="fill: #ff7f0e"/>
   </g>
   <g id="patch_14">
    <path d="M 92.701583 294.007367 
L 99.639417 294.007367 
L 99.639417 128.735141 
L 92.701583 128.735141 
z
" clip-path="url(#pd9290dcb6f)" style="fill: #ff7f0e"/>
   </g>
   <g id="patch_15">
    <path d="M 134.328583 294.007367 
L 141.266417 294.007367 
L 141.266417 112.994929 
L 134.328583 112.994929 
z
" clip-path="url(#pd9290dcb6f)" style="fill: #ff7f0e"/>
   </g>
   <g id="patch_16">
    <path d="M 175.955583 294.007367 
L 182.893417 294.007367 
L 182.893417 73.644399 
L 175.955583 73.644399 
z
" clip-path="url(#pd9290dcb6f)" style="fill: #ff7f0e"/>
   </g>
   <g id="patch_17">
    <path d="M 217.582583 294.007367 
L 224.520417 294.007367 
L 224.520417 116.929982 
L 217.582583 116.929982 
z
" clip-path="url(#pd9290dcb6f)" style="fill: #ff7f0e"/>
   </g>
   <g id="patch_18">
    <path d="M 259.209583 294.007367 
L 266.147417 294.007367 
L 266.147417 77.579452 
L 259.209583 77.579452 
z
" clip-path="url(#pd9290dcb6f)" style="fill: #ff7f0e"/>
   </g>
   <g id="patch_19">
    <path d="M 300.836583 294.007367 
L 307.774417 294.007367 
L 307.774417 227.111466 
L 300.836583 227.111466 
z
" clip-path="url(#pd9290dcb6f)" style="fill: #ff7f0e"/>
   </g>
   <g id="patch_20">
    <path d="M 342.463583 294.007367 
L 349.401417 294.007367 
L 349.401417 164.150618 
L 342.463583 164.150618 
z
" clip-path="url(#pd9290dcb6f)" style="fill: #ff7f0e"/>
   </g>
   <g id="patch_21">
    <path d="M 384.090583 294.007367 
L 391.028417 294.007367 
L 391.028417 69.709346 
L 384.090583 69.709346 
z
" clip-path="url(#pd9290dcb6f)" style="fill: #ff7f0e"/>
   </g>
   <g id="patch_22">
    <path d="M 425.717583 294.007367 
L 432.655417 294.007367 
L 432.655417 227.111466 
L 425.717583 227.111466 
z
" clip-path="url(#pd9290dcb6f)" style="fill: #ff7f0e"/>
   </g>
   <g id="patch_23">
    <path d="M 58.012417 294.007367 
L 64.95025 294.007367 
L 64.95025 246.786731 
L 58.012417 246.786731 
z
" clip-path="url(#pd9290dcb6f)" style="fill: #2ca02c"/>
   </g>
   <g id="patch_24">
    <path d="M 99.639417 294.007367 
L 106.57725 294.007367 
L 106.57725 120.865035 
L 99.639417 120.865035 
z
" clip-path="url(#pd9290dcb6f)" style="fill: #2ca02c"/>
   </g>
   <g id="patch_25">
    <path d="M 141.266417 294.007367 
L 148.20425 294.007367 
L 148.20425 116.929982 
L 141.266417 116.929982 
z
" clip-path="url(#pd9290dcb6f)" style="fill: #2ca02c"/>
   </g>
   <g id="patch_26">
    <path d="M 182.893417 294.007367 
L 189.83125 294.007367 
L 189.83125 179.89083 
L 182.893417 179.89083 
z
" clip-path="url(#pd9290dcb6f)" style="fill: #2ca02c"/>
   </g>
   <g id="patch_27">
    <path d="M 224.520417 294.007367 
L 231.45825 294.007367 
L 231.45825 109.059876 
L 224.520417 109.059876 
z
" clip-path="url(#pd9290dcb6f)" style="fill: #2ca02c"/>
   </g>
   <g id="patch_28">
    <path d="M 266.147417 294.007367 
L 273.08525 294.007367 
L 273.08525 116.929982 
L 266.147417 116.929982 
z
" clip-path="url(#pd9290dcb6f)" style="fill: #2ca02c"/>
   </g>
   <g id="patch_29">
    <path d="M 307.774417 294.007367 
L 314.71225 294.007367 
L 314.71225 65.774293 
L 307.774417 65.774293 
z
" clip-path="url(#pd9290dcb6f)" style="fill: #2ca02c"/>
   </g>
   <g id="patch_30">
    <path d="M 349.401417 294.007367 
L 356.33925 294.007367 
L 356.33925 65.774293 
L 349.401417 65.774293 
z
" clip-path="url(#pd9290dcb6f)" style="fill: #2ca02c"/>
   </g>
   <g id="patch_31">
    <path d="M 391.028417 294.007367 
L 397.96625 294.007367 
L 397.96625 105.124823 
L 391.028417 105.124823 
z
" clip-path="url(#pd9290dcb6f)" style="fill: #2ca02c"/>
   </g>
   <g id="patch_32">
    <path d="M 432.655417 294.007367 
L 439.59325 294.007367 
L 439.59325 38.228922 
L 432.655417 38.228922 
z
" clip-path="url(#pd9290dcb6f)" style="fill: #2ca02c"/>
   </g>
   <g id="matplotlib.axis_1">
    <g id="xtick_1">
     <g id="line2d_1">
      <defs>
       <path id="m0f3b92613f" d="M 0 0 
L 0 3.5 
" style="stroke: #000000; stroke-width: 0.8"/>
      </defs>
      <g>
       <use xlink:href="#m0f3b92613f" x="54.5435" y="294.007367" style="stroke: #000000; stroke-width: 0.8"/>
      </g>
     </g>
     <g id="text_1">
      <!-- dairy -->
      <g transform="translate(47.555296 324.259027) rotate(-45) scale(0.1 -0.1)">
       <defs>
        <path id="DejaVuSans-64" d="M 2906 2969 
L 2906 4863 
L 3481 4863 
L 3481 0 
L 2906 0 
L 2906 525 
Q 2725 213 2448 61 
Q 2172 -91 1784 -91 
Q 1150 -91 751 415 
Q 353 922 353 1747 
Q 353 2572 751 3078 
Q 1150 3584 1784 3584 
Q 2172 3584 2448 3432 
Q 2725 3281 2906 2969 
z
M 947 1747 
Q 947 1113 1208 752 
Q 1469 391 1925 391 
Q 2381 391 2643 752 
Q 2906 1113 2906 1747 
Q 2906 2381 2643 2742 
Q 2381 3103 1925 3103 
Q 1469 3103 1208 2742 
Q 947 2381 947 1747 
z
" transform="scale(0.015625)"/>
        <path id="DejaVuSans-61" d="M 2194 1759 
Q 1497 1759 1228 1600 
Q 959 1441 959 1056 
Q 959 750 1161 570 
Q 1363 391 1709 391 
Q 2188 391 2477 730 
Q 2766 1069 2766 1631 
L 2766 1759 
L 2194 1759 
z
M 3341 1997 
L 3341 0 
L 2766 0 
L 2766 531 
Q 2569 213 2275 61 
Q 1981 -91 1556 -91 
Q 1019 -91 701 211 
Q 384 513 384 1019 
Q 384 1609 779 1909 
Q 1175 2209 1959 2209 
L 2766 2209 
L 2766 2266 
Q 2766 2663 2505 2880 
Q 2244 3097 1772 3097 
Q 1472 3097 1187 3025 
Q 903 2953 641 2809 
L 641 3341 
Q 956 3463 1253 3523 
Q 1550 3584 1831 3584 
Q 2591 3584 2966 3190 
Q 3341 2797 3341 1997 
z
" transform="scale(0.015625)"/>
        <path id="DejaVuSans-69" d="M 603 3500 
L 1178 3500 
L 1178 0 
L 603 0 
L 603 3500 
z
M 603 4863 
L 1178 4863 
L 1178 4134 
L 603 4134 
L 603 4863 
z
" transform="scale(0.015625)"/>
        <path id="DejaVuSans-72" d="M 2631 2963 
Q 2534 3019 2420 3045 
Q 2306 3072 2169 3072 
Q 1681 3072 1420 2755 
Q 1159 2438 1159 1844 
L 1159 0 
L 581 0 
L 581 3500 
L 1159 3500 
L 1159 2956 
Q 1341 3275 1631 3429 
Q 1922 3584 2338 3584 
Q 2397 3584 2469 3576 
Q 2541 3569 2628 3553 
L 2631 2963 
z
" transform="scale(0.015625)"/>
        <path id="DejaVuSans-79" d="M 2059 -325 
Q 1816 -950 1584 -1140 
Q 1353 -1331 966 -1331 
L 506 -1331 
L 506 -850 
L 844 -850 
Q 1081 -850 1212 -737 
Q 1344 -625 1503 -206 
L 1606 56 
L 191 3500 
L 800 3500 
L 1894 763 
L 2988 3500 
L 3597 3500 
L 2059 -325 
z
" transform="scale(0.015625)"/>
       </defs>
       <use xlink:href="#DejaVuSans-64"/>
       <use xlink:href="#DejaVuSans-61" x="63.476562"/>
       <use xlink:href="#DejaVuSans-69" x="124.755859"/>
       <use xlink:href="#DejaVuSans-72" x="152.539062"/>
       <use xlink:href="#DejaVuSans-79" x="193.652344"/>
      </g>
     </g>
    </g>
    <g id="xtick_2">
     <g id="line2d_2">
      <g>
       <use xlink:href="#m0f3b92613f" x="96.1705" y="294.007367" style="stroke: #000000; stroke-width: 0.8"/>
      </g>
     </g>
     <g id="text_2">
      <!-- earthy -->
      <g transform="translate(86.606881 329.409858) rotate(-45) scale(0.1 -0.1)">
       <defs>
        <path id="DejaVuSans-65" d="M 3597 1894 
L 3597 1613 
L 953 1613 
Q 991 1019 1311 708 
Q 1631 397 2203 397 
Q 2534 397 2845 478 
Q 3156 559 3463 722 
L 3463 178 
Q 3153 47 2828 -22 
Q 2503 -91 2169 -91 
Q 1331 -91 842 396 
Q 353 884 353 1716 
Q 353 2575 817 3079 
Q 1281 3584 2069 3584 
Q 2775 3584 3186 3129 
Q 3597 2675 3597 1894 
z
M 3022 2063 
Q 3016 2534 2758 2815 
Q 2500 3097 2075 3097 
Q 1594 3097 1305 2825 
Q 1016 2553 972 2059 
L 3022 2063 
z
" transform="scale(0.015625)"/>
        <path id="DejaVuSans-74" d="M 1172 4494 
L 1172 3500 
L 2356 3500 
L 2356 3053 
L 1172 3053 
L 1172 1153 
Q 1172 725 1289 603 
Q 1406 481 1766 481 
L 2356 481 
L 2356 0 
L 1766 0 
Q 1100 0 847 248 
Q 594 497 594 1153 
L 594 3053 
L 172 3053 
L 172 3500 
L 594 3500 
L 594 4494 
L 1172 4494 
z
" transform="scale(0.015625)"/>
        <path id="DejaVuSans-68" d="M 3513 2113 
L 3513 0 
L 2938 0 
L 2938 2094 
Q 2938 2591 2744 2837 
Q 2550 3084 2163 3084 
Q 1697 3084 1428 2787 
Q 1159 2491 1159 1978 
L 1159 0 
L 581 0 
L 581 4863 
L 1159 4863 
L 1159 2956 
Q 1366 3272 1645 3428 
Q 1925 3584 2291 3584 
Q 2894 3584 3203 3211 
Q 3513 2838 3513 2113 
z
" transform="scale(0.015625)"/>
       </defs>
       <use xlink:href="#DejaVuSans-65"/>
       <use xlink:href="#DejaVuSans-61" x="61.523438"/>
       <use xlink:href="#DejaVuSans-72" x="122.802734"/>
       <use xlink:href="#DejaVuSans-74" x="163.916016"/>
       <use xlink:href="#DejaVuSans-68" x="203.125"/>
       <use xlink:href="#DejaVuSans-79" x="266.503906"/>
      </g>
     </g>
    </g>
    <g id="xtick_3">
     <g id="line2d_3">
      <g>
       <use xlink:href="#m0f3b92613f" x="137.7975" y="294.007367" style="stroke: #000000; stroke-width: 0.8"/>
      </g>
     </g>
     <g id="text_3">
      <!-- orris -->
      <g transform="translate(131.91636 322.044899) rotate(-45) scale(0.1 -0.1)">
       <defs>
        <path id="DejaVuSans-6f" d="M 1959 3097 
Q 1497 3097 1228 2736 
Q 959 2375 959 1747 
Q 959 1119 1226 758 
Q 1494 397 1959 397 
Q 2419 397 2687 759 
Q 2956 1122 2956 1747 
Q 2956 2369 2687 2733 
Q 2419 3097 1959 3097 
z
M 1959 3584 
Q 2709 3584 3137 3096 
Q 3566 2609 3566 1747 
Q 3566 888 3137 398 
Q 2709 -91 1959 -91 
Q 1206 -91 779 398 
Q 353 888 353 1747 
Q 353 2609 779 3096 
Q 1206 3584 1959 3584 
z
" transform="scale(0.015625)"/>
        <path id="DejaVuSans-73" d="M 2834 3397 
L 2834 2853 
Q 2591 2978 2328 3040 
Q 2066 3103 1784 3103 
Q 1356 3103 1142 2972 
Q 928 2841 928 2578 
Q 928 2378 1081 2264 
Q 1234 2150 1697 2047 
L 1894 2003 
Q 2506 1872 2764 1633 
Q 3022 1394 3022 966 
Q 3022 478 2636 193 
Q 2250 -91 1575 -91 
Q 1294 -91 989 -36 
Q 684 19 347 128 
L 347 722 
Q 666 556 975 473 
Q 1284 391 1588 391 
Q 1994 391 2212 530 
Q 2431 669 2431 922 
Q 2431 1156 2273 1281 
Q 2116 1406 1581 1522 
L 1381 1569 
Q 847 1681 609 1914 
Q 372 2147 372 2553 
Q 372 3047 722 3315 
Q 1072 3584 1716 3584 
Q 2034 3584 2315 3537 
Q 2597 3491 2834 3397 
z
" transform="scale(0.015625)"/>
       </defs>
       <use xlink:href="#DejaVuSans-6f"/>
       <use xlink:href="#DejaVuSans-72" x="61.181641"/>
       <use xlink:href="#DejaVuSans-72" x="100.544922"/>
       <use xlink:href="#DejaVuSans-69" x="141.658203"/>
       <use xlink:href="#DejaVuSans-73" x="169.441406"/>
      </g>
     </g>
    </g>
    <g id="xtick_4">
     <g id="line2d_4">
      <g>
       <use xlink:href="#m0f3b92613f" x="179.4245" y="294.007367" style="stroke: #000000; stroke-width: 0.8"/>
      </g>
     </g>
     <g id="text_4">
      <!-- cocoa -->
      <g transform="translate(170.994461 327.142696) rotate(-45) scale(0.1 -0.1)">
       <defs>
        <path id="DejaVuSans-63" d="M 3122 3366 
L 3122 2828 
Q 2878 2963 2633 3030 
Q 2388 3097 2138 3097 
Q 1578 3097 1268 2742 
Q 959 2388 959 1747 
Q 959 1106 1268 751 
Q 1578 397 2138 397 
Q 2388 397 2633 464 
Q 2878 531 3122 666 
L 3122 134 
Q 2881 22 2623 -34 
Q 2366 -91 2075 -91 
Q 1284 -91 818 406 
Q 353 903 353 1747 
Q 353 2603 823 3093 
Q 1294 3584 2113 3584 
Q 2378 3584 2631 3529 
Q 2884 3475 3122 3366 
z
" transform="scale(0.015625)"/>
       </defs>
       <use xlink:href="#DejaVuSans-63"/>
       <use xlink:href="#DejaVuSans-6f" x="54.980469"/>
       <use xlink:href="#DejaVuSans-63" x="116.162109"/>
       <use xlink:href="#DejaVuSans-6f" x="171.142578"/>
       <use xlink:href="#DejaVuSans-61" x="232.324219"/>
      </g>
     </g>
    </g>
    <g id="xtick_5">
     <g id="line2d_5">
      <g>
       <use xlink:href="#m0f3b92613f" x="221.0515" y="294.007367" style="stroke: #000000; stroke-width: 0.8"/>
      </g>
     </g>
     <g id="text_5">
      <!-- rummy -->
      <g transform="translate(210.328336 331.728947) rotate(-45) scale(0.1 -0.1)">
       <defs>
        <path id="DejaVuSans-75" d="M 544 1381 
L 544 3500 
L 1119 3500 
L 1119 1403 
Q 1119 906 1312 657 
Q 1506 409 1894 409 
Q 2359 409 2629 706 
Q 2900 1003 2900 1516 
L 2900 3500 
L 3475 3500 
L 3475 0 
L 2900 0 
L 2900 538 
Q 2691 219 2414 64 
Q 2138 -91 1772 -91 
Q 1169 -91 856 284 
Q 544 659 544 1381 
z
M 1991 3584 
L 1991 3584 
z
" transform="scale(0.015625)"/>
        <path id="DejaVuSans-6d" d="M 3328 2828 
Q 3544 3216 3844 3400 
Q 4144 3584 4550 3584 
Q 5097 3584 5394 3201 
Q 5691 2819 5691 2113 
L 5691 0 
L 5113 0 
L 5113 2094 
Q 5113 2597 4934 2840 
Q 4756 3084 4391 3084 
Q 3944 3084 3684 2787 
Q 3425 2491 3425 1978 
L 3425 0 
L 2847 0 
L 2847 2094 
Q 2847 2600 2669 2842 
Q 2491 3084 2119 3084 
Q 1678 3084 1418 2786 
Q 1159 2488 1159 1978 
L 1159 0 
L 581 0 
L 581 3500 
L 1159 3500 
L 1159 2956 
Q 1356 3278 1631 3431 
Q 1906 3584 2284 3584 
Q 2666 3584 2933 3390 
Q 3200 3197 3328 2828 
z
" transform="scale(0.015625)"/>
       </defs>
       <use xlink:href="#DejaVuSans-72"/>
       <use xlink:href="#DejaVuSans-75" x="41.113281"/>
       <use xlink:href="#DejaVuSans-6d" x="104.492188"/>
       <use xlink:href="#DejaVuSans-6d" x="201.904297"/>
       <use xlink:href="#DejaVuSans-79" x="299.316406"/>
      </g>
     </g>
    </g>
    <g id="xtick_6">
     <g id="line2d_6">
      <g>
       <use xlink:href="#m0f3b92613f" x="262.6785" y="294.007367" style="stroke: #000000; stroke-width: 0.8"/>
      </g>
     </g>
     <g id="text_6">
      <!-- tropical -->
      <g transform="translate(251.386889 332.865842) rotate(-45) scale(0.1 -0.1)">
       <defs>
        <path id="DejaVuSans-70" d="M 1159 525 
L 1159 -1331 
L 581 -1331 
L 581 3500 
L 1159 3500 
L 1159 2969 
Q 1341 3281 1617 3432 
Q 1894 3584 2278 3584 
Q 2916 3584 3314 3078 
Q 3713 2572 3713 1747 
Q 3713 922 3314 415 
Q 2916 -91 2278 -91 
Q 1894 -91 1617 61 
Q 1341 213 1159 525 
z
M 3116 1747 
Q 3116 2381 2855 2742 
Q 2594 3103 2138 3103 
Q 1681 3103 1420 2742 
Q 1159 2381 1159 1747 
Q 1159 1113 1420 752 
Q 1681 391 2138 391 
Q 2594 391 2855 752 
Q 3116 1113 3116 1747 
z
" transform="scale(0.015625)"/>
        <path id="DejaVuSans-6c" d="M 603 4863 
L 1178 4863 
L 1178 0 
L 603 0 
L 603 4863 
z
" transform="scale(0.015625)"/>
       </defs>
       <use xlink:href="#DejaVuSans-74"/>
       <use xlink:href="#DejaVuSans-72" x="39.208984"/>
       <use xlink:href="#DejaVuSans-6f" x="78.072266"/>
       <use xlink:href="#DejaVuSans-70" x="139.253906"/>
       <use xlink:href="#DejaVuSans-69" x="202.730469"/>
       <use xlink:href="#DejaVuSans-63" x="230.513672"/>
       <use xlink:href="#DejaVuSans-61" x="285.494141"/>
       <use xlink:href="#DejaVuSans-6c" x="346.773438"/>
      </g>
     </g>
    </g>
    <g id="xtick_7">
     <g id="line2d_7">
      <g>
       <use xlink:href="#m0f3b92613f" x="304.3055" y="294.007367" style="stroke: #000000; stroke-width: 0.8"/>
      </g>
     </g>
     <g id="text_7">
      <!-- bitter -->
      <g transform="translate(296.628972 325.635675) rotate(-45) scale(0.1 -0.1)">
       <defs>
        <path id="DejaVuSans-62" d="M 3116 1747 
Q 3116 2381 2855 2742 
Q 2594 3103 2138 3103 
Q 1681 3103 1420 2742 
Q 1159 2381 1159 1747 
Q 1159 1113 1420 752 
Q 1681 391 2138 391 
Q 2594 391 2855 752 
Q 3116 1113 3116 1747 
z
M 1159 2969 
Q 1341 3281 1617 3432 
Q 1894 3584 2278 3584 
Q 2916 3584 3314 3078 
Q 3713 2572 3713 1747 
Q 3713 922 3314 415 
Q 2916 -91 2278 -91 
Q 1894 -91 1617 61 
Q 1341 213 1159 525 
L 1159 0 
L 581 0 
L 581 4863 
L 1159 4863 
L 1159 2969 
z
" transform="scale(0.015625)"/>
       </defs>
       <use xlink:href="#DejaVuSans-62"/>
       <use xlink:href="#DejaVuSans-69" x="63.476562"/>
       <use xlink:href="#DejaVuSans-74" x="91.259766"/>
       <use xlink:href="#DejaVuSans-74" x="130.46875"/>
       <use xlink:href="#DejaVuSans-65" x="169.677734"/>
       <use xlink:href="#DejaVuSans-72" x="231.201172"/>
      </g>
     </g>
    </g>
    <g id="xtick_8">
     <g id="line2d_8">
      <g>
       <use xlink:href="#m0f3b92613f" x="345.9325" y="294.007367" style="stroke: #000000; stroke-width: 0.8"/>
      </g>
     </g>
     <g id="text_8">
      <!-- cooling -->
      <g transform="translate(335.163485 331.82065) rotate(-45) scale(0.1 -0.1)">
       <defs>
        <path id="DejaVuSans-6e" d="M 3513 2113 
L 3513 0 
L 2938 0 
L 2938 2094 
Q 2938 2591 2744 2837 
Q 2550 3084 2163 3084 
Q 1697 3084 1428 2787 
Q 1159 2491 1159 1978 
L 1159 0 
L 581 0 
L 581 3500 
L 1159 3500 
L 1159 2956 
Q 1366 3272 1645 3428 
Q 1925 3584 2291 3584 
Q 2894 3584 3203 3211 
Q 3513 2838 3513 2113 
z
" transform="scale(0.015625)"/>
        <path id="DejaVuSans-67" d="M 2906 1791 
Q 2906 2416 2648 2759 
Q 2391 3103 1925 3103 
Q 1463 3103 1205 2759 
Q 947 2416 947 1791 
Q 947 1169 1205 825 
Q 1463 481 1925 481 
Q 2391 481 2648 825 
Q 2906 1169 2906 1791 
z
M 3481 434 
Q 3481 -459 3084 -895 
Q 2688 -1331 1869 -1331 
Q 1566 -1331 1297 -1286 
Q 1028 -1241 775 -1147 
L 775 -588 
Q 1028 -725 1275 -790 
Q 1522 -856 1778 -856 
Q 2344 -856 2625 -561 
Q 2906 -266 2906 331 
L 2906 616 
Q 2728 306 2450 153 
Q 2172 0 1784 0 
Q 1141 0 747 490 
Q 353 981 353 1791 
Q 353 2603 747 3093 
Q 1141 3584 1784 3584 
Q 2172 3584 2450 3431 
Q 2728 3278 2906 2969 
L 2906 3500 
L 3481 3500 
L 3481 434 
z
" transform="scale(0.015625)"/>
       </defs>
       <use xlink:href="#DejaVuSans-63"/>
       <use xlink:href="#DejaVuSans-6f" x="54.980469"/>
       <use xlink:href="#DejaVuSans-6f" x="116.162109"/>
       <use xlink:href="#DejaVuSans-6c" x="177.34375"/>
       <use xlink:href="#DejaVuSans-69" x="205.126953"/>
       <use xlink:href="#DejaVuSans-6e" x="232.910156"/>
       <use xlink:href="#DejaVuSans-67" x="296.289062"/>
      </g>
     </g>
    </g>
    <g id="xtick_9">
     <g id="line2d_9">
      <g>
       <use xlink:href="#m0f3b92613f" x="387.5595" y="294.007367" style="stroke: #000000; stroke-width: 0.8"/>
      </g>
     </g>
     <g id="text_9">
      <!-- musty -->
      <g transform="translate(378.505771 328.390077) rotate(-45) scale(0.1 -0.1)">
       <use xlink:href="#DejaVuSans-6d"/>
       <use xlink:href="#DejaVuSans-75" x="97.412109"/>
       <use xlink:href="#DejaVuSans-73" x="160.791016"/>
       <use xlink:href="#DejaVuSans-74" x="212.890625"/>
       <use xlink:href="#DejaVuSans-79" x="252.099609"/>
      </g>
     </g>
    </g>
    <g id="xtick_10">
     <g id="line2d_10">
      <g>
       <use xlink:href="#m0f3b92613f" x="429.1865" y="294.007367" style="stroke: #000000; stroke-width: 0.8"/>
      </g>
     </g>
     <g id="text_10">
      <!-- sweet -->
      <g transform="translate(420.667521 327.320578) rotate(-45) scale(0.1 -0.1)">
       <defs>
        <path id="DejaVuSans-77" d="M 269 3500 
L 844 3500 
L 1563 769 
L 2278 3500 
L 2956 3500 
L 3675 769 
L 4391 3500 
L 4966 3500 
L 4050 0 
L 3372 0 
L 2619 2869 
L 1863 0 
L 1184 0 
L 269 3500 
z
" transform="scale(0.015625)"/>
       </defs>
       <use xlink:href="#DejaVuSans-73"/>
       <use xlink:href="#DejaVuSans-77" x="52.099609"/>
       <use xlink:href="#DejaVuSans-65" x="133.886719"/>
       <use xlink:href="#DejaVuSans-65" x="195.410156"/>
       <use xlink:href="#DejaVuSans-74" x="256.933594"/>
      </g>
     </g>
    </g>
   </g>
   <g id="matplotlib.axis_2">
    <g id="ytick_1">
     <g id="line2d_11">
      <defs>
       <path id="m635457cd1c" d="M 0 0 
L -3.5 0 
" style="stroke: #000000; stroke-width: 0.8"/>
      </defs>
      <g>
       <use xlink:href="#m635457cd1c" x="33.73" y="294.007367" style="stroke: #000000; stroke-width: 0.8"/>
      </g>
     </g>
     <g id="text_11">
      <!-- 0.0 -->
      <g transform="translate(10.826875 297.806586) scale(0.1 -0.1)">
       <defs>
        <path id="DejaVuSans-30" d="M 2034 4250 
Q 1547 4250 1301 3770 
Q 1056 3291 1056 2328 
Q 1056 1369 1301 889 
Q 1547 409 2034 409 
Q 2525 409 2770 889 
Q 3016 1369 3016 2328 
Q 3016 3291 2770 3770 
Q 2525 4250 2034 4250 
z
M 2034 4750 
Q 2819 4750 3233 4129 
Q 3647 3509 3647 2328 
Q 3647 1150 3233 529 
Q 2819 -91 2034 -91 
Q 1250 -91 836 529 
Q 422 1150 422 2328 
Q 422 3509 836 4129 
Q 1250 4750 2034 4750 
z
" transform="scale(0.015625)"/>
        <path id="DejaVuSans-2e" d="M 684 794 
L 1344 794 
L 1344 0 
L 684 0 
L 684 794 
z
" transform="scale(0.015625)"/>
       </defs>
       <use xlink:href="#DejaVuSans-30"/>
       <use xlink:href="#DejaVuSans-2e" x="63.623047"/>
       <use xlink:href="#DejaVuSans-30" x="95.410156"/>
      </g>
     </g>
    </g>
    <g id="ytick_2">
     <g id="line2d_12">
      <g>
       <use xlink:href="#m635457cd1c" x="33.73" y="254.656837" style="stroke: #000000; stroke-width: 0.8"/>
      </g>
     </g>
     <g id="text_12">
      <!-- 0.1 -->
      <g transform="translate(10.826875 258.456056) scale(0.1 -0.1)">
       <defs>
        <path id="DejaVuSans-31" d="M 794 531 
L 1825 531 
L 1825 4091 
L 703 3866 
L 703 4441 
L 1819 4666 
L 2450 4666 
L 2450 531 
L 3481 531 
L 3481 0 
L 794 0 
L 794 531 
z
" transform="scale(0.015625)"/>
       </defs>
       <use xlink:href="#DejaVuSans-30"/>
       <use xlink:href="#DejaVuSans-2e" x="63.623047"/>
       <use xlink:href="#DejaVuSans-31" x="95.410156"/>
      </g>
     </g>
    </g>
    <g id="ytick_3">
     <g id="line2d_13">
      <g>
       <use xlink:href="#m635457cd1c" x="33.73" y="215.306307" style="stroke: #000000; stroke-width: 0.8"/>
      </g>
     </g>
     <g id="text_13">
      <!-- 0.2 -->
      <g transform="translate(10.826875 219.105526) scale(0.1 -0.1)">
       <defs>
        <path id="DejaVuSans-32" d="M 1228 531 
L 3431 531 
L 3431 0 
L 469 0 
L 469 531 
Q 828 903 1448 1529 
Q 2069 2156 2228 2338 
Q 2531 2678 2651 2914 
Q 2772 3150 2772 3378 
Q 2772 3750 2511 3984 
Q 2250 4219 1831 4219 
Q 1534 4219 1204 4116 
Q 875 4013 500 3803 
L 500 4441 
Q 881 4594 1212 4672 
Q 1544 4750 1819 4750 
Q 2544 4750 2975 4387 
Q 3406 4025 3406 3419 
Q 3406 3131 3298 2873 
Q 3191 2616 2906 2266 
Q 2828 2175 2409 1742 
Q 1991 1309 1228 531 
z
" transform="scale(0.015625)"/>
       </defs>
       <use xlink:href="#DejaVuSans-30"/>
       <use xlink:href="#DejaVuSans-2e" x="63.623047"/>
       <use xlink:href="#DejaVuSans-32" x="95.410156"/>
      </g>
     </g>
    </g>
    <g id="ytick_4">
     <g id="line2d_14">
      <g>
       <use xlink:href="#m635457cd1c" x="33.73" y="175.955777" style="stroke: #000000; stroke-width: 0.8"/>
      </g>
     </g>
     <g id="text_14">
      <!-- 0.3 -->
      <g transform="translate(10.826875 179.754996) scale(0.1 -0.1)">
       <defs>
        <path id="DejaVuSans-33" d="M 2597 2516 
Q 3050 2419 3304 2112 
Q 3559 1806 3559 1356 
Q 3559 666 3084 287 
Q 2609 -91 1734 -91 
Q 1441 -91 1130 -33 
Q 819 25 488 141 
L 488 750 
Q 750 597 1062 519 
Q 1375 441 1716 441 
Q 2309 441 2620 675 
Q 2931 909 2931 1356 
Q 2931 1769 2642 2001 
Q 2353 2234 1838 2234 
L 1294 2234 
L 1294 2753 
L 1863 2753 
Q 2328 2753 2575 2939 
Q 2822 3125 2822 3475 
Q 2822 3834 2567 4026 
Q 2313 4219 1838 4219 
Q 1578 4219 1281 4162 
Q 984 4106 628 3988 
L 628 4550 
Q 988 4650 1302 4700 
Q 1616 4750 1894 4750 
Q 2613 4750 3031 4423 
Q 3450 4097 3450 3541 
Q 3450 3153 3228 2886 
Q 3006 2619 2597 2516 
z
" transform="scale(0.015625)"/>
       </defs>
       <use xlink:href="#DejaVuSans-30"/>
       <use xlink:href="#DejaVuSans-2e" x="63.623047"/>
       <use xlink:href="#DejaVuSans-33" x="95.410156"/>
      </g>
     </g>
    </g>
    <g id="ytick_5">
     <g id="line2d_15">
      <g>
       <use xlink:href="#m635457cd1c" x="33.73" y="136.605247" style="stroke: #000000; stroke-width: 0.8"/>
      </g>
     </g>
     <g id="text_15">
      <!-- 0.4 -->
      <g transform="translate(10.826875 140.404466) scale(0.1 -0.1)">
       <defs>
        <path id="DejaVuSans-34" d="M 2419 4116 
L 825 1625 
L 2419 1625 
L 2419 4116 
z
M 2253 4666 
L 3047 4666 
L 3047 1625 
L 3713 1625 
L 3713 1100 
L 3047 1100 
L 3047 0 
L 2419 0 
L 2419 1100 
L 313 1100 
L 313 1709 
L 2253 4666 
z
" transform="scale(0.015625)"/>
       </defs>
       <use xlink:href="#DejaVuSans-30"/>
       <use xlink:href="#DejaVuSans-2e" x="63.623047"/>
       <use xlink:href="#DejaVuSans-34" x="95.410156"/>
      </g>
     </g>
    </g>
    <g id="ytick_6">
     <g id="line2d_16">
      <g>
       <use xlink:href="#m635457cd1c" x="33.73" y="97.254717" style="stroke: #000000; stroke-width: 0.8"/>
      </g>
     </g>
     <g id="text_16">
      <!-- 0.5 -->
      <g transform="translate(10.826875 101.053936) scale(0.1 -0.1)">
       <defs>
        <path id="DejaVuSans-35" d="M 691 4666 
L 3169 4666 
L 3169 4134 
L 1269 4134 
L 1269 2991 
Q 1406 3038 1543 3061 
Q 1681 3084 1819 3084 
Q 2600 3084 3056 2656 
Q 3513 2228 3513 1497 
Q 3513 744 3044 326 
Q 2575 -91 1722 -91 
Q 1428 -91 1123 -41 
Q 819 9 494 109 
L 494 744 
Q 775 591 1075 516 
Q 1375 441 1709 441 
Q 2250 441 2565 725 
Q 2881 1009 2881 1497 
Q 2881 1984 2565 2268 
Q 2250 2553 1709 2553 
Q 1456 2553 1204 2497 
Q 953 2441 691 2322 
L 691 4666 
z
" transform="scale(0.015625)"/>
       </defs>
       <use xlink:href="#DejaVuSans-30"/>
       <use xlink:href="#DejaVuSans-2e" x="63.623047"/>
       <use xlink:href="#DejaVuSans-35" x="95.410156"/>
      </g>
     </g>
    </g>
    <g id="ytick_7">
     <g id="line2d_17">
      <g>
       <use xlink:href="#m635457cd1c" x="33.73" y="57.904187" style="stroke: #000000; stroke-width: 0.8"/>
      </g>
     </g>
     <g id="text_17">
      <!-- 0.6 -->
      <g transform="translate(10.826875 61.703406) scale(0.1 -0.1)">
       <defs>
        <path id="DejaVuSans-36" d="M 2113 2584 
Q 1688 2584 1439 2293 
Q 1191 2003 1191 1497 
Q 1191 994 1439 701 
Q 1688 409 2113 409 
Q 2538 409 2786 701 
Q 3034 994 3034 1497 
Q 3034 2003 2786 2293 
Q 2538 2584 2113 2584 
z
M 3366 4563 
L 3366 3988 
Q 3128 4100 2886 4159 
Q 2644 4219 2406 4219 
Q 1781 4219 1451 3797 
Q 1122 3375 1075 2522 
Q 1259 2794 1537 2939 
Q 1816 3084 2150 3084 
Q 2853 3084 3261 2657 
Q 3669 2231 3669 1497 
Q 3669 778 3244 343 
Q 2819 -91 2113 -91 
Q 1303 -91 875 529 
Q 447 1150 447 2328 
Q 447 3434 972 4092 
Q 1497 4750 2381 4750 
Q 2619 4750 2861 4703 
Q 3103 4656 3366 4563 
z
" transform="scale(0.015625)"/>
       </defs>
       <use xlink:href="#DejaVuSans-30"/>
       <use xlink:href="#DejaVuSans-2e" x="63.623047"/>
       <use xlink:href="#DejaVuSans-36" x="95.410156"/>
      </g>
     </g>
    </g>
   </g>
   <g id="patch_33">
    <path d="M 33.73 294.007367 
L 33.73 25.44 
" style="fill: none; stroke: #000000; stroke-width: 0.8; stroke-linejoin: miter; stroke-linecap: square"/>
   </g>
   <g id="patch_34">
    <path d="M 450 294.007367 
L 450 25.44 
" style="fill: none; stroke: #000000; stroke-width: 0.8; stroke-linejoin: miter; stroke-linecap: square"/>
   </g>
   <g id="patch_35">
    <path d="M 33.73 294.007367 
L 450 294.007367 
" style="fill: none; stroke: #000000; stroke-width: 0.8; stroke-linejoin: miter; stroke-linecap: square"/>
   </g>
   <g id="patch_36">
    <path d="M 33.73 25.44 
L 450 25.44 
" style="fill: none; stroke: #000000; stroke-width: 0.8; stroke-linejoin: miter; stroke-linecap: square"/>
   </g>
   <g id="text_18">
    <!-- Bottom 10 Predicted Labels, by Model -->
    <g transform="translate(127.926875 19.44) scale(0.12 -0.12)">
     <defs>
      <path id="DejaVuSans-42" d="M 1259 2228 
L 1259 519 
L 2272 519 
Q 2781 519 3026 730 
Q 3272 941 3272 1375 
Q 3272 1813 3026 2020 
Q 2781 2228 2272 2228 
L 1259 2228 
z
M 1259 4147 
L 1259 2741 
L 2194 2741 
Q 2656 2741 2882 2914 
Q 3109 3088 3109 3444 
Q 3109 3797 2882 3972 
Q 2656 4147 2194 4147 
L 1259 4147 
z
M 628 4666 
L 2241 4666 
Q 2963 4666 3353 4366 
Q 3744 4066 3744 3513 
Q 3744 3084 3544 2831 
Q 3344 2578 2956 2516 
Q 3422 2416 3680 2098 
Q 3938 1781 3938 1306 
Q 3938 681 3513 340 
Q 3088 0 2303 0 
L 628 0 
L 628 4666 
z
" transform="scale(0.015625)"/>
      <path id="DejaVuSans-20" transform="scale(0.015625)"/>
      <path id="DejaVuSans-50" d="M 1259 4147 
L 1259 2394 
L 2053 2394 
Q 2494 2394 2734 2622 
Q 2975 2850 2975 3272 
Q 2975 3691 2734 3919 
Q 2494 4147 2053 4147 
L 1259 4147 
z
M 628 4666 
L 2053 4666 
Q 2838 4666 3239 4311 
Q 3641 3956 3641 3272 
Q 3641 2581 3239 2228 
Q 2838 1875 2053 1875 
L 1259 1875 
L 1259 0 
L 628 0 
L 628 4666 
z
" transform="scale(0.015625)"/>
      <path id="DejaVuSans-4c" d="M 628 4666 
L 1259 4666 
L 1259 531 
L 3531 531 
L 3531 0 
L 628 0 
L 628 4666 
z
" transform="scale(0.015625)"/>
      <path id="DejaVuSans-2c" d="M 750 794 
L 1409 794 
L 1409 256 
L 897 -744 
L 494 -744 
L 750 256 
L 750 794 
z
" transform="scale(0.015625)"/>
      <path id="DejaVuSans-4d" d="M 628 4666 
L 1569 4666 
L 2759 1491 
L 3956 4666 
L 4897 4666 
L 4897 0 
L 4281 0 
L 4281 4097 
L 3078 897 
L 2444 897 
L 1241 4097 
L 1241 0 
L 628 0 
L 628 4666 
z
" transform="scale(0.015625)"/>
     </defs>
     <use xlink:href="#DejaVuSans-42"/>
     <use xlink:href="#DejaVuSans-6f" x="68.603516"/>
     <use xlink:href="#DejaVuSans-74" x="129.785156"/>
     <use xlink:href="#DejaVuSans-74" x="168.994141"/>
     <use xlink:href="#DejaVuSans-6f" x="208.203125"/>
     <use xlink:href="#DejaVuSans-6d" x="269.384766"/>
     <use xlink:href="#DejaVuSans-20" x="366.796875"/>
     <use xlink:href="#DejaVuSans-31" x="398.583984"/>
     <use xlink:href="#DejaVuSans-30" x="462.207031"/>
     <use xlink:href="#DejaVuSans-20" x="525.830078"/>
     <use xlink:href="#DejaVuSans-50" x="557.617188"/>
     <use xlink:href="#DejaVuSans-72" x="616.169922"/>
     <use xlink:href="#DejaVuSans-65" x="655.033203"/>
     <use xlink:href="#DejaVuSans-64" x="716.556641"/>
     <use xlink:href="#DejaVuSans-69" x="780.033203"/>
     <use xlink:href="#DejaVuSans-63" x="807.816406"/>
     <use xlink:href="#DejaVuSans-74" x="862.796875"/>
     <use xlink:href="#DejaVuSans-65" x="902.005859"/>
     <use xlink:href="#DejaVuSans-64" x="963.529297"/>
     <use xlink:href="#DejaVuSans-20" x="1027.005859"/>
     <use xlink:href="#DejaVuSans-4c" x="1058.792969"/>
     <use xlink:href="#DejaVuSans-61" x="1114.505859"/>
     <use xlink:href="#DejaVuSans-62" x="1175.785156"/>
     <use xlink:href="#DejaVuSans-65" x="1239.261719"/>
     <use xlink:href="#DejaVuSans-6c" x="1300.785156"/>
     <use xlink:href="#DejaVuSans-73" x="1328.568359"/>
     <use xlink:href="#DejaVuSans-2c" x="1380.667969"/>
     <use xlink:href="#DejaVuSans-20" x="1412.455078"/>
     <use xlink:href="#DejaVuSans-62" x="1444.242188"/>
     <use xlink:href="#DejaVuSans-79" x="1507.71875"/>
     <use xlink:href="#DejaVuSans-20" x="1566.898438"/>
     <use xlink:href="#DejaVuSans-4d" x="1598.685547"/>
     <use xlink:href="#DejaVuSans-6f" x="1684.964844"/>
     <use xlink:href="#DejaVuSans-64" x="1746.146484"/>
     <use xlink:href="#DejaVuSans-65" x="1809.623047"/>
     <use xlink:href="#DejaVuSans-6c" x="1871.146484"/>
    </g>
   </g>
   <g id="legend_1">
    <g id="patch_37">
     <path d="M 40.73 77.474375 
L 167.655 77.474375 
Q 169.655 77.474375 169.655 75.474375 
L 169.655 32.44 
Q 169.655 30.44 167.655 30.44 
L 40.73 30.44 
Q 38.73 30.44 38.73 32.44 
L 38.73 75.474375 
Q 38.73 77.474375 40.73 77.474375 
z
" style="fill: #ffffff; opacity: 0.8; stroke: #cccccc; stroke-linejoin: miter"/>
    </g>
    <g id="patch_38">
     <path d="M 42.73 42.038437 
L 62.73 42.038437 
L 62.73 35.038437 
L 42.73 35.038437 
z
" style="fill: #1f77b4"/>
    </g>
    <g id="text_19">
     <!-- MPNN-GNN -->
     <g transform="translate(70.73 42.038437) scale(0.1 -0.1)">
      <defs>
       <path id="DejaVuSans-4e" d="M 628 4666 
L 1478 4666 
L 3547 763 
L 3547 4666 
L 4159 4666 
L 4159 0 
L 3309 0 
L 1241 3903 
L 1241 0 
L 628 0 
L 628 4666 
z
" transform="scale(0.015625)"/>
       <path id="DejaVuSans-2d" d="M 313 2009 
L 1997 2009 
L 1997 1497 
L 313 1497 
L 313 2009 
z
" transform="scale(0.015625)"/>
       <path id="DejaVuSans-47" d="M 3809 666 
L 3809 1919 
L 2778 1919 
L 2778 2438 
L 4434 2438 
L 4434 434 
Q 4069 175 3628 42 
Q 3188 -91 2688 -91 
Q 1594 -91 976 548 
Q 359 1188 359 2328 
Q 359 3472 976 4111 
Q 1594 4750 2688 4750 
Q 3144 4750 3555 4637 
Q 3966 4525 4313 4306 
L 4313 3634 
Q 3963 3931 3569 4081 
Q 3175 4231 2741 4231 
Q 1884 4231 1454 3753 
Q 1025 3275 1025 2328 
Q 1025 1384 1454 906 
Q 1884 428 2741 428 
Q 3075 428 3337 486 
Q 3600 544 3809 666 
z
" transform="scale(0.015625)"/>
      </defs>
      <use xlink:href="#DejaVuSans-4d"/>
      <use xlink:href="#DejaVuSans-50" x="86.279297"/>
      <use xlink:href="#DejaVuSans-4e" x="146.582031"/>
      <use xlink:href="#DejaVuSans-4e" x="221.386719"/>
      <use xlink:href="#DejaVuSans-2d" x="296.191406"/>
      <use xlink:href="#DejaVuSans-47" x="335.900391"/>
      <use xlink:href="#DejaVuSans-4e" x="413.390625"/>
      <use xlink:href="#DejaVuSans-4e" x="488.195312"/>
     </g>
    </g>
    <g id="patch_39">
     <path d="M 42.73 56.716562 
L 62.73 56.716562 
L 62.73 49.716562 
L 42.73 49.716562 
z
" style="fill: #ff7f0e"/>
    </g>
    <g id="text_20">
     <!-- GIN-GNN -->
     <g transform="translate(70.73 56.716562) scale(0.1 -0.1)">
      <defs>
       <path id="DejaVuSans-49" d="M 628 4666 
L 1259 4666 
L 1259 0 
L 628 0 
L 628 4666 
z
" transform="scale(0.015625)"/>
      </defs>
      <use xlink:href="#DejaVuSans-47"/>
      <use xlink:href="#DejaVuSans-49" x="77.490234"/>
      <use xlink:href="#DejaVuSans-4e" x="106.982422"/>
      <use xlink:href="#DejaVuSans-2d" x="181.787109"/>
      <use xlink:href="#DejaVuSans-47" x="221.496094"/>
      <use xlink:href="#DejaVuSans-4e" x="298.986328"/>
      <use xlink:href="#DejaVuSans-4e" x="373.791016"/>
     </g>
    </g>
    <g id="patch_40">
     <path d="M 42.73 71.394687 
L 62.73 71.394687 
L 62.73 64.394687 
L 42.73 64.394687 
z
" style="fill: #2ca02c"/>
    </g>
    <g id="text_21">
     <!-- Morgan Fingerprint -->
     <g transform="translate(70.73 71.394687) scale(0.1 -0.1)">
      <defs>
       <path id="DejaVuSans-46" d="M 628 4666 
L 3309 4666 
L 3309 4134 
L 1259 4134 
L 1259 2759 
L 3109 2759 
L 3109 2228 
L 1259 2228 
L 1259 0 
L 628 0 
L 628 4666 
z
" transform="scale(0.015625)"/>
      </defs>
      <use xlink:href="#DejaVuSans-4d"/>
      <use xlink:href="#DejaVuSans-6f" x="86.279297"/>
      <use xlink:href="#DejaVuSans-72" x="147.460938"/>
      <use xlink:href="#DejaVuSans-67" x="186.824219"/>
      <use xlink:href="#DejaVuSans-61" x="250.300781"/>
      <use xlink:href="#DejaVuSans-6e" x="311.580078"/>
      <use xlink:href="#DejaVuSans-20" x="374.958984"/>
      <use xlink:href="#DejaVuSans-46" x="406.746094"/>
      <use xlink:href="#DejaVuSans-69" x="457.015625"/>
      <use xlink:href="#DejaVuSans-6e" x="484.798828"/>
      <use xlink:href="#DejaVuSans-67" x="548.177734"/>
      <use xlink:href="#DejaVuSans-65" x="611.654297"/>
      <use xlink:href="#DejaVuSans-72" x="673.177734"/>
      <use xlink:href="#DejaVuSans-70" x="714.291016"/>
      <use xlink:href="#DejaVuSans-72" x="777.767578"/>
      <use xlink:href="#DejaVuSans-69" x="818.880859"/>
      <use xlink:href="#DejaVuSans-6e" x="846.664062"/>
      <use xlink:href="#DejaVuSans-74" x="910.042969"/>
     </g>
    </g>
   </g>
  </g>
 </g>
 <defs>
  <clipPath id="pd9290dcb6f">
   <rect x="33.73" y="25.44" width="416.27" height="268.567367"/>
  </clipPath>
 </defs>
</svg>
