<?xml version="1.0" encoding="utf-8" standalone="no"?>
<!DOCTYPE svg PUBLIC "-//W3C//DTD SVG 1.1//EN"
  "http://www.w3.org/Graphics/SVG/1.1/DTD/svg11.dtd">
<svg xmlns:xlink="http://www.w3.org/1999/xlink" width="460.8pt" height="345.6pt" viewBox="0 0 460.8 345.6" xmlns="http://www.w3.org/2000/svg" version="1.1">
 <metadata>
  <rdf:RDF xmlns:dc="http://purl.org/dc/elements/1.1/" xmlns:cc="http://creativecommons.org/ns#" xmlns:rdf="http://www.w3.org/1999/02/22-rdf-syntax-ns#">
   <cc:Work>
    <dc:type rdf:resource="http://purl.org/dc/dcmitype/StillImage"/>
    <dc:date>2024-05-09T14:05:21.777149</dc:date>
    <dc:format>image/svg+xml</dc:format>
    <dc:creator>
     <cc:Agent>
      <dc:title>Matplotlib v3.7.1, https://matplotlib.org/</dc:title>
     </cc:Agent>
    </dc:creator>
   </cc:Work>
  </rdf:RDF>
 </metadata>
 <defs>
  <style type="text/css">*{stroke-linejoin: round; stroke-linecap: butt}</style>
 </defs>
 <g id="figure_1">
  <g id="patch_1">
   <path d="M 0 345.6 
L 460.8 345.6 
L 460.8 0 
L 0 0 
z
" style="fill: #ffffff"/>
  </g>
  <g id="axes_1">
   <g id="patch_2">
    <path d="M 33.73 286.306974 
L 447.109487 286.306974 
L 447.109487 25.44 
L 33.73 25.44 
z
" style="fill: #ffffff"/>
   </g>
   <g id="patch_3">
    <path d="M 44.064487 286.306974 
L 50.954145 286.306974 
L 50.954145 42.831132 
L 44.064487 42.831132 
z
" clip-path="url(#p5dcf50f6ba)" style="fill: #1f77b4"/>
   </g>
   <g id="patch_4">
    <path d="M 85.402436 286.306974 
L 92.292094 286.306974 
L 92.292094 50.284474 
L 85.402436 50.284474 
z
" clip-path="url(#p5dcf50f6ba)" style="fill: #1f77b4"/>
   </g>
   <g id="patch_5">
    <path d="M 126.740385 286.306974 
L 133.630043 286.306974 
L 133.630043 52.768921 
L 126.740385 52.768921 
z
" clip-path="url(#p5dcf50f6ba)" style="fill: #1f77b4"/>
   </g>
   <g id="patch_6">
    <path d="M 168.078333 286.306974 
L 174.967991 286.306974 
L 174.967991 40.346684 
L 168.078333 40.346684 
z
" clip-path="url(#p5dcf50f6ba)" style="fill: #1f77b4"/>
   </g>
   <g id="patch_7">
    <path d="M 209.416282 286.306974 
L 216.30594 286.306974 
L 216.30594 42.831132 
L 209.416282 42.831132 
z
" clip-path="url(#p5dcf50f6ba)" style="fill: #1f77b4"/>
   </g>
   <g id="patch_8">
    <path d="M 250.754231 286.306974 
L 257.643889 286.306974 
L 257.643889 50.284474 
L 250.754231 50.284474 
z
" clip-path="url(#p5dcf50f6ba)" style="fill: #1f77b4"/>
   </g>
   <g id="patch_9">
    <path d="M 292.092179 286.306974 
L 298.981838 286.306974 
L 298.981838 52.768921 
L 292.092179 52.768921 
z
" clip-path="url(#p5dcf50f6ba)" style="fill: #1f77b4"/>
   </g>
   <g id="patch_10">
    <path d="M 333.430128 286.306974 
L 340.319786 286.306974 
L 340.319786 50.284474 
L 333.430128 50.284474 
z
" clip-path="url(#p5dcf50f6ba)" style="fill: #1f77b4"/>
   </g>
   <g id="patch_11">
    <path d="M 374.768077 286.306974 
L 381.657735 286.306974 
L 381.657735 60.222263 
L 374.768077 60.222263 
z
" clip-path="url(#p5dcf50f6ba)" style="fill: #1f77b4"/>
   </g>
   <g id="patch_12">
    <path d="M 416.106026 286.306974 
L 422.995684 286.306974 
L 422.995684 50.284474 
L 416.106026 50.284474 
z
" clip-path="url(#p5dcf50f6ba)" style="fill: #1f77b4"/>
   </g>
   <g id="patch_13">
    <path d="M 50.954145 286.306974 
L 57.843803 286.306974 
L 57.843803 40.346684 
L 50.954145 40.346684 
z
" clip-path="url(#p5dcf50f6ba)" style="fill: #ff7f0e"/>
   </g>
   <g id="patch_14">
    <path d="M 92.292094 286.306974 
L 99.181752 286.306974 
L 99.181752 45.315579 
L 92.292094 45.315579 
z
" clip-path="url(#p5dcf50f6ba)" style="fill: #ff7f0e"/>
   </g>
   <g id="patch_15">
    <path d="M 133.630043 286.306974 
L 140.519701 286.306974 
L 140.519701 45.315579 
L 133.630043 45.315579 
z
" clip-path="url(#p5dcf50f6ba)" style="fill: #ff7f0e"/>
   </g>
   <g id="patch_16">
    <path d="M 174.967991 286.306974 
L 181.85765 286.306974 
L 181.85765 37.862237 
L 174.967991 37.862237 
z
" clip-path="url(#p5dcf50f6ba)" style="fill: #ff7f0e"/>
   </g>
   <g id="patch_17">
    <path d="M 216.30594 286.306974 
L 223.195598 286.306974 
L 223.195598 57.737816 
L 216.30594 57.737816 
z
" clip-path="url(#p5dcf50f6ba)" style="fill: #ff7f0e"/>
   </g>
   <g id="patch_18">
    <path d="M 257.643889 286.306974 
L 264.533547 286.306974 
L 264.533547 47.800026 
L 257.643889 47.800026 
z
" clip-path="url(#p5dcf50f6ba)" style="fill: #ff7f0e"/>
   </g>
   <g id="patch_19">
    <path d="M 298.981838 286.306974 
L 305.871496 286.306974 
L 305.871496 57.737816 
L 298.981838 57.737816 
z
" clip-path="url(#p5dcf50f6ba)" style="fill: #ff7f0e"/>
   </g>
   <g id="patch_20">
    <path d="M 340.319786 286.306974 
L 347.209444 286.306974 
L 347.209444 55.253368 
L 340.319786 55.253368 
z
" clip-path="url(#p5dcf50f6ba)" style="fill: #ff7f0e"/>
   </g>
   <g id="patch_21">
    <path d="M 381.657735 286.306974 
L 388.547393 286.306974 
L 388.547393 62.706711 
L 381.657735 62.706711 
z
" clip-path="url(#p5dcf50f6ba)" style="fill: #ff7f0e"/>
   </g>
   <g id="patch_22">
    <path d="M 422.995684 286.306974 
L 429.885342 286.306974 
L 429.885342 85.066737 
L 422.995684 85.066737 
z
" clip-path="url(#p5dcf50f6ba)" style="fill: #ff7f0e"/>
   </g>
   <g id="patch_23">
    <path d="M 57.843803 286.306974 
L 64.733462 286.306974 
L 64.733462 52.768921 
L 57.843803 52.768921 
z
" clip-path="url(#p5dcf50f6ba)" style="fill: #2ca02c"/>
   </g>
   <g id="patch_24">
    <path d="M 99.181752 286.306974 
L 106.07141 286.306974 
L 106.07141 42.831132 
L 99.181752 42.831132 
z
" clip-path="url(#p5dcf50f6ba)" style="fill: #2ca02c"/>
   </g>
   <g id="patch_25">
    <path d="M 140.519701 286.306974 
L 147.409359 286.306974 
L 147.409359 52.768921 
L 140.519701 52.768921 
z
" clip-path="url(#p5dcf50f6ba)" style="fill: #2ca02c"/>
   </g>
   <g id="patch_26">
    <path d="M 181.85765 286.306974 
L 188.747308 286.306974 
L 188.747308 87.551184 
L 181.85765 87.551184 
z
" clip-path="url(#p5dcf50f6ba)" style="fill: #2ca02c"/>
   </g>
   <g id="patch_27">
    <path d="M 223.195598 286.306974 
L 230.085256 286.306974 
L 230.085256 45.315579 
L 223.195598 45.315579 
z
" clip-path="url(#p5dcf50f6ba)" style="fill: #2ca02c"/>
   </g>
   <g id="patch_28">
    <path d="M 264.533547 286.306974 
L 271.423205 286.306974 
L 271.423205 72.6445 
L 264.533547 72.6445 
z
" clip-path="url(#p5dcf50f6ba)" style="fill: #2ca02c"/>
   </g>
   <g id="patch_29">
    <path d="M 305.871496 286.306974 
L 312.761154 286.306974 
L 312.761154 67.675605 
L 305.871496 67.675605 
z
" clip-path="url(#p5dcf50f6ba)" style="fill: #2ca02c"/>
   </g>
   <g id="patch_30">
    <path d="M 347.209444 286.306974 
L 354.099102 286.306974 
L 354.099102 80.097842 
L 347.209444 80.097842 
z
" clip-path="url(#p5dcf50f6ba)" style="fill: #2ca02c"/>
   </g>
   <g id="patch_31">
    <path d="M 388.547393 286.306974 
L 395.437051 286.306974 
L 395.437051 57.737816 
L 388.547393 57.737816 
z
" clip-path="url(#p5dcf50f6ba)" style="fill: #2ca02c"/>
   </g>
   <g id="patch_32">
    <path d="M 429.885342 286.306974 
L 436.775 286.306974 
L 436.775 45.315579 
L 429.885342 45.315579 
z
" clip-path="url(#p5dcf50f6ba)" style="fill: #2ca02c"/>
   </g>
   <g id="matplotlib.axis_1">
    <g id="xtick_1">
     <g id="line2d_1">
      <defs>
       <path id="mc33534f64c" d="M 0 0 
L 0 3.5 
" style="stroke: #000000; stroke-width: 0.8"/>
      </defs>
      <g>
       <use xlink:href="#mc33534f64c" x="54.398974" y="286.306974" style="stroke: #000000; stroke-width: 0.8"/>
      </g>
     </g>
     <g id="text_1">
      <!-- acidic -->
      <g transform="translate(46.086603 319.20697) rotate(-45) scale(0.1 -0.1)">
       <defs>
        <path id="DejaVuSans-61" d="M 2194 1759 
Q 1497 1759 1228 1600 
Q 959 1441 959 1056 
Q 959 750 1161 570 
Q 1363 391 1709 391 
Q 2188 391 2477 730 
Q 2766 1069 2766 1631 
L 2766 1759 
L 2194 1759 
z
M 3341 1997 
L 3341 0 
L 2766 0 
L 2766 531 
Q 2569 213 2275 61 
Q 1981 -91 1556 -91 
Q 1019 -91 701 211 
Q 384 513 384 1019 
Q 384 1609 779 1909 
Q 1175 2209 1959 2209 
L 2766 2209 
L 2766 2266 
Q 2766 2663 2505 2880 
Q 2244 3097 1772 3097 
Q 1472 3097 1187 3025 
Q 903 2953 641 2809 
L 641 3341 
Q 956 3463 1253 3523 
Q 1550 3584 1831 3584 
Q 2591 3584 2966 3190 
Q 3341 2797 3341 1997 
z
" transform="scale(0.015625)"/>
        <path id="DejaVuSans-63" d="M 3122 3366 
L 3122 2828 
Q 2878 2963 2633 3030 
Q 2388 3097 2138 3097 
Q 1578 3097 1268 2742 
Q 959 2388 959 1747 
Q 959 1106 1268 751 
Q 1578 397 2138 397 
Q 2388 397 2633 464 
Q 2878 531 3122 666 
L 3122 134 
Q 2881 22 2623 -34 
Q 2366 -91 2075 -91 
Q 1284 -91 818 406 
Q 353 903 353 1747 
Q 353 2603 823 3093 
Q 1294 3584 2113 3584 
Q 2378 3584 2631 3529 
Q 2884 3475 3122 3366 
z
" transform="scale(0.015625)"/>
        <path id="DejaVuSans-69" d="M 603 3500 
L 1178 3500 
L 1178 0 
L 603 0 
L 603 3500 
z
M 603 4863 
L 1178 4863 
L 1178 4134 
L 603 4134 
L 603 4863 
z
" transform="scale(0.015625)"/>
        <path id="DejaVuSans-64" d="M 2906 2969 
L 2906 4863 
L 3481 4863 
L 3481 0 
L 2906 0 
L 2906 525 
Q 2725 213 2448 61 
Q 2172 -91 1784 -91 
Q 1150 -91 751 415 
Q 353 922 353 1747 
Q 353 2572 751 3078 
Q 1150 3584 1784 3584 
Q 2172 3584 2448 3432 
Q 2725 3281 2906 2969 
z
M 947 1747 
Q 947 1113 1208 752 
Q 1469 391 1925 391 
Q 2381 391 2643 752 
Q 2906 1113 2906 1747 
Q 2906 2381 2643 2742 
Q 2381 3103 1925 3103 
Q 1469 3103 1208 2742 
Q 947 2381 947 1747 
z
" transform="scale(0.015625)"/>
       </defs>
       <use xlink:href="#DejaVuSans-61"/>
       <use xlink:href="#DejaVuSans-63" x="61.279297"/>
       <use xlink:href="#DejaVuSans-69" x="116.259766"/>
       <use xlink:href="#DejaVuSans-64" x="144.042969"/>
       <use xlink:href="#DejaVuSans-69" x="207.519531"/>
       <use xlink:href="#DejaVuSans-63" x="235.302734"/>
      </g>
     </g>
    </g>
    <g id="xtick_2">
     <g id="line2d_2">
      <g>
       <use xlink:href="#mc33534f64c" x="95.736923" y="286.306974" style="stroke: #000000; stroke-width: 0.8"/>
      </g>
     </g>
     <g id="text_2">
      <!-- cheesy -->
      <g transform="translate(85.218157 323.619758) rotate(-45) scale(0.1 -0.1)">
       <defs>
        <path id="DejaVuSans-68" d="M 3513 2113 
L 3513 0 
L 2938 0 
L 2938 2094 
Q 2938 2591 2744 2837 
Q 2550 3084 2163 3084 
Q 1697 3084 1428 2787 
Q 1159 2491 1159 1978 
L 1159 0 
L 581 0 
L 581 4863 
L 1159 4863 
L 1159 2956 
Q 1366 3272 1645 3428 
Q 1925 3584 2291 3584 
Q 2894 3584 3203 3211 
Q 3513 2838 3513 2113 
z
" transform="scale(0.015625)"/>
        <path id="DejaVuSans-65" d="M 3597 1894 
L 3597 1613 
L 953 1613 
Q 991 1019 1311 708 
Q 1631 397 2203 397 
Q 2534 397 2845 478 
Q 3156 559 3463 722 
L 3463 178 
Q 3153 47 2828 -22 
Q 2503 -91 2169 -91 
Q 1331 -91 842 396 
Q 353 884 353 1716 
Q 353 2575 817 3079 
Q 1281 3584 2069 3584 
Q 2775 3584 3186 3129 
Q 3597 2675 3597 1894 
z
M 3022 2063 
Q 3016 2534 2758 2815 
Q 2500 3097 2075 3097 
Q 1594 3097 1305 2825 
Q 1016 2553 972 2059 
L 3022 2063 
z
" transform="scale(0.015625)"/>
        <path id="DejaVuSans-73" d="M 2834 3397 
L 2834 2853 
Q 2591 2978 2328 3040 
Q 2066 3103 1784 3103 
Q 1356 3103 1142 2972 
Q 928 2841 928 2578 
Q 928 2378 1081 2264 
Q 1234 2150 1697 2047 
L 1894 2003 
Q 2506 1872 2764 1633 
Q 3022 1394 3022 966 
Q 3022 478 2636 193 
Q 2250 -91 1575 -91 
Q 1294 -91 989 -36 
Q 684 19 347 128 
L 347 722 
Q 666 556 975 473 
Q 1284 391 1588 391 
Q 1994 391 2212 530 
Q 2431 669 2431 922 
Q 2431 1156 2273 1281 
Q 2116 1406 1581 1522 
L 1381 1569 
Q 847 1681 609 1914 
Q 372 2147 372 2553 
Q 372 3047 722 3315 
Q 1072 3584 1716 3584 
Q 2034 3584 2315 3537 
Q 2597 3491 2834 3397 
z
" transform="scale(0.015625)"/>
        <path id="DejaVuSans-79" d="M 2059 -325 
Q 1816 -950 1584 -1140 
Q 1353 -1331 966 -1331 
L 506 -1331 
L 506 -850 
L 844 -850 
Q 1081 -850 1212 -737 
Q 1344 -625 1503 -206 
L 1606 56 
L 191 3500 
L 800 3500 
L 1894 763 
L 2988 3500 
L 3597 3500 
L 2059 -325 
z
" transform="scale(0.015625)"/>
       </defs>
       <use xlink:href="#DejaVuSans-63"/>
       <use xlink:href="#DejaVuSans-68" x="54.980469"/>
       <use xlink:href="#DejaVuSans-65" x="118.359375"/>
       <use xlink:href="#DejaVuSans-65" x="179.882812"/>
       <use xlink:href="#DejaVuSans-73" x="241.40625"/>
       <use xlink:href="#DejaVuSans-79" x="293.505859"/>
      </g>
     </g>
    </g>
    <g id="xtick_3">
     <g id="line2d_3">
      <g>
       <use xlink:href="#mc33534f64c" x="137.074872" y="286.306974" style="stroke: #000000; stroke-width: 0.8"/>
      </g>
     </g>
     <g id="text_3">
      <!-- mossy -->
      <g transform="translate(127.64273 321.446509) rotate(-45) scale(0.1 -0.1)">
       <defs>
        <path id="DejaVuSans-6d" d="M 3328 2828 
Q 3544 3216 3844 3400 
Q 4144 3584 4550 3584 
Q 5097 3584 5394 3201 
Q 5691 2819 5691 2113 
L 5691 0 
L 5113 0 
L 5113 2094 
Q 5113 2597 4934 2840 
Q 4756 3084 4391 3084 
Q 3944 3084 3684 2787 
Q 3425 2491 3425 1978 
L 3425 0 
L 2847 0 
L 2847 2094 
Q 2847 2600 2669 2842 
Q 2491 3084 2119 3084 
Q 1678 3084 1418 2786 
Q 1159 2488 1159 1978 
L 1159 0 
L 581 0 
L 581 3500 
L 1159 3500 
L 1159 2956 
Q 1356 3278 1631 3431 
Q 1906 3584 2284 3584 
Q 2666 3584 2933 3390 
Q 3200 3197 3328 2828 
z
" transform="scale(0.015625)"/>
        <path id="DejaVuSans-6f" d="M 1959 3097 
Q 1497 3097 1228 2736 
Q 959 2375 959 1747 
Q 959 1119 1226 758 
Q 1494 397 1959 397 
Q 2419 397 2687 759 
Q 2956 1122 2956 1747 
Q 2956 2369 2687 2733 
Q 2419 3097 1959 3097 
z
M 1959 3584 
Q 2709 3584 3137 3096 
Q 3566 2609 3566 1747 
Q 3566 888 3137 398 
Q 2709 -91 1959 -91 
Q 1206 -91 779 398 
Q 353 888 353 1747 
Q 353 2609 779 3096 
Q 1206 3584 1959 3584 
z
" transform="scale(0.015625)"/>
       </defs>
       <use xlink:href="#DejaVuSans-6d"/>
       <use xlink:href="#DejaVuSans-6f" x="97.412109"/>
       <use xlink:href="#DejaVuSans-73" x="158.59375"/>
       <use xlink:href="#DejaVuSans-73" x="210.693359"/>
       <use xlink:href="#DejaVuSans-79" x="262.792969"/>
      </g>
     </g>
    </g>
    <g id="xtick_4">
     <g id="line2d_4">
      <g>
       <use xlink:href="#mc33534f64c" x="178.41282" y="286.306974" style="stroke: #000000; stroke-width: 0.8"/>
      </g>
     </g>
     <g id="text_4">
      <!-- sour -->
      <g transform="translate(172.664816 314.078236) rotate(-45) scale(0.1 -0.1)">
       <defs>
        <path id="DejaVuSans-75" d="M 544 1381 
L 544 3500 
L 1119 3500 
L 1119 1403 
Q 1119 906 1312 657 
Q 1506 409 1894 409 
Q 2359 409 2629 706 
Q 2900 1003 2900 1516 
L 2900 3500 
L 3475 3500 
L 3475 0 
L 2900 0 
L 2900 538 
Q 2691 219 2414 64 
Q 2138 -91 1772 -91 
Q 1169 -91 856 284 
Q 544 659 544 1381 
z
M 1991 3584 
L 1991 3584 
z
" transform="scale(0.015625)"/>
        <path id="DejaVuSans-72" d="M 2631 2963 
Q 2534 3019 2420 3045 
Q 2306 3072 2169 3072 
Q 1681 3072 1420 2755 
Q 1159 2438 1159 1844 
L 1159 0 
L 581 0 
L 581 3500 
L 1159 3500 
L 1159 2956 
Q 1341 3275 1631 3429 
Q 1922 3584 2338 3584 
Q 2397 3584 2469 3576 
Q 2541 3569 2628 3553 
L 2631 2963 
z
" transform="scale(0.015625)"/>
       </defs>
       <use xlink:href="#DejaVuSans-73"/>
       <use xlink:href="#DejaVuSans-6f" x="52.099609"/>
       <use xlink:href="#DejaVuSans-75" x="113.28125"/>
       <use xlink:href="#DejaVuSans-72" x="176.660156"/>
      </g>
     </g>
    </g>
    <g id="xtick_5">
     <g id="line2d_5">
      <g>
       <use xlink:href="#mc33534f64c" x="219.750769" y="286.306974" style="stroke: #000000; stroke-width: 0.8"/>
      </g>
     </g>
     <g id="text_5">
      <!-- vanilla -->
      <g transform="translate(210.088818 321.906129) rotate(-45) scale(0.1 -0.1)">
       <defs>
        <path id="DejaVuSans-76" d="M 191 3500 
L 800 3500 
L 1894 563 
L 2988 3500 
L 3597 3500 
L 2284 0 
L 1503 0 
L 191 3500 
z
" transform="scale(0.015625)"/>
        <path id="DejaVuSans-6e" d="M 3513 2113 
L 3513 0 
L 2938 0 
L 2938 2094 
Q 2938 2591 2744 2837 
Q 2550 3084 2163 3084 
Q 1697 3084 1428 2787 
Q 1159 2491 1159 1978 
L 1159 0 
L 581 0 
L 581 3500 
L 1159 3500 
L 1159 2956 
Q 1366 3272 1645 3428 
Q 1925 3584 2291 3584 
Q 2894 3584 3203 3211 
Q 3513 2838 3513 2113 
z
" transform="scale(0.015625)"/>
        <path id="DejaVuSans-6c" d="M 603 4863 
L 1178 4863 
L 1178 0 
L 603 0 
L 603 4863 
z
" transform="scale(0.015625)"/>
       </defs>
       <use xlink:href="#DejaVuSans-76"/>
       <use xlink:href="#DejaVuSans-61" x="59.179688"/>
       <use xlink:href="#DejaVuSans-6e" x="120.458984"/>
       <use xlink:href="#DejaVuSans-69" x="183.837891"/>
       <use xlink:href="#DejaVuSans-6c" x="211.621094"/>
       <use xlink:href="#DejaVuSans-6c" x="239.404297"/>
       <use xlink:href="#DejaVuSans-61" x="267.1875"/>
      </g>
     </g>
    </g>
    <g id="xtick_6">
     <g id="line2d_6">
      <g>
       <use xlink:href="#mc33534f64c" x="261.088718" y="286.306974" style="stroke: #000000; stroke-width: 0.8"/>
      </g>
     </g>
     <g id="text_6">
      <!-- amber -->
      <g transform="translate(251.556035 321.647593) rotate(-45) scale(0.1 -0.1)">
       <defs>
        <path id="DejaVuSans-62" d="M 3116 1747 
Q 3116 2381 2855 2742 
Q 2594 3103 2138 3103 
Q 1681 3103 1420 2742 
Q 1159 2381 1159 1747 
Q 1159 1113 1420 752 
Q 1681 391 2138 391 
Q 2594 391 2855 752 
Q 3116 1113 3116 1747 
z
M 1159 2969 
Q 1341 3281 1617 3432 
Q 1894 3584 2278 3584 
Q 2916 3584 3314 3078 
Q 3713 2572 3713 1747 
Q 3713 922 3314 415 
Q 2916 -91 2278 -91 
Q 1894 -91 1617 61 
Q 1341 213 1159 525 
L 1159 0 
L 581 0 
L 581 4863 
L 1159 4863 
L 1159 2969 
z
" transform="scale(0.015625)"/>
       </defs>
       <use xlink:href="#DejaVuSans-61"/>
       <use xlink:href="#DejaVuSans-6d" x="61.279297"/>
       <use xlink:href="#DejaVuSans-62" x="158.691406"/>
       <use xlink:href="#DejaVuSans-65" x="222.167969"/>
       <use xlink:href="#DejaVuSans-72" x="283.691406"/>
      </g>
     </g>
    </g>
    <g id="xtick_7">
     <g id="line2d_7">
      <g>
       <use xlink:href="#mc33534f64c" x="302.426667" y="286.306974" style="stroke: #000000; stroke-width: 0.8"/>
      </g>
     </g>
     <g id="text_7">
      <!-- coffee -->
      <g transform="translate(293.43039 320.574779) rotate(-45) scale(0.1 -0.1)">
       <defs>
        <path id="DejaVuSans-66" d="M 2375 4863 
L 2375 4384 
L 1825 4384 
Q 1516 4384 1395 4259 
Q 1275 4134 1275 3809 
L 1275 3500 
L 2222 3500 
L 2222 3053 
L 1275 3053 
L 1275 0 
L 697 0 
L 697 3053 
L 147 3053 
L 147 3500 
L 697 3500 
L 697 3744 
Q 697 4328 969 4595 
Q 1241 4863 1831 4863 
L 2375 4863 
z
" transform="scale(0.015625)"/>
       </defs>
       <use xlink:href="#DejaVuSans-63"/>
       <use xlink:href="#DejaVuSans-6f" x="54.980469"/>
       <use xlink:href="#DejaVuSans-66" x="116.162109"/>
       <use xlink:href="#DejaVuSans-66" x="151.367188"/>
       <use xlink:href="#DejaVuSans-65" x="186.572266"/>
       <use xlink:href="#DejaVuSans-65" x="248.095703"/>
      </g>
     </g>
    </g>
    <g id="xtick_8">
     <g id="line2d_8">
      <g>
       <use xlink:href="#mc33534f64c" x="343.764615" y="286.306974" style="stroke: #000000; stroke-width: 0.8"/>
      </g>
     </g>
     <g id="text_8">
      <!-- buttery -->
      <g transform="translate(332.737064 324.637329) rotate(-45) scale(0.1 -0.1)">
       <defs>
        <path id="DejaVuSans-74" d="M 1172 4494 
L 1172 3500 
L 2356 3500 
L 2356 3053 
L 1172 3053 
L 1172 1153 
Q 1172 725 1289 603 
Q 1406 481 1766 481 
L 2356 481 
L 2356 0 
L 1766 0 
Q 1100 0 847 248 
Q 594 497 594 1153 
L 594 3053 
L 172 3053 
L 172 3500 
L 594 3500 
L 594 4494 
L 1172 4494 
z
" transform="scale(0.015625)"/>
       </defs>
       <use xlink:href="#DejaVuSans-62"/>
       <use xlink:href="#DejaVuSans-75" x="63.476562"/>
       <use xlink:href="#DejaVuSans-74" x="126.855469"/>
       <use xlink:href="#DejaVuSans-74" x="166.064453"/>
       <use xlink:href="#DejaVuSans-65" x="205.273438"/>
       <use xlink:href="#DejaVuSans-72" x="266.796875"/>
       <use xlink:href="#DejaVuSans-79" x="307.910156"/>
      </g>
     </g>
    </g>
    <g id="xtick_9">
     <g id="line2d_9">
      <g>
       <use xlink:href="#mc33534f64c" x="385.102564" y="286.306974" style="stroke: #000000; stroke-width: 0.8"/>
      </g>
     </g>
     <g id="text_9">
      <!-- fresh -->
      <g transform="translate(378.177337 316.43268) rotate(-45) scale(0.1 -0.1)">
       <use xlink:href="#DejaVuSans-66"/>
       <use xlink:href="#DejaVuSans-72" x="35.205078"/>
       <use xlink:href="#DejaVuSans-65" x="74.068359"/>
       <use xlink:href="#DejaVuSans-73" x="135.591797"/>
       <use xlink:href="#DejaVuSans-68" x="187.691406"/>
      </g>
     </g>
    </g>
    <g id="xtick_10">
     <g id="line2d_10">
      <g>
       <use xlink:href="#mc33534f64c" x="426.440513" y="286.306974" style="stroke: #000000; stroke-width: 0.8"/>
      </g>
     </g>
     <g id="text_10">
      <!-- chocolate -->
      <g transform="translate(411.226116 333.01102) rotate(-45) scale(0.1 -0.1)">
       <use xlink:href="#DejaVuSans-63"/>
       <use xlink:href="#DejaVuSans-68" x="54.980469"/>
       <use xlink:href="#DejaVuSans-6f" x="118.359375"/>
       <use xlink:href="#DejaVuSans-63" x="179.541016"/>
       <use xlink:href="#DejaVuSans-6f" x="234.521484"/>
       <use xlink:href="#DejaVuSans-6c" x="295.703125"/>
       <use xlink:href="#DejaVuSans-61" x="323.486328"/>
       <use xlink:href="#DejaVuSans-74" x="384.765625"/>
       <use xlink:href="#DejaVuSans-65" x="423.974609"/>
      </g>
     </g>
    </g>
   </g>
   <g id="matplotlib.axis_2">
    <g id="ytick_1">
     <g id="line2d_11">
      <defs>
       <path id="ma07557f59c" d="M 0 0 
L -3.5 0 
" style="stroke: #000000; stroke-width: 0.8"/>
      </defs>
      <g>
       <use xlink:href="#ma07557f59c" x="33.73" y="286.306974" style="stroke: #000000; stroke-width: 0.8"/>
      </g>
     </g>
     <g id="text_11">
      <!-- 0.0 -->
      <g transform="translate(10.826875 290.106193) scale(0.1 -0.1)">
       <defs>
        <path id="DejaVuSans-30" d="M 2034 4250 
Q 1547 4250 1301 3770 
Q 1056 3291 1056 2328 
Q 1056 1369 1301 889 
Q 1547 409 2034 409 
Q 2525 409 2770 889 
Q 3016 1369 3016 2328 
Q 3016 3291 2770 3770 
Q 2525 4250 2034 4250 
z
M 2034 4750 
Q 2819 4750 3233 4129 
Q 3647 3509 3647 2328 
Q 3647 1150 3233 529 
Q 2819 -91 2034 -91 
Q 1250 -91 836 529 
Q 422 1150 422 2328 
Q 422 3509 836 4129 
Q 1250 4750 2034 4750 
z
" transform="scale(0.015625)"/>
        <path id="DejaVuSans-2e" d="M 684 794 
L 1344 794 
L 1344 0 
L 684 0 
L 684 794 
z
" transform="scale(0.015625)"/>
       </defs>
       <use xlink:href="#DejaVuSans-30"/>
       <use xlink:href="#DejaVuSans-2e" x="63.623047"/>
       <use xlink:href="#DejaVuSans-30" x="95.410156"/>
      </g>
     </g>
    </g>
    <g id="ytick_2">
     <g id="line2d_12">
      <g>
       <use xlink:href="#ma07557f59c" x="33.73" y="236.618027" style="stroke: #000000; stroke-width: 0.8"/>
      </g>
     </g>
     <g id="text_12">
      <!-- 0.2 -->
      <g transform="translate(10.826875 240.417245) scale(0.1 -0.1)">
       <defs>
        <path id="DejaVuSans-32" d="M 1228 531 
L 3431 531 
L 3431 0 
L 469 0 
L 469 531 
Q 828 903 1448 1529 
Q 2069 2156 2228 2338 
Q 2531 2678 2651 2914 
Q 2772 3150 2772 3378 
Q 2772 3750 2511 3984 
Q 2250 4219 1831 4219 
Q 1534 4219 1204 4116 
Q 875 4013 500 3803 
L 500 4441 
Q 881 4594 1212 4672 
Q 1544 4750 1819 4750 
Q 2544 4750 2975 4387 
Q 3406 4025 3406 3419 
Q 3406 3131 3298 2873 
Q 3191 2616 2906 2266 
Q 2828 2175 2409 1742 
Q 1991 1309 1228 531 
z
" transform="scale(0.015625)"/>
       </defs>
       <use xlink:href="#DejaVuSans-30"/>
       <use xlink:href="#DejaVuSans-2e" x="63.623047"/>
       <use xlink:href="#DejaVuSans-32" x="95.410156"/>
      </g>
     </g>
    </g>
    <g id="ytick_3">
     <g id="line2d_13">
      <g>
       <use xlink:href="#ma07557f59c" x="33.73" y="186.929079" style="stroke: #000000; stroke-width: 0.8"/>
      </g>
     </g>
     <g id="text_13">
      <!-- 0.4 -->
      <g transform="translate(10.826875 190.728298) scale(0.1 -0.1)">
       <defs>
        <path id="DejaVuSans-34" d="M 2419 4116 
L 825 1625 
L 2419 1625 
L 2419 4116 
z
M 2253 4666 
L 3047 4666 
L 3047 1625 
L 3713 1625 
L 3713 1100 
L 3047 1100 
L 3047 0 
L 2419 0 
L 2419 1100 
L 313 1100 
L 313 1709 
L 2253 4666 
z
" transform="scale(0.015625)"/>
       </defs>
       <use xlink:href="#DejaVuSans-30"/>
       <use xlink:href="#DejaVuSans-2e" x="63.623047"/>
       <use xlink:href="#DejaVuSans-34" x="95.410156"/>
      </g>
     </g>
    </g>
    <g id="ytick_4">
     <g id="line2d_14">
      <g>
       <use xlink:href="#ma07557f59c" x="33.73" y="137.240132" style="stroke: #000000; stroke-width: 0.8"/>
      </g>
     </g>
     <g id="text_14">
      <!-- 0.6 -->
      <g transform="translate(10.826875 141.03935) scale(0.1 -0.1)">
       <defs>
        <path id="DejaVuSans-36" d="M 2113 2584 
Q 1688 2584 1439 2293 
Q 1191 2003 1191 1497 
Q 1191 994 1439 701 
Q 1688 409 2113 409 
Q 2538 409 2786 701 
Q 3034 994 3034 1497 
Q 3034 2003 2786 2293 
Q 2538 2584 2113 2584 
z
M 3366 4563 
L 3366 3988 
Q 3128 4100 2886 4159 
Q 2644 4219 2406 4219 
Q 1781 4219 1451 3797 
Q 1122 3375 1075 2522 
Q 1259 2794 1537 2939 
Q 1816 3084 2150 3084 
Q 2853 3084 3261 2657 
Q 3669 2231 3669 1497 
Q 3669 778 3244 343 
Q 2819 -91 2113 -91 
Q 1303 -91 875 529 
Q 447 1150 447 2328 
Q 447 3434 972 4092 
Q 1497 4750 2381 4750 
Q 2619 4750 2861 4703 
Q 3103 4656 3366 4563 
z
" transform="scale(0.015625)"/>
       </defs>
       <use xlink:href="#DejaVuSans-30"/>
       <use xlink:href="#DejaVuSans-2e" x="63.623047"/>
       <use xlink:href="#DejaVuSans-36" x="95.410156"/>
      </g>
     </g>
    </g>
    <g id="ytick_5">
     <g id="line2d_15">
      <g>
       <use xlink:href="#ma07557f59c" x="33.73" y="87.551184" style="stroke: #000000; stroke-width: 0.8"/>
      </g>
     </g>
     <g id="text_15">
      <!-- 0.8 -->
      <g transform="translate(10.826875 91.350403) scale(0.1 -0.1)">
       <defs>
        <path id="DejaVuSans-38" d="M 2034 2216 
Q 1584 2216 1326 1975 
Q 1069 1734 1069 1313 
Q 1069 891 1326 650 
Q 1584 409 2034 409 
Q 2484 409 2743 651 
Q 3003 894 3003 1313 
Q 3003 1734 2745 1975 
Q 2488 2216 2034 2216 
z
M 1403 2484 
Q 997 2584 770 2862 
Q 544 3141 544 3541 
Q 544 4100 942 4425 
Q 1341 4750 2034 4750 
Q 2731 4750 3128 4425 
Q 3525 4100 3525 3541 
Q 3525 3141 3298 2862 
Q 3072 2584 2669 2484 
Q 3125 2378 3379 2068 
Q 3634 1759 3634 1313 
Q 3634 634 3220 271 
Q 2806 -91 2034 -91 
Q 1263 -91 848 271 
Q 434 634 434 1313 
Q 434 1759 690 2068 
Q 947 2378 1403 2484 
z
M 1172 3481 
Q 1172 3119 1398 2916 
Q 1625 2713 2034 2713 
Q 2441 2713 2670 2916 
Q 2900 3119 2900 3481 
Q 2900 3844 2670 4047 
Q 2441 4250 2034 4250 
Q 1625 4250 1398 4047 
Q 1172 3844 1172 3481 
z
" transform="scale(0.015625)"/>
       </defs>
       <use xlink:href="#DejaVuSans-30"/>
       <use xlink:href="#DejaVuSans-2e" x="63.623047"/>
       <use xlink:href="#DejaVuSans-38" x="95.410156"/>
      </g>
     </g>
    </g>
    <g id="ytick_6">
     <g id="line2d_16">
      <g>
       <use xlink:href="#ma07557f59c" x="33.73" y="37.862237" style="stroke: #000000; stroke-width: 0.8"/>
      </g>
     </g>
     <g id="text_16">
      <!-- 1.0 -->
      <g transform="translate(10.826875 41.661456) scale(0.1 -0.1)">
       <defs>
        <path id="DejaVuSans-31" d="M 794 531 
L 1825 531 
L 1825 4091 
L 703 3866 
L 703 4441 
L 1819 4666 
L 2450 4666 
L 2450 531 
L 3481 531 
L 3481 0 
L 794 0 
L 794 531 
z
" transform="scale(0.015625)"/>
       </defs>
       <use xlink:href="#DejaVuSans-31"/>
       <use xlink:href="#DejaVuSans-2e" x="63.623047"/>
       <use xlink:href="#DejaVuSans-30" x="95.410156"/>
      </g>
     </g>
    </g>
   </g>
   <g id="patch_33">
    <path d="M 33.73 286.306974 
L 33.73 25.44 
" style="fill: none; stroke: #000000; stroke-width: 0.8; stroke-linejoin: miter; stroke-linecap: square"/>
   </g>
   <g id="patch_34">
    <path d="M 447.109487 286.306974 
L 447.109487 25.44 
" style="fill: none; stroke: #000000; stroke-width: 0.8; stroke-linejoin: miter; stroke-linecap: square"/>
   </g>
   <g id="patch_35">
    <path d="M 33.73 286.306974 
L 447.109487 286.306974 
" style="fill: none; stroke: #000000; stroke-width: 0.8; stroke-linejoin: miter; stroke-linecap: square"/>
   </g>
   <g id="patch_36">
    <path d="M 33.73 25.44 
L 447.109487 25.44 
" style="fill: none; stroke: #000000; stroke-width: 0.8; stroke-linejoin: miter; stroke-linecap: square"/>
   </g>
   <g id="text_17">
    <!-- Top 10 Predicted Labels, by Model -->
    <g transform="translate(138.364431 19.44) scale(0.12 -0.12)">
     <defs>
      <path id="DejaVuSans-54" d="M -19 4666 
L 3928 4666 
L 3928 4134 
L 2272 4134 
L 2272 0 
L 1638 0 
L 1638 4134 
L -19 4134 
L -19 4666 
z
" transform="scale(0.015625)"/>
      <path id="DejaVuSans-70" d="M 1159 525 
L 1159 -1331 
L 581 -1331 
L 581 3500 
L 1159 3500 
L 1159 2969 
Q 1341 3281 1617 3432 
Q 1894 3584 2278 3584 
Q 2916 3584 3314 3078 
Q 3713 2572 3713 1747 
Q 3713 922 3314 415 
Q 2916 -91 2278 -91 
Q 1894 -91 1617 61 
Q 1341 213 1159 525 
z
M 3116 1747 
Q 3116 2381 2855 2742 
Q 2594 3103 2138 3103 
Q 1681 3103 1420 2742 
Q 1159 2381 1159 1747 
Q 1159 1113 1420 752 
Q 1681 391 2138 391 
Q 2594 391 2855 752 
Q 3116 1113 3116 1747 
z
" transform="scale(0.015625)"/>
      <path id="DejaVuSans-20" transform="scale(0.015625)"/>
      <path id="DejaVuSans-50" d="M 1259 4147 
L 1259 2394 
L 2053 2394 
Q 2494 2394 2734 2622 
Q 2975 2850 2975 3272 
Q 2975 3691 2734 3919 
Q 2494 4147 2053 4147 
L 1259 4147 
z
M 628 4666 
L 2053 4666 
Q 2838 4666 3239 4311 
Q 3641 3956 3641 3272 
Q 3641 2581 3239 2228 
Q 2838 1875 2053 1875 
L 1259 1875 
L 1259 0 
L 628 0 
L 628 4666 
z
" transform="scale(0.015625)"/>
      <path id="DejaVuSans-4c" d="M 628 4666 
L 1259 4666 
L 1259 531 
L 3531 531 
L 3531 0 
L 628 0 
L 628 4666 
z
" transform="scale(0.015625)"/>
      <path id="DejaVuSans-2c" d="M 750 794 
L 1409 794 
L 1409 256 
L 897 -744 
L 494 -744 
L 750 256 
L 750 794 
z
" transform="scale(0.015625)"/>
      <path id="DejaVuSans-4d" d="M 628 4666 
L 1569 4666 
L 2759 1491 
L 3956 4666 
L 4897 4666 
L 4897 0 
L 4281 0 
L 4281 4097 
L 3078 897 
L 2444 897 
L 1241 4097 
L 1241 0 
L 628 0 
L 628 4666 
z
" transform="scale(0.015625)"/>
     </defs>
     <use xlink:href="#DejaVuSans-54"/>
     <use xlink:href="#DejaVuSans-6f" x="44.083984"/>
     <use xlink:href="#DejaVuSans-70" x="105.265625"/>
     <use xlink:href="#DejaVuSans-20" x="168.742188"/>
     <use xlink:href="#DejaVuSans-31" x="200.529297"/>
     <use xlink:href="#DejaVuSans-30" x="264.152344"/>
     <use xlink:href="#DejaVuSans-20" x="327.775391"/>
     <use xlink:href="#DejaVuSans-50" x="359.5625"/>
     <use xlink:href="#DejaVuSans-72" x="418.115234"/>
     <use xlink:href="#DejaVuSans-65" x="456.978516"/>
     <use xlink:href="#DejaVuSans-64" x="518.501953"/>
     <use xlink:href="#DejaVuSans-69" x="581.978516"/>
     <use xlink:href="#DejaVuSans-63" x="609.761719"/>
     <use xlink:href="#DejaVuSans-74" x="664.742188"/>
     <use xlink:href="#DejaVuSans-65" x="703.951172"/>
     <use xlink:href="#DejaVuSans-64" x="765.474609"/>
     <use xlink:href="#DejaVuSans-20" x="828.951172"/>
     <use xlink:href="#DejaVuSans-4c" x="860.738281"/>
     <use xlink:href="#DejaVuSans-61" x="916.451172"/>
     <use xlink:href="#DejaVuSans-62" x="977.730469"/>
     <use xlink:href="#DejaVuSans-65" x="1041.207031"/>
     <use xlink:href="#DejaVuSans-6c" x="1102.730469"/>
     <use xlink:href="#DejaVuSans-73" x="1130.513672"/>
     <use xlink:href="#DejaVuSans-2c" x="1182.613281"/>
     <use xlink:href="#DejaVuSans-20" x="1214.400391"/>
     <use xlink:href="#DejaVuSans-62" x="1246.1875"/>
     <use xlink:href="#DejaVuSans-79" x="1309.664062"/>
     <use xlink:href="#DejaVuSans-20" x="1368.84375"/>
     <use xlink:href="#DejaVuSans-4d" x="1400.630859"/>
     <use xlink:href="#DejaVuSans-6f" x="1486.910156"/>
     <use xlink:href="#DejaVuSans-64" x="1548.091797"/>
     <use xlink:href="#DejaVuSans-65" x="1611.568359"/>
     <use xlink:href="#DejaVuSans-6c" x="1673.091797"/>
    </g>
   </g>
   <g id="legend_1">
    <g id="patch_37">
     <path d="M 313.184487 77.474375 
L 440.109487 77.474375 
Q 442.109487 77.474375 442.109487 75.474375 
L 442.109487 32.44 
Q 442.109487 30.44 440.109487 30.44 
L 313.184487 30.44 
Q 311.184487 30.44 311.184487 32.44 
L 311.184487 75.474375 
Q 311.184487 77.474375 313.184487 77.474375 
z
" style="fill: #ffffff; opacity: 0.8; stroke: #cccccc; stroke-linejoin: miter"/>
    </g>
    <g id="patch_38">
     <path d="M 315.184487 42.038437 
L 335.184487 42.038437 
L 335.184487 35.038437 
L 315.184487 35.038437 
z
" style="fill: #1f77b4"/>
    </g>
    <g id="text_18">
     <!-- MPNN-GNN -->
     <g transform="translate(343.184487 42.038437) scale(0.1 -0.1)">
      <defs>
       <path id="DejaVuSans-4e" d="M 628 4666 
L 1478 4666 
L 3547 763 
L 3547 4666 
L 4159 4666 
L 4159 0 
L 3309 0 
L 1241 3903 
L 1241 0 
L 628 0 
L 628 4666 
z
" transform="scale(0.015625)"/>
       <path id="DejaVuSans-2d" d="M 313 2009 
L 1997 2009 
L 1997 1497 
L 313 1497 
L 313 2009 
z
" transform="scale(0.015625)"/>
       <path id="DejaVuSans-47" d="M 3809 666 
L 3809 1919 
L 2778 1919 
L 2778 2438 
L 4434 2438 
L 4434 434 
Q 4069 175 3628 42 
Q 3188 -91 2688 -91 
Q 1594 -91 976 548 
Q 359 1188 359 2328 
Q 359 3472 976 4111 
Q 1594 4750 2688 4750 
Q 3144 4750 3555 4637 
Q 3966 4525 4313 4306 
L 4313 3634 
Q 3963 3931 3569 4081 
Q 3175 4231 2741 4231 
Q 1884 4231 1454 3753 
Q 1025 3275 1025 2328 
Q 1025 1384 1454 906 
Q 1884 428 2741 428 
Q 3075 428 3337 486 
Q 3600 544 3809 666 
z
" transform="scale(0.015625)"/>
      </defs>
      <use xlink:href="#DejaVuSans-4d"/>
      <use xlink:href="#DejaVuSans-50" x="86.279297"/>
      <use xlink:href="#DejaVuSans-4e" x="146.582031"/>
      <use xlink:href="#DejaVuSans-4e" x="221.386719"/>
      <use xlink:href="#DejaVuSans-2d" x="296.191406"/>
      <use xlink:href="#DejaVuSans-47" x="335.900391"/>
      <use xlink:href="#DejaVuSans-4e" x="413.390625"/>
      <use xlink:href="#DejaVuSans-4e" x="488.195312"/>
     </g>
    </g>
    <g id="patch_39">
     <path d="M 315.184487 56.716562 
L 335.184487 56.716562 
L 335.184487 49.716562 
L 315.184487 49.716562 
z
" style="fill: #ff7f0e"/>
    </g>
    <g id="text_19">
     <!-- GIN-GNN -->
     <g transform="translate(343.184487 56.716562) scale(0.1 -0.1)">
      <defs>
       <path id="DejaVuSans-49" d="M 628 4666 
L 1259 4666 
L 1259 0 
L 628 0 
L 628 4666 
z
" transform="scale(0.015625)"/>
      </defs>
      <use xlink:href="#DejaVuSans-47"/>
      <use xlink:href="#DejaVuSans-49" x="77.490234"/>
      <use xlink:href="#DejaVuSans-4e" x="106.982422"/>
      <use xlink:href="#DejaVuSans-2d" x="181.787109"/>
      <use xlink:href="#DejaVuSans-47" x="221.496094"/>
      <use xlink:href="#DejaVuSans-4e" x="298.986328"/>
      <use xlink:href="#DejaVuSans-4e" x="373.791016"/>
     </g>
    </g>
    <g id="patch_40">
     <path d="M 315.184487 71.394687 
L 335.184487 71.394687 
L 335.184487 64.394687 
L 315.184487 64.394687 
z
" style="fill: #2ca02c"/>
    </g>
    <g id="text_20">
     <!-- Morgan Fingerprint -->
     <g transform="translate(343.184487 71.394687) scale(0.1 -0.1)">
      <defs>
       <path id="DejaVuSans-67" d="M 2906 1791 
Q 2906 2416 2648 2759 
Q 2391 3103 1925 3103 
Q 1463 3103 1205 2759 
Q 947 2416 947 1791 
Q 947 1169 1205 825 
Q 1463 481 1925 481 
Q 2391 481 2648 825 
Q 2906 1169 2906 1791 
z
M 3481 434 
Q 3481 -459 3084 -895 
Q 2688 -1331 1869 -1331 
Q 1566 -1331 1297 -1286 
Q 1028 -1241 775 -1147 
L 775 -588 
Q 1028 -725 1275 -790 
Q 1522 -856 1778 -856 
Q 2344 -856 2625 -561 
Q 2906 -266 2906 331 
L 2906 616 
Q 2728 306 2450 153 
Q 2172 0 1784 0 
Q 1141 0 747 490 
Q 353 981 353 1791 
Q 353 2603 747 3093 
Q 1141 3584 1784 3584 
Q 2172 3584 2450 3431 
Q 2728 3278 2906 2969 
L 2906 3500 
L 3481 3500 
L 3481 434 
z
" transform="scale(0.015625)"/>
       <path id="DejaVuSans-46" d="M 628 4666 
L 3309 4666 
L 3309 4134 
L 1259 4134 
L 1259 2759 
L 3109 2759 
L 3109 2228 
L 1259 2228 
L 1259 0 
L 628 0 
L 628 4666 
z
" transform="scale(0.015625)"/>
      </defs>
      <use xlink:href="#DejaVuSans-4d"/>
      <use xlink:href="#DejaVuSans-6f" x="86.279297"/>
      <use xlink:href="#DejaVuSans-72" x="147.460938"/>
      <use xlink:href="#DejaVuSans-67" x="186.824219"/>
      <use xlink:href="#DejaVuSans-61" x="250.300781"/>
      <use xlink:href="#DejaVuSans-6e" x="311.580078"/>
      <use xlink:href="#DejaVuSans-20" x="374.958984"/>
      <use xlink:href="#DejaVuSans-46" x="406.746094"/>
      <use xlink:href="#DejaVuSans-69" x="457.015625"/>
      <use xlink:href="#DejaVuSans-6e" x="484.798828"/>
      <use xlink:href="#DejaVuSans-67" x="548.177734"/>
      <use xlink:href="#DejaVuSans-65" x="611.654297"/>
      <use xlink:href="#DejaVuSans-72" x="673.177734"/>
      <use xlink:href="#DejaVuSans-70" x="714.291016"/>
      <use xlink:href="#DejaVuSans-72" x="777.767578"/>
      <use xlink:href="#DejaVuSans-69" x="818.880859"/>
      <use xlink:href="#DejaVuSans-6e" x="846.664062"/>
      <use xlink:href="#DejaVuSans-74" x="910.042969"/>
     </g>
    </g>
   </g>
  </g>
 </g>
 <defs>
  <clipPath id="p5dcf50f6ba">
   <rect x="33.73" y="25.44" width="413.379487" height="260.866974"/>
  </clipPath>
 </defs>
</svg>
