<?xml version="1.0" encoding="utf-8" standalone="no"?>
<!DOCTYPE svg PUBLIC "-//W3C//DTD SVG 1.1//EN"
  "http://www.w3.org/Graphics/SVG/1.1/DTD/svg11.dtd">
<svg xmlns:xlink="http://www.w3.org/1999/xlink" width="712.8pt" height="712.8pt" viewBox="0 0 712.8 712.8" xmlns="http://www.w3.org/2000/svg" version="1.1">
 <metadata>
  <rdf:RDF xmlns:dc="http://purl.org/dc/elements/1.1/" xmlns:cc="http://creativecommons.org/ns#" xmlns:rdf="http://www.w3.org/1999/02/22-rdf-syntax-ns#">
   <cc:Work>
    <dc:type rdf:resource="http://purl.org/dc/dcmitype/StillImage"/>
    <dc:date>2024-05-15T15:55:40.112907</dc:date>
    <dc:format>image/svg+xml</dc:format>
    <dc:creator>
     <cc:Agent>
      <dc:title>Matplotlib v3.7.1, https://matplotlib.org/</dc:title>
     </cc:Agent>
    </dc:creator>
   </cc:Work>
  </rdf:RDF>
 </metadata>
 <defs>
  <style type="text/css">*{stroke-linejoin: round; stroke-linecap: butt}</style>
 </defs>
 <g id="figure_1">
  <g id="patch_1">
   <path d="M 0 712.8 
L 712.8 712.8 
L 712.8 0 
L 0 0 
z
" style="fill: #ffffff"/>
  </g>
  <g id="axes_1">
   <g id="LineCollection_1">
    <path d="M 356.4 644.995041 
L 227.963117 616.415142 
" clip-path="url(#p30b72da90f)" style="fill: none; stroke: #a9a9a9; stroke-opacity: 0.75; stroke-width: 2"/>
    <path d="M 356.4 644.995041 
L 356.399974 67.804959 
" clip-path="url(#p30b72da90f)" style="fill: none; stroke: #a9a9a9; stroke-opacity: 0.75; stroke-width: 2"/>
    <path d="M 356.4 644.995041 
L 484.836883 616.415142 
" clip-path="url(#p30b72da90f)" style="fill: none; stroke-dasharray: 5.55,2.4; stroke-dashoffset: 0; stroke: #4682b4; stroke-opacity: 0.75; stroke-width: 1.5"/>
    <path d="M 356.4 644.995041 
L 644.995041 292.181558 
" clip-path="url(#p30b72da90f)" style="fill: none; stroke-dasharray: 5.55,2.4; stroke-dashoffset: 0; stroke: #4682b4; stroke-opacity: 0.75; stroke-width: 1.5"/>
    <path d="M 356.4 644.995041 
L 644.995041 420.618451 
" clip-path="url(#p30b72da90f)" style="fill: none; stroke-dasharray: 5.55,2.4; stroke-dashoffset: 0; stroke: #4682b4; stroke-opacity: 0.75; stroke-width: 1.5"/>
    <path d="M 356.4 644.995041 
L 587.835262 176.463936 
" clip-path="url(#p30b72da90f)" style="fill: none; stroke-dasharray: 5.55,2.4; stroke-dashoffset: 0; stroke: #4682b4; stroke-opacity: 0.75; stroke-width: 1.5"/>
    <path d="M 356.4 644.995041 
L 227.963117 96.384858 
" clip-path="url(#p30b72da90f)" style="fill: none; stroke: #a9a9a9; stroke-opacity: 0.75; stroke-width: 2"/>
    <path d="M 356.4 644.995041 
L 67.804959 292.181541 
" clip-path="url(#p30b72da90f)" style="fill: none; stroke: #a9a9a9; stroke-opacity: 0.75; stroke-width: 2"/>
    <path d="M 356.4 644.995041 
L 484.8369 96.384858 
" clip-path="url(#p30b72da90f)" style="fill: none; stroke-dasharray: 5.55,2.4; stroke-dashoffset: 0; stroke: #4682b4; stroke-opacity: 0.75; stroke-width: 1.5"/>
    <path d="M 356.4 644.995041 
L 124.964702 176.463988 
" clip-path="url(#p30b72da90f)" style="fill: none; stroke: #a9a9a9; stroke-opacity: 0.75; stroke-width: 2"/>
    <path d="M 356.4 644.995041 
L 67.804959 420.618468 
" clip-path="url(#p30b72da90f)" style="fill: none; stroke: #a9a9a9; stroke-opacity: 0.75; stroke-width: 2"/>
    <path d="M 484.836883 616.415142 
L 227.963117 616.415142 
" clip-path="url(#p30b72da90f)" style="fill: none; stroke: #a9a9a9; stroke-opacity: 0.75; stroke-width: 2"/>
    <path d="M 484.836883 616.415142 
L 356.399974 67.804959 
" clip-path="url(#p30b72da90f)" style="fill: none; stroke: #a9a9a9; stroke-opacity: 0.75; stroke-width: 2"/>
    <path d="M 484.836883 616.415142 
L 644.995041 292.181558 
" clip-path="url(#p30b72da90f)" style="fill: none; stroke-dasharray: 5.55,2.4; stroke-dashoffset: 0; stroke: #4682b4; stroke-opacity: 0.75; stroke-width: 1.5"/>
    <path d="M 484.836883 616.415142 
L 227.963117 96.384858 
" clip-path="url(#p30b72da90f)" style="fill: none; stroke: #a9a9a9; stroke-opacity: 0.75; stroke-width: 2"/>
    <path d="M 484.836883 616.415142 
L 484.8369 96.384858 
" clip-path="url(#p30b72da90f)" style="fill: none; stroke-dasharray: 5.55,2.4; stroke-dashoffset: 0; stroke: #4682b4; stroke-opacity: 0.75; stroke-width: 1.5"/>
    <path d="M 484.836883 616.415142 
L 644.995041 420.618451 
" clip-path="url(#p30b72da90f)" style="fill: none; stroke-dasharray: 5.55,2.4; stroke-dashoffset: 0; stroke: #4682b4; stroke-opacity: 0.75; stroke-width: 1.5"/>
    <path d="M 484.836883 616.415142 
L 587.835262 176.463936 
" clip-path="url(#p30b72da90f)" style="fill: none; stroke-dasharray: 5.55,2.4; stroke-dashoffset: 0; stroke: #4682b4; stroke-opacity: 0.75; stroke-width: 1.5"/>
    <path d="M 484.836883 616.415142 
L 67.804959 292.181541 
" clip-path="url(#p30b72da90f)" style="fill: none; stroke: #a9a9a9; stroke-opacity: 0.75; stroke-width: 2"/>
    <path d="M 484.836883 616.415142 
L 67.804959 420.618468 
" clip-path="url(#p30b72da90f)" style="fill: none; stroke: #a9a9a9; stroke-opacity: 0.75; stroke-width: 2"/>
    <path d="M 484.836883 616.415142 
L 124.964702 176.463988 
" clip-path="url(#p30b72da90f)" style="fill: none; stroke: #a9a9a9; stroke-opacity: 0.75; stroke-width: 2"/>
    <path d="M 484.836883 616.415142 
L 587.835262 536.336064 
" clip-path="url(#p30b72da90f)" style="fill: none; stroke-dasharray: 5.55,2.4; stroke-dashoffset: 0; stroke: #4682b4; stroke-opacity: 0.75; stroke-width: 1.5"/>
    <path d="M 484.836883 616.415142 
L 124.964702 536.336012 
" clip-path="url(#p30b72da90f)" style="fill: none; stroke: #a9a9a9; stroke-opacity: 0.75; stroke-width: 2"/>
    <path d="M 587.835262 536.336064 
L 227.963117 616.415142 
" clip-path="url(#p30b72da90f)" style="fill: none; stroke: #a9a9a9; stroke-opacity: 0.75; stroke-width: 2"/>
    <path d="M 587.835262 536.336064 
L 356.399974 67.804959 
" clip-path="url(#p30b72da90f)" style="fill: none; stroke: #a9a9a9; stroke-opacity: 0.75; stroke-width: 2"/>
    <path d="M 587.835262 536.336064 
L 644.995041 292.181558 
" clip-path="url(#p30b72da90f)" style="fill: none; stroke-dasharray: 5.55,2.4; stroke-dashoffset: 0; stroke: #4682b4; stroke-opacity: 0.75; stroke-width: 1.5"/>
    <path d="M 587.835262 536.336064 
L 644.995041 420.618451 
" clip-path="url(#p30b72da90f)" style="fill: none; stroke-dasharray: 5.55,2.4; stroke-dashoffset: 0; stroke: #4682b4; stroke-opacity: 0.75; stroke-width: 1.5"/>
    <path d="M 587.835262 536.336064 
L 587.835262 176.463936 
" clip-path="url(#p30b72da90f)" style="fill: none; stroke-dasharray: 5.55,2.4; stroke-dashoffset: 0; stroke: #4682b4; stroke-opacity: 0.75; stroke-width: 1.5"/>
    <path d="M 587.835262 536.336064 
L 227.963117 96.384858 
" clip-path="url(#p30b72da90f)" style="fill: none; stroke: #a9a9a9; stroke-opacity: 0.75; stroke-width: 2"/>
    <path d="M 587.835262 536.336064 
L 67.804959 292.181541 
" clip-path="url(#p30b72da90f)" style="fill: none; stroke: #a9a9a9; stroke-opacity: 0.75; stroke-width: 2"/>
    <path d="M 587.835262 536.336064 
L 484.8369 96.384858 
" clip-path="url(#p30b72da90f)" style="fill: none; stroke-dasharray: 5.55,2.4; stroke-dashoffset: 0; stroke: #4682b4; stroke-opacity: 0.75; stroke-width: 1.5"/>
    <path d="M 587.835262 536.336064 
L 124.964702 176.463988 
" clip-path="url(#p30b72da90f)" style="fill: none; stroke: #a9a9a9; stroke-opacity: 0.75; stroke-width: 2"/>
    <path d="M 587.835262 536.336064 
L 124.964702 536.336012 
" clip-path="url(#p30b72da90f)" style="fill: none; stroke: #a9a9a9; stroke-opacity: 0.75; stroke-width: 2"/>
    <path d="M 587.835262 536.336064 
L 67.804959 420.618468 
" clip-path="url(#p30b72da90f)" style="fill: none; stroke: #a9a9a9; stroke-opacity: 0.75; stroke-width: 2"/>
    <path d="M 644.995041 420.618451 
L 227.963117 616.415142 
" clip-path="url(#p30b72da90f)" style="fill: none; stroke: #a9a9a9; stroke-opacity: 0.75; stroke-width: 2"/>
    <path d="M 644.995041 420.618451 
L 356.399974 67.804959 
" clip-path="url(#p30b72da90f)" style="fill: none; stroke: #a9a9a9; stroke-opacity: 0.75; stroke-width: 2"/>
    <path d="M 644.995041 420.618451 
L 644.995041 292.181558 
" clip-path="url(#p30b72da90f)" style="fill: none; stroke-dasharray: 5.55,2.4; stroke-dashoffset: 0; stroke: #4682b4; stroke-opacity: 0.75; stroke-width: 1.5"/>
    <path d="M 644.995041 420.618451 
L 227.963117 96.384858 
" clip-path="url(#p30b72da90f)" style="fill: none; stroke: #a9a9a9; stroke-opacity: 0.75; stroke-width: 2"/>
    <path d="M 644.995041 420.618451 
L 484.8369 96.384858 
" clip-path="url(#p30b72da90f)" style="fill: none; stroke-dasharray: 5.55,2.4; stroke-dashoffset: 0; stroke: #4682b4; stroke-opacity: 0.75; stroke-width: 1.5"/>
    <path d="M 644.995041 420.618451 
L 67.804959 292.181541 
" clip-path="url(#p30b72da90f)" style="fill: none; stroke: #a9a9a9; stroke-opacity: 0.75; stroke-width: 2"/>
    <path d="M 644.995041 420.618451 
L 67.804959 420.618468 
" clip-path="url(#p30b72da90f)" style="fill: none; stroke: #a9a9a9; stroke-opacity: 0.75; stroke-width: 2"/>
    <path d="M 644.995041 420.618451 
L 124.964702 536.336012 
" clip-path="url(#p30b72da90f)" style="fill: none; stroke: #a9a9a9; stroke-opacity: 0.75; stroke-width: 2"/>
    <path d="M 644.995041 420.618451 
L 587.835262 176.463936 
" clip-path="url(#p30b72da90f)" style="fill: none; stroke-dasharray: 5.55,2.4; stroke-dashoffset: 0; stroke: #4682b4; stroke-opacity: 0.75; stroke-width: 1.5"/>
    <path d="M 644.995041 420.618451 
L 124.964702 176.463988 
" clip-path="url(#p30b72da90f)" style="fill: none; stroke: #a9a9a9; stroke-opacity: 0.75; stroke-width: 2"/>
    <path d="M 644.995041 292.181558 
L 227.963117 616.415142 
" clip-path="url(#p30b72da90f)" style="fill: none; stroke: #a9a9a9; stroke-opacity: 0.75; stroke-width: 2"/>
    <path d="M 644.995041 292.181558 
L 356.399974 67.804959 
" clip-path="url(#p30b72da90f)" style="fill: none; stroke: #a9a9a9; stroke-opacity: 0.75; stroke-width: 2"/>
    <path d="M 644.995041 292.181558 
L 124.964702 536.336012 
" clip-path="url(#p30b72da90f)" style="fill: none; stroke: #a9a9a9; stroke-opacity: 0.75; stroke-width: 2"/>
    <path d="M 644.995041 292.181558 
L 587.835262 176.463936 
" clip-path="url(#p30b72da90f)" style="fill: none; stroke-dasharray: 5.55,2.4; stroke-dashoffset: 0; stroke: #4682b4; stroke-opacity: 0.75; stroke-width: 1.5"/>
    <path d="M 644.995041 292.181558 
L 227.963117 96.384858 
" clip-path="url(#p30b72da90f)" style="fill: none; stroke: #a9a9a9; stroke-opacity: 0.75; stroke-width: 2"/>
    <path d="M 644.995041 292.181558 
L 67.804959 292.181541 
" clip-path="url(#p30b72da90f)" style="fill: none; stroke: #a9a9a9; stroke-opacity: 0.75; stroke-width: 2"/>
    <path d="M 644.995041 292.181558 
L 67.804959 420.618468 
" clip-path="url(#p30b72da90f)" style="fill: none; stroke: #a9a9a9; stroke-opacity: 0.75; stroke-width: 2"/>
    <path d="M 644.995041 292.181558 
L 484.8369 96.384858 
" clip-path="url(#p30b72da90f)" style="fill: none; stroke-dasharray: 5.55,2.4; stroke-dashoffset: 0; stroke: #4682b4; stroke-opacity: 0.75; stroke-width: 1.5"/>
    <path d="M 644.995041 292.181558 
L 124.964702 176.463988 
" clip-path="url(#p30b72da90f)" style="fill: none; stroke: #a9a9a9; stroke-opacity: 0.75; stroke-width: 2"/>
    <path d="M 587.835262 176.463936 
L 227.963117 616.415142 
" clip-path="url(#p30b72da90f)" style="fill: none; stroke: #a9a9a9; stroke-opacity: 0.75; stroke-width: 2"/>
    <path d="M 587.835262 176.463936 
L 356.399974 67.804959 
" clip-path="url(#p30b72da90f)" style="fill: none; stroke: #a9a9a9; stroke-opacity: 0.75; stroke-width: 2"/>
    <path d="M 587.835262 176.463936 
L 227.963117 96.384858 
" clip-path="url(#p30b72da90f)" style="fill: none; stroke: #a9a9a9; stroke-opacity: 0.75; stroke-width: 2"/>
    <path d="M 587.835262 176.463936 
L 484.8369 96.384858 
" clip-path="url(#p30b72da90f)" style="fill: none; stroke-dasharray: 5.55,2.4; stroke-dashoffset: 0; stroke: #4682b4; stroke-opacity: 0.75; stroke-width: 1.5"/>
    <path d="M 587.835262 176.463936 
L 67.804959 292.181541 
" clip-path="url(#p30b72da90f)" style="fill: none; stroke: #a9a9a9; stroke-opacity: 0.75; stroke-width: 2"/>
    <path d="M 587.835262 176.463936 
L 124.964702 176.463988 
" clip-path="url(#p30b72da90f)" style="fill: none; stroke: #a9a9a9; stroke-opacity: 0.75; stroke-width: 2"/>
    <path d="M 587.835262 176.463936 
L 124.964702 536.336012 
" clip-path="url(#p30b72da90f)" style="fill: none; stroke: #a9a9a9; stroke-opacity: 0.75; stroke-width: 2"/>
    <path d="M 484.8369 96.384858 
L 227.963117 616.415142 
" clip-path="url(#p30b72da90f)" style="fill: none; stroke: #a9a9a9; stroke-opacity: 0.75; stroke-width: 2"/>
    <path d="M 484.8369 96.384858 
L 356.399974 67.804959 
" clip-path="url(#p30b72da90f)" style="fill: none; stroke: #a9a9a9; stroke-opacity: 0.75; stroke-width: 2"/>
    <path d="M 484.8369 96.384858 
L 227.963117 96.384858 
" clip-path="url(#p30b72da90f)" style="fill: none; stroke: #a9a9a9; stroke-opacity: 0.75; stroke-width: 2"/>
    <path d="M 484.8369 96.384858 
L 67.804959 292.181541 
" clip-path="url(#p30b72da90f)" style="fill: none; stroke: #a9a9a9; stroke-opacity: 0.75; stroke-width: 2"/>
    <path d="M 484.8369 96.384858 
L 124.964702 536.336012 
" clip-path="url(#p30b72da90f)" style="fill: none; stroke: #a9a9a9; stroke-opacity: 0.75; stroke-width: 2"/>
    <path d="M 484.8369 96.384858 
L 67.804959 420.618468 
" clip-path="url(#p30b72da90f)" style="fill: none; stroke: #a9a9a9; stroke-opacity: 0.75; stroke-width: 2"/>
    <path d="M 484.8369 96.384858 
L 124.964702 176.463988 
" clip-path="url(#p30b72da90f)" style="fill: none; stroke: #a9a9a9; stroke-opacity: 0.75; stroke-width: 2"/>
    <path d="M 356.399974 67.804959 
L 227.963117 616.415142 
" clip-path="url(#p30b72da90f)" style="fill: none; stroke-dasharray: 5.55,2.4; stroke-dashoffset: 0; stroke: #fa8072; stroke-opacity: 0.75; stroke-width: 1.5"/>
    <path d="M 356.399974 67.804959 
L 227.963117 96.384858 
" clip-path="url(#p30b72da90f)" style="fill: none; stroke-dasharray: 5.55,2.4; stroke-dashoffset: 0; stroke: #fa8072; stroke-opacity: 0.75; stroke-width: 1.5"/>
    <path d="M 356.399974 67.804959 
L 67.804959 292.181541 
" clip-path="url(#p30b72da90f)" style="fill: none; stroke-dasharray: 5.55,2.4; stroke-dashoffset: 0; stroke: #fa8072; stroke-opacity: 0.75; stroke-width: 1.5"/>
    <path d="M 356.399974 67.804959 
L 67.804959 420.618468 
" clip-path="url(#p30b72da90f)" style="fill: none; stroke-dasharray: 5.55,2.4; stroke-dashoffset: 0; stroke: #fa8072; stroke-opacity: 0.75; stroke-width: 1.5"/>
    <path d="M 356.399974 67.804959 
L 124.964702 536.336012 
" clip-path="url(#p30b72da90f)" style="fill: none; stroke-dasharray: 5.55,2.4; stroke-dashoffset: 0; stroke: #fa8072; stroke-opacity: 0.75; stroke-width: 1.5"/>
    <path d="M 356.399974 67.804959 
L 124.964702 176.463988 
" clip-path="url(#p30b72da90f)" style="fill: none; stroke-dasharray: 5.55,2.4; stroke-dashoffset: 0; stroke: #fa8072; stroke-opacity: 0.75; stroke-width: 1.5"/>
    <path d="M 227.963117 96.384858 
L 227.963117 616.415142 
" clip-path="url(#p30b72da90f)" style="fill: none; stroke-dasharray: 5.55,2.4; stroke-dashoffset: 0; stroke: #fa8072; stroke-opacity: 0.75; stroke-width: 1.5"/>
    <path d="M 227.963117 96.384858 
L 124.964702 536.336012 
" clip-path="url(#p30b72da90f)" style="fill: none; stroke-dasharray: 5.55,2.4; stroke-dashoffset: 0; stroke: #fa8072; stroke-opacity: 0.75; stroke-width: 1.5"/>
    <path d="M 227.963117 96.384858 
L 67.804959 292.181541 
" clip-path="url(#p30b72da90f)" style="fill: none; stroke-dasharray: 5.55,2.4; stroke-dashoffset: 0; stroke: #fa8072; stroke-opacity: 0.75; stroke-width: 1.5"/>
    <path d="M 227.963117 96.384858 
L 67.804959 420.618468 
" clip-path="url(#p30b72da90f)" style="fill: none; stroke-dasharray: 5.55,2.4; stroke-dashoffset: 0; stroke: #fa8072; stroke-opacity: 0.75; stroke-width: 1.5"/>
    <path d="M 227.963117 96.384858 
L 124.964702 176.463988 
" clip-path="url(#p30b72da90f)" style="fill: none; stroke-dasharray: 5.55,2.4; stroke-dashoffset: 0; stroke: #fa8072; stroke-opacity: 0.75; stroke-width: 1.5"/>
    <path d="M 124.964702 176.463988 
L 227.963117 616.415142 
" clip-path="url(#p30b72da90f)" style="fill: none; stroke-dasharray: 5.55,2.4; stroke-dashoffset: 0; stroke: #fa8072; stroke-opacity: 0.75; stroke-width: 1.5"/>
    <path d="M 124.964702 176.463988 
L 67.804959 292.181541 
" clip-path="url(#p30b72da90f)" style="fill: none; stroke-dasharray: 5.55,2.4; stroke-dashoffset: 0; stroke: #fa8072; stroke-opacity: 0.75; stroke-width: 1.5"/>
    <path d="M 124.964702 176.463988 
L 67.804959 420.618468 
" clip-path="url(#p30b72da90f)" style="fill: none; stroke-dasharray: 5.55,2.4; stroke-dashoffset: 0; stroke: #fa8072; stroke-opacity: 0.75; stroke-width: 1.5"/>
    <path d="M 67.804959 292.181541 
L 227.963117 616.415142 
" clip-path="url(#p30b72da90f)" style="fill: none; stroke-dasharray: 5.55,2.4; stroke-dashoffset: 0; stroke: #fa8072; stroke-opacity: 0.75; stroke-width: 1.5"/>
    <path d="M 67.804959 292.181541 
L 124.964702 536.336012 
" clip-path="url(#p30b72da90f)" style="fill: none; stroke-dasharray: 5.55,2.4; stroke-dashoffset: 0; stroke: #fa8072; stroke-opacity: 0.75; stroke-width: 1.5"/>
    <path d="M 67.804959 292.181541 
L 67.804959 420.618468 
" clip-path="url(#p30b72da90f)" style="fill: none; stroke-dasharray: 5.55,2.4; stroke-dashoffset: 0; stroke: #fa8072; stroke-opacity: 0.75; stroke-width: 1.5"/>
    <path d="M 67.804959 420.618468 
L 124.964702 536.336012 
" clip-path="url(#p30b72da90f)" style="fill: none; stroke-dasharray: 5.55,2.4; stroke-dashoffset: 0; stroke: #fa8072; stroke-opacity: 0.75; stroke-width: 1.5"/>
    <path d="M 124.964702 536.336012 
L 227.963117 616.415142 
" clip-path="url(#p30b72da90f)" style="fill: none; stroke-dasharray: 5.55,2.4; stroke-dashoffset: 0; stroke: #fa8072; stroke-opacity: 0.75; stroke-width: 1.5"/>
   </g>
   <g id="matplotlib.axis_1">
    <g id="xtick_1"/>
    <g id="xtick_2"/>
    <g id="xtick_3"/>
    <g id="xtick_4"/>
    <g id="xtick_5"/>
   </g>
   <g id="matplotlib.axis_2">
    <g id="ytick_1"/>
    <g id="ytick_2"/>
    <g id="ytick_3"/>
    <g id="ytick_4"/>
    <g id="ytick_5"/>
   </g>
   <g id="PathCollection_1">
    <defs>
     <path id="m69bb619f2b" d="M 0 3.162278 
C 0.838646 3.162278 1.643056 2.82908 2.236068 2.236068 
C 2.82908 1.643056 3.162278 0.838646 3.162278 0 
C 3.162278 -0.838646 2.82908 -1.643056 2.236068 -2.236068 
C 1.643056 -2.82908 0.838646 -3.162278 0 -3.162278 
C -0.838646 -3.162278 -1.643056 -2.82908 -2.236068 -2.236068 
C -2.82908 -1.643056 -3.162278 -0.838646 -3.162278 0 
C -3.162278 0.838646 -2.82908 1.643056 -2.236068 2.236068 
C -1.643056 2.82908 -0.838646 3.162278 0 3.162278 
z
" style="stroke: #0000ff"/>
    </defs>
    <g clip-path="url(#p30b72da90f)">
     <use xlink:href="#m69bb619f2b" x="356.4" y="644.995041" style="fill: #0000ff; stroke: #0000ff"/>
     <use xlink:href="#m69bb619f2b" x="484.836883" y="616.415142" style="fill: #0000ff; stroke: #0000ff"/>
     <use xlink:href="#m69bb619f2b" x="587.835262" y="536.336064" style="fill: #0000ff; stroke: #0000ff"/>
     <use xlink:href="#m69bb619f2b" x="644.995041" y="420.618451" style="fill: #0000ff; stroke: #0000ff"/>
     <use xlink:href="#m69bb619f2b" x="644.995041" y="292.181558" style="fill: #0000ff; stroke: #0000ff"/>
     <use xlink:href="#m69bb619f2b" x="587.835262" y="176.463936" style="fill: #0000ff; stroke: #0000ff"/>
     <use xlink:href="#m69bb619f2b" x="484.8369" y="96.384858" style="fill: #0000ff; stroke: #0000ff"/>
    </g>
   </g>
   <g id="PathCollection_2">
    <defs>
     <path id="mad7a8cc48b" d="M 0 3.162278 
C 0.838646 3.162278 1.643056 2.82908 2.236068 2.236068 
C 2.82908 1.643056 3.162278 0.838646 3.162278 0 
C 3.162278 -0.838646 2.82908 -1.643056 2.236068 -2.236068 
C 1.643056 -2.82908 0.838646 -3.162278 0 -3.162278 
C -0.838646 -3.162278 -1.643056 -2.82908 -2.236068 -2.236068 
C -2.82908 -1.643056 -3.162278 -0.838646 -3.162278 0 
C -3.162278 0.838646 -2.82908 1.643056 -2.236068 2.236068 
C -1.643056 2.82908 -0.838646 3.162278 0 3.162278 
z
" style="stroke: #ff0000"/>
    </defs>
    <g clip-path="url(#p30b72da90f)">
     <use xlink:href="#mad7a8cc48b" x="356.399974" y="67.804959" style="fill: #ff0000; stroke: #ff0000"/>
     <use xlink:href="#mad7a8cc48b" x="227.963117" y="96.384858" style="fill: #ff0000; stroke: #ff0000"/>
     <use xlink:href="#mad7a8cc48b" x="124.964702" y="176.463988" style="fill: #ff0000; stroke: #ff0000"/>
     <use xlink:href="#mad7a8cc48b" x="67.804959" y="292.181541" style="fill: #ff0000; stroke: #ff0000"/>
     <use xlink:href="#mad7a8cc48b" x="67.804959" y="420.618468" style="fill: #ff0000; stroke: #ff0000"/>
     <use xlink:href="#mad7a8cc48b" x="124.964702" y="536.336012" style="fill: #ff0000; stroke: #ff0000"/>
     <use xlink:href="#mad7a8cc48b" x="227.963117" y="616.415142" style="fill: #ff0000; stroke: #ff0000"/>
    </g>
   </g>
   <g id="text_1">
    <g clip-path="url(#p30b72da90f)">
     <!-- amyl benzoate -->
     <g transform="translate(178.36843 611.021666) scale(0.12 -0.12)">
      <defs>
       <path id="DejaVuSans-Bold-61" d="M 2106 1575 
Q 1756 1575 1579 1456 
Q 1403 1338 1403 1106 
Q 1403 894 1545 773 
Q 1688 653 1941 653 
Q 2256 653 2472 879 
Q 2688 1106 2688 1447 
L 2688 1575 
L 2106 1575 
z
M 3816 1997 
L 3816 0 
L 2688 0 
L 2688 519 
Q 2463 200 2181 54 
Q 1900 -91 1497 -91 
Q 953 -91 614 226 
Q 275 544 275 1050 
Q 275 1666 698 1953 
Q 1122 2241 2028 2241 
L 2688 2241 
L 2688 2328 
Q 2688 2594 2478 2717 
Q 2269 2841 1825 2841 
Q 1466 2841 1156 2769 
Q 847 2697 581 2553 
L 581 3406 
Q 941 3494 1303 3539 
Q 1666 3584 2028 3584 
Q 2975 3584 3395 3211 
Q 3816 2838 3816 1997 
z
" transform="scale(0.015625)"/>
       <path id="DejaVuSans-Bold-6d" d="M 3781 2919 
Q 3994 3244 4286 3414 
Q 4578 3584 4928 3584 
Q 5531 3584 5847 3212 
Q 6163 2841 6163 2131 
L 6163 0 
L 5038 0 
L 5038 1825 
Q 5041 1866 5042 1909 
Q 5044 1953 5044 2034 
Q 5044 2406 4934 2573 
Q 4825 2741 4581 2741 
Q 4263 2741 4089 2478 
Q 3916 2216 3909 1719 
L 3909 0 
L 2784 0 
L 2784 1825 
Q 2784 2406 2684 2573 
Q 2584 2741 2328 2741 
Q 2006 2741 1831 2477 
Q 1656 2213 1656 1722 
L 1656 0 
L 531 0 
L 531 3500 
L 1656 3500 
L 1656 2988 
Q 1863 3284 2130 3434 
Q 2397 3584 2719 3584 
Q 3081 3584 3359 3409 
Q 3638 3234 3781 2919 
z
" transform="scale(0.015625)"/>
       <path id="DejaVuSans-Bold-79" d="M 78 3500 
L 1197 3500 
L 2138 1125 
L 2938 3500 
L 4056 3500 
L 2584 -331 
Q 2363 -916 2067 -1148 
Q 1772 -1381 1288 -1381 
L 641 -1381 
L 641 -647 
L 991 -647 
Q 1275 -647 1404 -556 
Q 1534 -466 1606 -231 
L 1638 -134 
L 78 3500 
z
" transform="scale(0.015625)"/>
       <path id="DejaVuSans-Bold-6c" d="M 538 4863 
L 1656 4863 
L 1656 0 
L 538 0 
L 538 4863 
z
" transform="scale(0.015625)"/>
       <path id="DejaVuSans-Bold-20" transform="scale(0.015625)"/>
       <path id="DejaVuSans-Bold-62" d="M 2400 722 
Q 2759 722 2948 984 
Q 3138 1247 3138 1747 
Q 3138 2247 2948 2509 
Q 2759 2772 2400 2772 
Q 2041 2772 1848 2508 
Q 1656 2244 1656 1747 
Q 1656 1250 1848 986 
Q 2041 722 2400 722 
z
M 1656 2988 
Q 1888 3294 2169 3439 
Q 2450 3584 2816 3584 
Q 3463 3584 3878 3070 
Q 4294 2556 4294 1747 
Q 4294 938 3878 423 
Q 3463 -91 2816 -91 
Q 2450 -91 2169 54 
Q 1888 200 1656 506 
L 1656 0 
L 538 0 
L 538 4863 
L 1656 4863 
L 1656 2988 
z
" transform="scale(0.015625)"/>
       <path id="DejaVuSans-Bold-65" d="M 4031 1759 
L 4031 1441 
L 1416 1441 
Q 1456 1047 1700 850 
Q 1944 653 2381 653 
Q 2734 653 3104 758 
Q 3475 863 3866 1075 
L 3866 213 
Q 3469 63 3072 -14 
Q 2675 -91 2278 -91 
Q 1328 -91 801 392 
Q 275 875 275 1747 
Q 275 2603 792 3093 
Q 1309 3584 2216 3584 
Q 3041 3584 3536 3087 
Q 4031 2591 4031 1759 
z
M 2881 2131 
Q 2881 2450 2695 2645 
Q 2509 2841 2209 2841 
Q 1884 2841 1681 2658 
Q 1478 2475 1428 2131 
L 2881 2131 
z
" transform="scale(0.015625)"/>
       <path id="DejaVuSans-Bold-6e" d="M 4056 2131 
L 4056 0 
L 2931 0 
L 2931 347 
L 2931 1631 
Q 2931 2084 2911 2256 
Q 2891 2428 2841 2509 
Q 2775 2619 2662 2680 
Q 2550 2741 2406 2741 
Q 2056 2741 1856 2470 
Q 1656 2200 1656 1722 
L 1656 0 
L 538 0 
L 538 3500 
L 1656 3500 
L 1656 2988 
Q 1909 3294 2193 3439 
Q 2478 3584 2822 3584 
Q 3428 3584 3742 3212 
Q 4056 2841 4056 2131 
z
" transform="scale(0.015625)"/>
       <path id="DejaVuSans-Bold-7a" d="M 366 3500 
L 3419 3500 
L 3419 2719 
L 1575 800 
L 3419 800 
L 3419 0 
L 288 0 
L 288 781 
L 2131 2700 
L 366 2700 
L 366 3500 
z
" transform="scale(0.015625)"/>
       <path id="DejaVuSans-Bold-6f" d="M 2203 2784 
Q 1831 2784 1636 2517 
Q 1441 2250 1441 1747 
Q 1441 1244 1636 976 
Q 1831 709 2203 709 
Q 2569 709 2762 976 
Q 2956 1244 2956 1747 
Q 2956 2250 2762 2517 
Q 2569 2784 2203 2784 
z
M 2203 3584 
Q 3106 3584 3614 3096 
Q 4122 2609 4122 1747 
Q 4122 884 3614 396 
Q 3106 -91 2203 -91 
Q 1297 -91 786 396 
Q 275 884 275 1747 
Q 275 2609 786 3096 
Q 1297 3584 2203 3584 
z
" transform="scale(0.015625)"/>
       <path id="DejaVuSans-Bold-74" d="M 1759 4494 
L 1759 3500 
L 2913 3500 
L 2913 2700 
L 1759 2700 
L 1759 1216 
Q 1759 972 1856 886 
Q 1953 800 2241 800 
L 2816 800 
L 2816 0 
L 1856 0 
Q 1194 0 917 276 
Q 641 553 641 1216 
L 641 2700 
L 84 2700 
L 84 3500 
L 641 3500 
L 641 4494 
L 1759 4494 
z
" transform="scale(0.015625)"/>
      </defs>
      <use xlink:href="#DejaVuSans-Bold-61"/>
      <use xlink:href="#DejaVuSans-Bold-6d" x="67.480469"/>
      <use xlink:href="#DejaVuSans-Bold-79" x="171.679688"/>
      <use xlink:href="#DejaVuSans-Bold-6c" x="236.865234"/>
      <use xlink:href="#DejaVuSans-Bold-20" x="271.142578"/>
      <use xlink:href="#DejaVuSans-Bold-62" x="305.957031"/>
      <use xlink:href="#DejaVuSans-Bold-65" x="377.539062"/>
      <use xlink:href="#DejaVuSans-Bold-6e" x="445.361328"/>
      <use xlink:href="#DejaVuSans-Bold-7a" x="516.552734"/>
      <use xlink:href="#DejaVuSans-Bold-6f" x="574.755859"/>
      <use xlink:href="#DejaVuSans-Bold-61" x="643.457031"/>
      <use xlink:href="#DejaVuSans-Bold-74" x="710.9375"/>
      <use xlink:href="#DejaVuSans-Bold-65" x="758.740234"/>
     </g>
    </g>
   </g>
   <g id="text_2">
    <g clip-path="url(#p30b72da90f)">
     <!-- geraniol -->
     <g transform="translate(617.115666 286.788082) scale(0.12 -0.12)">
      <defs>
       <path id="DejaVuSans-Bold-67" d="M 2919 594 
Q 2688 288 2409 144 
Q 2131 0 1766 0 
Q 1125 0 706 504 
Q 288 1009 288 1791 
Q 288 2575 706 3076 
Q 1125 3578 1766 3578 
Q 2131 3578 2409 3434 
Q 2688 3291 2919 2981 
L 2919 3500 
L 4044 3500 
L 4044 353 
Q 4044 -491 3511 -936 
Q 2978 -1381 1966 -1381 
Q 1638 -1381 1331 -1331 
Q 1025 -1281 716 -1178 
L 716 -306 
Q 1009 -475 1290 -558 
Q 1572 -641 1856 -641 
Q 2406 -641 2662 -400 
Q 2919 -159 2919 353 
L 2919 594 
z
M 2181 2772 
Q 1834 2772 1640 2515 
Q 1447 2259 1447 1791 
Q 1447 1309 1634 1061 
Q 1822 813 2181 813 
Q 2531 813 2725 1069 
Q 2919 1325 2919 1791 
Q 2919 2259 2725 2515 
Q 2531 2772 2181 2772 
z
" transform="scale(0.015625)"/>
       <path id="DejaVuSans-Bold-72" d="M 3138 2547 
Q 2991 2616 2845 2648 
Q 2700 2681 2553 2681 
Q 2122 2681 1889 2404 
Q 1656 2128 1656 1613 
L 1656 0 
L 538 0 
L 538 3500 
L 1656 3500 
L 1656 2925 
Q 1872 3269 2151 3426 
Q 2431 3584 2822 3584 
Q 2878 3584 2943 3579 
Q 3009 3575 3134 3559 
L 3138 2547 
z
" transform="scale(0.015625)"/>
       <path id="DejaVuSans-Bold-69" d="M 538 3500 
L 1656 3500 
L 1656 0 
L 538 0 
L 538 3500 
z
M 538 4863 
L 1656 4863 
L 1656 3950 
L 538 3950 
L 538 4863 
z
" transform="scale(0.015625)"/>
      </defs>
      <use xlink:href="#DejaVuSans-Bold-67"/>
      <use xlink:href="#DejaVuSans-Bold-65" x="71.582031"/>
      <use xlink:href="#DejaVuSans-Bold-72" x="139.404297"/>
      <use xlink:href="#DejaVuSans-Bold-61" x="188.720703"/>
      <use xlink:href="#DejaVuSans-Bold-6e" x="256.201172"/>
      <use xlink:href="#DejaVuSans-Bold-69" x="327.392578"/>
      <use xlink:href="#DejaVuSans-Bold-6f" x="361.669922"/>
      <use xlink:href="#DejaVuSans-Bold-6c" x="430.371094"/>
     </g>
    </g>
   </g>
   <g id="text_3">
    <g clip-path="url(#p30b72da90f)">
     <!-- methyl dihydrojasmonate -->
     <g transform="translate(141.226555 90.991381) scale(0.12 -0.12)">
      <defs>
       <path id="DejaVuSans-Bold-68" d="M 4056 2131 
L 4056 0 
L 2931 0 
L 2931 347 
L 2931 1625 
Q 2931 2084 2911 2256 
Q 2891 2428 2841 2509 
Q 2775 2619 2662 2680 
Q 2550 2741 2406 2741 
Q 2056 2741 1856 2470 
Q 1656 2200 1656 1722 
L 1656 0 
L 538 0 
L 538 4863 
L 1656 4863 
L 1656 2988 
Q 1909 3294 2193 3439 
Q 2478 3584 2822 3584 
Q 3428 3584 3742 3212 
Q 4056 2841 4056 2131 
z
" transform="scale(0.015625)"/>
       <path id="DejaVuSans-Bold-64" d="M 2919 2988 
L 2919 4863 
L 4044 4863 
L 4044 0 
L 2919 0 
L 2919 506 
Q 2688 197 2409 53 
Q 2131 -91 1766 -91 
Q 1119 -91 703 423 
Q 288 938 288 1747 
Q 288 2556 703 3070 
Q 1119 3584 1766 3584 
Q 2128 3584 2408 3439 
Q 2688 3294 2919 2988 
z
M 2181 722 
Q 2541 722 2730 984 
Q 2919 1247 2919 1747 
Q 2919 2247 2730 2509 
Q 2541 2772 2181 2772 
Q 1825 2772 1636 2509 
Q 1447 2247 1447 1747 
Q 1447 1247 1636 984 
Q 1825 722 2181 722 
z
" transform="scale(0.015625)"/>
       <path id="DejaVuSans-Bold-6a" d="M 538 3500 
L 1656 3500 
L 1656 63 
Q 1656 -641 1318 -1011 
Q 981 -1381 341 -1381 
L -213 -1381 
L -213 -647 
L -19 -647 
Q 300 -647 419 -503 
Q 538 -359 538 63 
L 538 3500 
z
M 538 4863 
L 1656 4863 
L 1656 3950 
L 538 3950 
L 538 4863 
z
" transform="scale(0.015625)"/>
       <path id="DejaVuSans-Bold-73" d="M 3272 3391 
L 3272 2541 
Q 2913 2691 2578 2766 
Q 2244 2841 1947 2841 
Q 1628 2841 1473 2761 
Q 1319 2681 1319 2516 
Q 1319 2381 1436 2309 
Q 1553 2238 1856 2203 
L 2053 2175 
Q 2913 2066 3209 1816 
Q 3506 1566 3506 1031 
Q 3506 472 3093 190 
Q 2681 -91 1863 -91 
Q 1516 -91 1145 -36 
Q 775 19 384 128 
L 384 978 
Q 719 816 1070 734 
Q 1422 653 1784 653 
Q 2113 653 2278 743 
Q 2444 834 2444 1013 
Q 2444 1163 2330 1236 
Q 2216 1309 1875 1350 
L 1678 1375 
Q 931 1469 631 1722 
Q 331 1975 331 2491 
Q 331 3047 712 3315 
Q 1094 3584 1881 3584 
Q 2191 3584 2531 3537 
Q 2872 3491 3272 3391 
z
" transform="scale(0.015625)"/>
      </defs>
      <use xlink:href="#DejaVuSans-Bold-6d"/>
      <use xlink:href="#DejaVuSans-Bold-65" x="104.199219"/>
      <use xlink:href="#DejaVuSans-Bold-74" x="172.021484"/>
      <use xlink:href="#DejaVuSans-Bold-68" x="219.824219"/>
      <use xlink:href="#DejaVuSans-Bold-79" x="291.015625"/>
      <use xlink:href="#DejaVuSans-Bold-6c" x="356.201172"/>
      <use xlink:href="#DejaVuSans-Bold-20" x="390.478516"/>
      <use xlink:href="#DejaVuSans-Bold-64" x="425.292969"/>
      <use xlink:href="#DejaVuSans-Bold-69" x="496.875"/>
      <use xlink:href="#DejaVuSans-Bold-68" x="531.152344"/>
      <use xlink:href="#DejaVuSans-Bold-79" x="602.34375"/>
      <use xlink:href="#DejaVuSans-Bold-64" x="667.529297"/>
      <use xlink:href="#DejaVuSans-Bold-72" x="739.111328"/>
      <use xlink:href="#DejaVuSans-Bold-6f" x="788.427734"/>
      <use xlink:href="#DejaVuSans-Bold-6a" x="857.128906"/>
      <use xlink:href="#DejaVuSans-Bold-61" x="891.40625"/>
      <use xlink:href="#DejaVuSans-Bold-73" x="958.886719"/>
      <use xlink:href="#DejaVuSans-Bold-6d" x="1018.408203"/>
      <use xlink:href="#DejaVuSans-Bold-6f" x="1122.607422"/>
      <use xlink:href="#DejaVuSans-Bold-6e" x="1191.308594"/>
      <use xlink:href="#DejaVuSans-Bold-61" x="1262.5"/>
      <use xlink:href="#DejaVuSans-Bold-74" x="1329.980469"/>
      <use xlink:href="#DejaVuSans-Bold-65" x="1377.783203"/>
     </g>
    </g>
   </g>
   <g id="text_4">
    <g clip-path="url(#p30b72da90f)">
     <!-- ocean propanal -->
     <g transform="translate(432.582525 91.038256) scale(0.12 -0.12)">
      <defs>
       <path id="DejaVuSans-Bold-63" d="M 3366 3391 
L 3366 2478 
Q 3138 2634 2908 2709 
Q 2678 2784 2431 2784 
Q 1963 2784 1702 2511 
Q 1441 2238 1441 1747 
Q 1441 1256 1702 982 
Q 1963 709 2431 709 
Q 2694 709 2930 787 
Q 3166 866 3366 1019 
L 3366 103 
Q 3103 6 2833 -42 
Q 2563 -91 2291 -91 
Q 1344 -91 809 395 
Q 275 881 275 1747 
Q 275 2613 809 3098 
Q 1344 3584 2291 3584 
Q 2566 3584 2833 3536 
Q 3100 3488 3366 3391 
z
" transform="scale(0.015625)"/>
       <path id="DejaVuSans-Bold-70" d="M 1656 506 
L 1656 -1331 
L 538 -1331 
L 538 3500 
L 1656 3500 
L 1656 2988 
Q 1888 3294 2169 3439 
Q 2450 3584 2816 3584 
Q 3463 3584 3878 3070 
Q 4294 2556 4294 1747 
Q 4294 938 3878 423 
Q 3463 -91 2816 -91 
Q 2450 -91 2169 54 
Q 1888 200 1656 506 
z
M 2400 2772 
Q 2041 2772 1848 2508 
Q 1656 2244 1656 1747 
Q 1656 1250 1848 986 
Q 2041 722 2400 722 
Q 2759 722 2948 984 
Q 3138 1247 3138 1747 
Q 3138 2247 2948 2509 
Q 2759 2772 2400 2772 
z
" transform="scale(0.015625)"/>
      </defs>
      <use xlink:href="#DejaVuSans-Bold-6f"/>
      <use xlink:href="#DejaVuSans-Bold-63" x="68.701172"/>
      <use xlink:href="#DejaVuSans-Bold-65" x="127.978516"/>
      <use xlink:href="#DejaVuSans-Bold-61" x="195.800781"/>
      <use xlink:href="#DejaVuSans-Bold-6e" x="263.28125"/>
      <use xlink:href="#DejaVuSans-Bold-20" x="334.472656"/>
      <use xlink:href="#DejaVuSans-Bold-70" x="369.287109"/>
      <use xlink:href="#DejaVuSans-Bold-72" x="440.869141"/>
      <use xlink:href="#DejaVuSans-Bold-6f" x="490.185547"/>
      <use xlink:href="#DejaVuSans-Bold-70" x="558.886719"/>
      <use xlink:href="#DejaVuSans-Bold-61" x="630.46875"/>
      <use xlink:href="#DejaVuSans-Bold-6e" x="697.949219"/>
      <use xlink:href="#DejaVuSans-Bold-61" x="769.140625"/>
      <use xlink:href="#DejaVuSans-Bold-6c" x="836.621094"/>
     </g>
    </g>
   </g>
   <g id="text_5">
    <g clip-path="url(#p30b72da90f)">
     <!-- citronellyl acetate -->
     <g transform="translate(423.23282 611.021666) scale(0.12 -0.12)">
      <use xlink:href="#DejaVuSans-Bold-63"/>
      <use xlink:href="#DejaVuSans-Bold-69" x="59.277344"/>
      <use xlink:href="#DejaVuSans-Bold-74" x="93.554688"/>
      <use xlink:href="#DejaVuSans-Bold-72" x="141.357422"/>
      <use xlink:href="#DejaVuSans-Bold-6f" x="190.673828"/>
      <use xlink:href="#DejaVuSans-Bold-6e" x="259.375"/>
      <use xlink:href="#DejaVuSans-Bold-65" x="330.566406"/>
      <use xlink:href="#DejaVuSans-Bold-6c" x="398.388672"/>
      <use xlink:href="#DejaVuSans-Bold-6c" x="432.666016"/>
      <use xlink:href="#DejaVuSans-Bold-79" x="466.943359"/>
      <use xlink:href="#DejaVuSans-Bold-6c" x="532.128906"/>
      <use xlink:href="#DejaVuSans-Bold-20" x="566.40625"/>
      <use xlink:href="#DejaVuSans-Bold-61" x="601.220703"/>
      <use xlink:href="#DejaVuSans-Bold-63" x="668.701172"/>
      <use xlink:href="#DejaVuSans-Bold-65" x="727.978516"/>
      <use xlink:href="#DejaVuSans-Bold-74" x="795.800781"/>
      <use xlink:href="#DejaVuSans-Bold-61" x="843.603516"/>
      <use xlink:href="#DejaVuSans-Bold-74" x="911.083984"/>
      <use xlink:href="#DejaVuSans-Bold-65" x="958.886719"/>
     </g>
    </g>
   </g>
   <g id="text_6">
    <g clip-path="url(#p30b72da90f)">
     <!-- woody acetate -->
     <g transform="translate(538.222762 530.942587) scale(0.12 -0.12)">
      <defs>
       <path id="DejaVuSans-Bold-77" d="M 225 3500 
L 1313 3500 
L 1900 1088 
L 2491 3500 
L 3425 3500 
L 4013 1113 
L 4603 3500 
L 5691 3500 
L 4769 0 
L 3547 0 
L 2956 2406 
L 2369 0 
L 1147 0 
L 225 3500 
z
" transform="scale(0.015625)"/>
      </defs>
      <use xlink:href="#DejaVuSans-Bold-77"/>
      <use xlink:href="#DejaVuSans-Bold-6f" x="92.382812"/>
      <use xlink:href="#DejaVuSans-Bold-6f" x="161.083984"/>
      <use xlink:href="#DejaVuSans-Bold-64" x="229.785156"/>
      <use xlink:href="#DejaVuSans-Bold-79" x="301.367188"/>
      <use xlink:href="#DejaVuSans-Bold-20" x="366.552734"/>
      <use xlink:href="#DejaVuSans-Bold-61" x="401.367188"/>
      <use xlink:href="#DejaVuSans-Bold-63" x="468.847656"/>
      <use xlink:href="#DejaVuSans-Bold-65" x="528.125"/>
      <use xlink:href="#DejaVuSans-Bold-74" x="595.947266"/>
      <use xlink:href="#DejaVuSans-Bold-61" x="643.75"/>
      <use xlink:href="#DejaVuSans-Bold-74" x="711.230469"/>
      <use xlink:href="#DejaVuSans-Bold-65" x="759.033203"/>
     </g>
    </g>
   </g>
   <g id="text_7">
    <g clip-path="url(#p30b72da90f)">
     <!-- nerolidol -->
     <g transform="translate(37.795584 286.834939) scale(0.12 -0.12)">
      <use xlink:href="#DejaVuSans-Bold-6e"/>
      <use xlink:href="#DejaVuSans-Bold-65" x="71.191406"/>
      <use xlink:href="#DejaVuSans-Bold-72" x="139.013672"/>
      <use xlink:href="#DejaVuSans-Bold-6f" x="188.330078"/>
      <use xlink:href="#DejaVuSans-Bold-6c" x="257.03125"/>
      <use xlink:href="#DejaVuSans-Bold-69" x="291.308594"/>
      <use xlink:href="#DejaVuSans-Bold-64" x="325.585938"/>
      <use xlink:href="#DejaVuSans-Bold-6f" x="397.167969"/>
      <use xlink:href="#DejaVuSans-Bold-6c" x="465.869141"/>
     </g>
    </g>
   </g>
   <g id="text_8">
    <g clip-path="url(#p30b72da90f)">
     <!-- nonanol -->
     <g transform="translate(40.640896 415.271867) scale(0.12 -0.12)">
      <use xlink:href="#DejaVuSans-Bold-6e"/>
      <use xlink:href="#DejaVuSans-Bold-6f" x="71.191406"/>
      <use xlink:href="#DejaVuSans-Bold-6e" x="139.892578"/>
      <use xlink:href="#DejaVuSans-Bold-61" x="211.083984"/>
      <use xlink:href="#DejaVuSans-Bold-6e" x="278.564453"/>
      <use xlink:href="#DejaVuSans-Bold-6f" x="349.755859"/>
      <use xlink:href="#DejaVuSans-Bold-6c" x="418.457031"/>
     </g>
    </g>
   </g>
   <g id="text_9">
    <g clip-path="url(#p30b72da90f)">
     <!-- amyl salicylate -->
     <g transform="translate(305.796537 62.411482) scale(0.12 -0.12)">
      <use xlink:href="#DejaVuSans-Bold-61"/>
      <use xlink:href="#DejaVuSans-Bold-6d" x="67.480469"/>
      <use xlink:href="#DejaVuSans-Bold-79" x="171.679688"/>
      <use xlink:href="#DejaVuSans-Bold-6c" x="236.865234"/>
      <use xlink:href="#DejaVuSans-Bold-20" x="271.142578"/>
      <use xlink:href="#DejaVuSans-Bold-73" x="305.957031"/>
      <use xlink:href="#DejaVuSans-Bold-61" x="365.478516"/>
      <use xlink:href="#DejaVuSans-Bold-6c" x="432.958984"/>
      <use xlink:href="#DejaVuSans-Bold-69" x="467.236328"/>
      <use xlink:href="#DejaVuSans-Bold-63" x="501.513672"/>
      <use xlink:href="#DejaVuSans-Bold-79" x="560.791016"/>
      <use xlink:href="#DejaVuSans-Bold-6c" x="625.976562"/>
      <use xlink:href="#DejaVuSans-Bold-61" x="660.253906"/>
      <use xlink:href="#DejaVuSans-Bold-74" x="727.734375"/>
      <use xlink:href="#DejaVuSans-Bold-65" x="775.537109"/>
     </g>
    </g>
   </g>
   <g id="text_10">
    <g clip-path="url(#p30b72da90f)">
     <!-- rose butanoate -->
     <g transform="translate(304.726875 639.64844) scale(0.12 -0.12)">
      <defs>
       <path id="DejaVuSans-Bold-75" d="M 500 1363 
L 500 3500 
L 1625 3500 
L 1625 3150 
Q 1625 2866 1622 2436 
Q 1619 2006 1619 1863 
Q 1619 1441 1641 1255 
Q 1663 1069 1716 984 
Q 1784 875 1895 815 
Q 2006 756 2150 756 
Q 2500 756 2700 1025 
Q 2900 1294 2900 1772 
L 2900 3500 
L 4019 3500 
L 4019 0 
L 2900 0 
L 2900 506 
Q 2647 200 2364 54 
Q 2081 -91 1741 -91 
Q 1134 -91 817 281 
Q 500 653 500 1363 
z
" transform="scale(0.015625)"/>
      </defs>
      <use xlink:href="#DejaVuSans-Bold-72"/>
      <use xlink:href="#DejaVuSans-Bold-6f" x="49.316406"/>
      <use xlink:href="#DejaVuSans-Bold-73" x="118.017578"/>
      <use xlink:href="#DejaVuSans-Bold-65" x="177.539062"/>
      <use xlink:href="#DejaVuSans-Bold-20" x="245.361328"/>
      <use xlink:href="#DejaVuSans-Bold-62" x="280.175781"/>
      <use xlink:href="#DejaVuSans-Bold-75" x="351.757812"/>
      <use xlink:href="#DejaVuSans-Bold-74" x="422.949219"/>
      <use xlink:href="#DejaVuSans-Bold-61" x="470.751953"/>
      <use xlink:href="#DejaVuSans-Bold-6e" x="538.232422"/>
      <use xlink:href="#DejaVuSans-Bold-6f" x="609.423828"/>
      <use xlink:href="#DejaVuSans-Bold-61" x="678.125"/>
      <use xlink:href="#DejaVuSans-Bold-74" x="745.605469"/>
      <use xlink:href="#DejaVuSans-Bold-65" x="793.408203"/>
     </g>
    </g>
   </g>
   <g id="text_11">
    <g clip-path="url(#p30b72da90f)">
     <!-- linalool -->
     <g transform="translate(620.202854 415.271849) scale(0.12 -0.12)">
      <use xlink:href="#DejaVuSans-Bold-6c"/>
      <use xlink:href="#DejaVuSans-Bold-69" x="34.277344"/>
      <use xlink:href="#DejaVuSans-Bold-6e" x="68.554688"/>
      <use xlink:href="#DejaVuSans-Bold-61" x="139.746094"/>
      <use xlink:href="#DejaVuSans-Bold-6c" x="207.226562"/>
      <use xlink:href="#DejaVuSans-Bold-6f" x="241.503906"/>
      <use xlink:href="#DejaVuSans-Bold-6f" x="310.205078"/>
      <use xlink:href="#DejaVuSans-Bold-6c" x="378.90625"/>
     </g>
    </g>
   </g>
   <g id="text_12">
    <g clip-path="url(#p30b72da90f)">
     <!-- phenethyl acetate -->
     <g transform="translate(63.262202 171.070512) scale(0.12 -0.12)">
      <use xlink:href="#DejaVuSans-Bold-70"/>
      <use xlink:href="#DejaVuSans-Bold-68" x="71.582031"/>
      <use xlink:href="#DejaVuSans-Bold-65" x="142.773438"/>
      <use xlink:href="#DejaVuSans-Bold-6e" x="210.595703"/>
      <use xlink:href="#DejaVuSans-Bold-65" x="281.787109"/>
      <use xlink:href="#DejaVuSans-Bold-74" x="349.609375"/>
      <use xlink:href="#DejaVuSans-Bold-68" x="397.412109"/>
      <use xlink:href="#DejaVuSans-Bold-79" x="468.603516"/>
      <use xlink:href="#DejaVuSans-Bold-6c" x="533.789062"/>
      <use xlink:href="#DejaVuSans-Bold-20" x="568.066406"/>
      <use xlink:href="#DejaVuSans-Bold-61" x="602.880859"/>
      <use xlink:href="#DejaVuSans-Bold-63" x="670.361328"/>
      <use xlink:href="#DejaVuSans-Bold-65" x="729.638672"/>
      <use xlink:href="#DejaVuSans-Bold-74" x="797.460938"/>
      <use xlink:href="#DejaVuSans-Bold-61" x="845.263672"/>
      <use xlink:href="#DejaVuSans-Bold-74" x="912.744141"/>
      <use xlink:href="#DejaVuSans-Bold-65" x="960.546875"/>
     </g>
    </g>
   </g>
   <g id="text_13">
    <g clip-path="url(#p30b72da90f)">
     <!-- ethyl cinnamate -->
     <g transform="translate(70.255015 530.942536) scale(0.12 -0.12)">
      <use xlink:href="#DejaVuSans-Bold-65"/>
      <use xlink:href="#DejaVuSans-Bold-74" x="67.822266"/>
      <use xlink:href="#DejaVuSans-Bold-68" x="115.625"/>
      <use xlink:href="#DejaVuSans-Bold-79" x="186.816406"/>
      <use xlink:href="#DejaVuSans-Bold-6c" x="252.001953"/>
      <use xlink:href="#DejaVuSans-Bold-20" x="286.279297"/>
      <use xlink:href="#DejaVuSans-Bold-63" x="321.09375"/>
      <use xlink:href="#DejaVuSans-Bold-69" x="380.371094"/>
      <use xlink:href="#DejaVuSans-Bold-6e" x="414.648438"/>
      <use xlink:href="#DejaVuSans-Bold-6e" x="485.839844"/>
      <use xlink:href="#DejaVuSans-Bold-61" x="557.03125"/>
      <use xlink:href="#DejaVuSans-Bold-6d" x="624.511719"/>
      <use xlink:href="#DejaVuSans-Bold-61" x="728.710938"/>
      <use xlink:href="#DejaVuSans-Bold-74" x="796.191406"/>
      <use xlink:href="#DejaVuSans-Bold-65" x="843.994141"/>
     </g>
    </g>
   </g>
   <g id="text_14">
    <g clip-path="url(#p30b72da90f)">
     <!-- linalool oxide -->
     <g transform="translate(542.540887 171.117335) scale(0.12 -0.12)">
      <defs>
       <path id="DejaVuSans-Bold-78" d="M 1422 1791 
L 159 3500 
L 1344 3500 
L 2059 2463 
L 2784 3500 
L 3969 3500 
L 2706 1797 
L 4031 0 
L 2847 0 
L 2059 1106 
L 1281 0 
L 97 0 
L 1422 1791 
z
" transform="scale(0.015625)"/>
      </defs>
      <use xlink:href="#DejaVuSans-Bold-6c"/>
      <use xlink:href="#DejaVuSans-Bold-69" x="34.277344"/>
      <use xlink:href="#DejaVuSans-Bold-6e" x="68.554688"/>
      <use xlink:href="#DejaVuSans-Bold-61" x="139.746094"/>
      <use xlink:href="#DejaVuSans-Bold-6c" x="207.226562"/>
      <use xlink:href="#DejaVuSans-Bold-6f" x="241.503906"/>
      <use xlink:href="#DejaVuSans-Bold-6f" x="310.205078"/>
      <use xlink:href="#DejaVuSans-Bold-6c" x="378.90625"/>
      <use xlink:href="#DejaVuSans-Bold-20" x="413.183594"/>
      <use xlink:href="#DejaVuSans-Bold-6f" x="447.998047"/>
      <use xlink:href="#DejaVuSans-Bold-78" x="516.699219"/>
      <use xlink:href="#DejaVuSans-Bold-69" x="581.201172"/>
      <use xlink:href="#DejaVuSans-Bold-64" x="615.478516"/>
      <use xlink:href="#DejaVuSans-Bold-65" x="687.060547"/>
     </g>
    </g>
   </g>
   <g id="legend_1">
    <g id="patch_2">
     <path d="M 578.928125 44.55625 
L 698.6 44.55625 
Q 700.6 44.55625 700.6 42.55625 
L 700.6 14.2 
Q 700.6 12.2 698.6 12.2 
L 578.928125 12.2 
Q 576.928125 12.2 576.928125 14.2 
L 576.928125 42.55625 
Q 576.928125 44.55625 578.928125 44.55625 
z
" style="fill: #ffffff; opacity: 0.8; stroke: #cccccc; stroke-linejoin: miter"/>
    </g>
    <g id="PathCollection_3">
     <g>
      <use xlink:href="#m69bb619f2b" x="590.928125" y="21.173437" style="fill: #0000ff; stroke: #0000ff"/>
     </g>
    </g>
    <g id="text_15">
     <!-- Train Molecules -->
     <g transform="translate(608.928125 23.798437) scale(0.1 -0.1)">
      <defs>
       <path id="DejaVuSans-Bold-54" d="M 31 4666 
L 4331 4666 
L 4331 3756 
L 2784 3756 
L 2784 0 
L 1581 0 
L 1581 3756 
L 31 3756 
L 31 4666 
z
" transform="scale(0.015625)"/>
       <path id="DejaVuSans-Bold-4d" d="M 588 4666 
L 2119 4666 
L 3181 2169 
L 4250 4666 
L 5778 4666 
L 5778 0 
L 4641 0 
L 4641 3413 
L 3566 897 
L 2803 897 
L 1728 3413 
L 1728 0 
L 588 0 
L 588 4666 
z
" transform="scale(0.015625)"/>
      </defs>
      <use xlink:href="#DejaVuSans-Bold-54"/>
      <use xlink:href="#DejaVuSans-Bold-72" x="57.212891"/>
      <use xlink:href="#DejaVuSans-Bold-61" x="106.529297"/>
      <use xlink:href="#DejaVuSans-Bold-69" x="174.009766"/>
      <use xlink:href="#DejaVuSans-Bold-6e" x="208.287109"/>
      <use xlink:href="#DejaVuSans-Bold-20" x="279.478516"/>
      <use xlink:href="#DejaVuSans-Bold-4d" x="314.292969"/>
      <use xlink:href="#DejaVuSans-Bold-6f" x="413.804688"/>
      <use xlink:href="#DejaVuSans-Bold-6c" x="482.505859"/>
      <use xlink:href="#DejaVuSans-Bold-65" x="516.783203"/>
      <use xlink:href="#DejaVuSans-Bold-63" x="584.605469"/>
      <use xlink:href="#DejaVuSans-Bold-75" x="643.882812"/>
      <use xlink:href="#DejaVuSans-Bold-6c" x="715.074219"/>
      <use xlink:href="#DejaVuSans-Bold-65" x="749.351562"/>
      <use xlink:href="#DejaVuSans-Bold-73" x="817.173828"/>
     </g>
    </g>
    <g id="PathCollection_4">
     <g>
      <use xlink:href="#mad7a8cc48b" x="590.928125" y="35.851562" style="fill: #ff0000; stroke: #ff0000"/>
     </g>
    </g>
    <g id="text_16">
     <!-- Test Molecules -->
     <g transform="translate(608.928125 38.476562) scale(0.1 -0.1)">
      <use xlink:href="#DejaVuSans-Bold-54"/>
      <use xlink:href="#DejaVuSans-Bold-65" x="54.962891"/>
      <use xlink:href="#DejaVuSans-Bold-73" x="122.785156"/>
      <use xlink:href="#DejaVuSans-Bold-74" x="182.306641"/>
      <use xlink:href="#DejaVuSans-Bold-20" x="230.109375"/>
      <use xlink:href="#DejaVuSans-Bold-4d" x="264.923828"/>
      <use xlink:href="#DejaVuSans-Bold-6f" x="364.435547"/>
      <use xlink:href="#DejaVuSans-Bold-6c" x="433.136719"/>
      <use xlink:href="#DejaVuSans-Bold-65" x="467.414062"/>
      <use xlink:href="#DejaVuSans-Bold-63" x="535.236328"/>
      <use xlink:href="#DejaVuSans-Bold-75" x="594.513672"/>
      <use xlink:href="#DejaVuSans-Bold-6c" x="665.705078"/>
      <use xlink:href="#DejaVuSans-Bold-65" x="699.982422"/>
      <use xlink:href="#DejaVuSans-Bold-73" x="767.804688"/>
     </g>
    </g>
   </g>
  </g>
 </g>
 <defs>
  <clipPath id="p30b72da90f">
   <rect x="7.2" y="7.2" width="698.4" height="698.4"/>
  </clipPath>
 </defs>
</svg>
