<?xml version="1.0" encoding="utf-8" standalone="no"?>
<!DOCTYPE svg PUBLIC "-//W3C//DTD SVG 1.1//EN"
  "http://www.w3.org/Graphics/SVG/1.1/DTD/svg11.dtd">
<svg xmlns:xlink="http://www.w3.org/1999/xlink" width="455.384062pt" height="342.444816pt" viewBox="0 0 455.384062 342.444816" xmlns="http://www.w3.org/2000/svg" version="1.1">
 <metadata>
  <rdf:RDF xmlns:dc="http://purl.org/dc/elements/1.1/" xmlns:cc="http://creativecommons.org/ns#" xmlns:rdf="http://www.w3.org/1999/02/22-rdf-syntax-ns#">
   <cc:Work>
    <dc:type rdf:resource="http://purl.org/dc/dcmitype/StillImage"/>
    <dc:date>2024-05-11T12:38:42.730519</dc:date>
    <dc:format>image/svg+xml</dc:format>
    <dc:creator>
     <cc:Agent>
      <dc:title>Matplotlib v3.7.1, https://matplotlib.org/</dc:title>
     </cc:Agent>
    </dc:creator>
   </cc:Work>
  </rdf:RDF>
 </metadata>
 <defs>
  <style type="text/css">*{stroke-linejoin: round; stroke-linecap: butt}</style>
 </defs>
 <g id="figure_1">
  <g id="patch_1">
   <path d="M 0 342.444816 
L 455.384062 342.444816 
L 455.384062 0 
L 0 0 
z
" style="fill: #ffffff"/>
  </g>
  <g id="axes_1">
   <g id="patch_2">
    <path d="M 31.914062 286.939836 
L 448.184062 286.939836 
L 448.184062 22.318125 
L 31.914062 22.318125 
z
" style="fill: #ffffff"/>
   </g>
   <g id="patch_3">
    <path d="M 42.320813 286.939836 
L 49.258646 286.939836 
L 49.258646 34.919159 
L 42.320813 34.919159 
z
" clip-path="url(#pfd40e796a2)" style="fill: #1f77b4"/>
   </g>
   <g id="patch_4">
    <path d="M 83.947812 286.939836 
L 90.885646 286.939836 
L 90.885646 38.919487 
L 83.947812 38.919487 
z
" clip-path="url(#pfd40e796a2)" style="fill: #1f77b4"/>
   </g>
   <g id="patch_5">
    <path d="M 125.574813 286.939836 
L 132.512646 286.939836 
L 132.512646 106.925067 
L 125.574813 106.925067 
z
" clip-path="url(#pfd40e796a2)" style="fill: #1f77b4"/>
   </g>
   <g id="patch_6">
    <path d="M 167.201813 286.939836 
L 174.139646 286.939836 
L 174.139646 146.928349 
L 167.201813 146.928349 
z
" clip-path="url(#pfd40e796a2)" style="fill: #1f77b4"/>
   </g>
   <g id="patch_7">
    <path d="M 208.828813 286.939836 
L 215.766646 286.939836 
L 215.766646 78.922769 
L 208.828813 78.922769 
z
" clip-path="url(#pfd40e796a2)" style="fill: #1f77b4"/>
   </g>
   <g id="patch_8">
    <path d="M 250.455813 286.939836 
L 257.393646 286.939836 
L 257.393646 62.921456 
L 250.455813 62.921456 
z
" clip-path="url(#pfd40e796a2)" style="fill: #1f77b4"/>
   </g>
   <g id="patch_9">
    <path d="M 292.082813 286.939836 
L 299.020646 286.939836 
L 299.020646 58.921128 
L 292.082813 58.921128 
z
" clip-path="url(#pfd40e796a2)" style="fill: #1f77b4"/>
   </g>
   <g id="patch_10">
    <path d="M 333.709812 286.939836 
L 340.647646 286.939836 
L 340.647646 170.930318 
L 333.709812 170.930318 
z
" clip-path="url(#pfd40e796a2)" style="fill: #1f77b4"/>
   </g>
   <g id="patch_11">
    <path d="M 375.336813 286.939836 
L 382.274646 286.939836 
L 382.274646 138.927692 
L 375.336813 138.927692 
z
" clip-path="url(#pfd40e796a2)" style="fill: #1f77b4"/>
   </g>
   <g id="patch_12">
    <path d="M 416.963813 286.939836 
L 423.901646 286.939836 
L 423.901646 62.921456 
L 416.963813 62.921456 
z
" clip-path="url(#pfd40e796a2)" style="fill: #1f77b4"/>
   </g>
   <g id="patch_13">
    <path d="M 49.258646 286.939836 
L 56.196479 286.939836 
L 56.196479 70.922113 
L 49.258646 70.922113 
z
" clip-path="url(#pfd40e796a2)" style="fill: #ff7f0e"/>
   </g>
   <g id="patch_14">
    <path d="M 90.885646 286.939836 
L 97.823479 286.939836 
L 97.823479 58.921128 
L 90.885646 58.921128 
z
" clip-path="url(#pfd40e796a2)" style="fill: #ff7f0e"/>
   </g>
   <g id="patch_15">
    <path d="M 132.512646 286.939836 
L 139.450479 286.939836 
L 139.450479 218.934257 
L 132.512646 218.934257 
z
" clip-path="url(#pfd40e796a2)" style="fill: #ff7f0e"/>
   </g>
   <g id="patch_16">
    <path d="M 174.139646 286.939836 
L 181.077479 286.939836 
L 181.077479 154.929005 
L 174.139646 154.929005 
z
" clip-path="url(#pfd40e796a2)" style="fill: #ff7f0e"/>
   </g>
   <g id="patch_17">
    <path d="M 215.766646 286.939836 
L 222.704479 286.939836 
L 222.704479 66.921785 
L 215.766646 66.921785 
z
" clip-path="url(#pfd40e796a2)" style="fill: #ff7f0e"/>
   </g>
   <g id="patch_18">
    <path d="M 257.393646 286.939836 
L 264.331479 286.939836 
L 264.331479 106.925067 
L 257.393646 106.925067 
z
" clip-path="url(#pfd40e796a2)" style="fill: #ff7f0e"/>
   </g>
   <g id="patch_19">
    <path d="M 299.020646 286.939836 
L 305.958479 286.939836 
L 305.958479 62.921456 
L 299.020646 62.921456 
z
" clip-path="url(#pfd40e796a2)" style="fill: #ff7f0e"/>
   </g>
   <g id="patch_20">
    <path d="M 340.647646 286.939836 
L 347.585479 286.939836 
L 347.585479 102.924738 
L 340.647646 102.924738 
z
" clip-path="url(#pfd40e796a2)" style="fill: #ff7f0e"/>
   </g>
   <g id="patch_21">
    <path d="M 382.274646 286.939836 
L 389.212479 286.939836 
L 389.212479 118.926051 
L 382.274646 118.926051 
z
" clip-path="url(#pfd40e796a2)" style="fill: #ff7f0e"/>
   </g>
   <g id="patch_22">
    <path d="M 423.901646 286.939836 
L 430.839479 286.939836 
L 430.839479 114.925723 
L 423.901646 114.925723 
z
" clip-path="url(#pfd40e796a2)" style="fill: #ff7f0e"/>
   </g>
   <g id="patch_23">
    <path d="M 56.196479 286.939836 
L 63.134313 286.939836 
L 63.134313 62.921456 
L 56.196479 62.921456 
z
" clip-path="url(#pfd40e796a2)" style="fill: #2ca02c"/>
   </g>
   <g id="patch_24">
    <path d="M 97.823479 286.939836 
L 104.761313 286.939836 
L 104.761313 94.924082 
L 97.823479 94.924082 
z
" clip-path="url(#pfd40e796a2)" style="fill: #2ca02c"/>
   </g>
   <g id="patch_25">
    <path d="M 139.450479 286.939836 
L 146.388312 286.939836 
L 146.388312 54.9208 
L 139.450479 54.9208 
z
" clip-path="url(#pfd40e796a2)" style="fill: #2ca02c"/>
   </g>
   <g id="patch_26">
    <path d="M 181.077479 286.939836 
L 188.015312 286.939836 
L 188.015312 54.9208 
L 181.077479 54.9208 
z
" clip-path="url(#pfd40e796a2)" style="fill: #2ca02c"/>
   </g>
   <g id="patch_27">
    <path d="M 222.704479 286.939836 
L 229.642313 286.939836 
L 229.642313 106.925067 
L 222.704479 106.925067 
z
" clip-path="url(#pfd40e796a2)" style="fill: #2ca02c"/>
   </g>
   <g id="patch_28">
    <path d="M 264.331479 286.939836 
L 271.269313 286.939836 
L 271.269313 98.92441 
L 264.331479 98.92441 
z
" clip-path="url(#pfd40e796a2)" style="fill: #2ca02c"/>
   </g>
   <g id="patch_29">
    <path d="M 305.958479 286.939836 
L 312.896313 286.939836 
L 312.896313 170.930318 
L 305.958479 170.930318 
z
" clip-path="url(#pfd40e796a2)" style="fill: #2ca02c"/>
   </g>
   <g id="patch_30">
    <path d="M 347.585479 286.939836 
L 354.523313 286.939836 
L 354.523313 106.925067 
L 347.585479 106.925067 
z
" clip-path="url(#pfd40e796a2)" style="fill: #2ca02c"/>
   </g>
   <g id="patch_31">
    <path d="M 389.212479 286.939836 
L 396.150312 286.939836 
L 396.150312 110.925395 
L 389.212479 110.925395 
z
" clip-path="url(#pfd40e796a2)" style="fill: #2ca02c"/>
   </g>
   <g id="patch_32">
    <path d="M 430.839479 286.939836 
L 437.777312 286.939836 
L 437.777312 238.935898 
L 430.839479 238.935898 
z
" clip-path="url(#pfd40e796a2)" style="fill: #2ca02c"/>
   </g>
   <g id="matplotlib.axis_1">
    <g id="xtick_1">
     <g id="line2d_1">
      <defs>
       <path id="me1cf282309" d="M 0 0 
L 0 3.5 
" style="stroke: #000000; stroke-width: 0.8"/>
      </defs>
      <g>
       <use xlink:href="#me1cf282309" x="52.727563" y="286.939836" style="stroke: #000000; stroke-width: 0.8"/>
      </g>
     </g>
     <g id="text_1">
      <!-- powdery -->
      <g transform="translate(37.447979 333.719012) rotate(-45) scale(0.1 -0.1)">
       <defs>
        <path id="DejaVuSans-Bold-70" d="M 1656 506 
L 1656 -1331 
L 538 -1331 
L 538 3500 
L 1656 3500 
L 1656 2988 
Q 1888 3294 2169 3439 
Q 2450 3584 2816 3584 
Q 3463 3584 3878 3070 
Q 4294 2556 4294 1747 
Q 4294 938 3878 423 
Q 3463 -91 2816 -91 
Q 2450 -91 2169 54 
Q 1888 200 1656 506 
z
M 2400 2772 
Q 2041 2772 1848 2508 
Q 1656 2244 1656 1747 
Q 1656 1250 1848 986 
Q 2041 722 2400 722 
Q 2759 722 2948 984 
Q 3138 1247 3138 1747 
Q 3138 2247 2948 2509 
Q 2759 2772 2400 2772 
z
" transform="scale(0.015625)"/>
        <path id="DejaVuSans-Bold-6f" d="M 2203 2784 
Q 1831 2784 1636 2517 
Q 1441 2250 1441 1747 
Q 1441 1244 1636 976 
Q 1831 709 2203 709 
Q 2569 709 2762 976 
Q 2956 1244 2956 1747 
Q 2956 2250 2762 2517 
Q 2569 2784 2203 2784 
z
M 2203 3584 
Q 3106 3584 3614 3096 
Q 4122 2609 4122 1747 
Q 4122 884 3614 396 
Q 3106 -91 2203 -91 
Q 1297 -91 786 396 
Q 275 884 275 1747 
Q 275 2609 786 3096 
Q 1297 3584 2203 3584 
z
" transform="scale(0.015625)"/>
        <path id="DejaVuSans-Bold-77" d="M 225 3500 
L 1313 3500 
L 1900 1088 
L 2491 3500 
L 3425 3500 
L 4013 1113 
L 4603 3500 
L 5691 3500 
L 4769 0 
L 3547 0 
L 2956 2406 
L 2369 0 
L 1147 0 
L 225 3500 
z
" transform="scale(0.015625)"/>
        <path id="DejaVuSans-Bold-64" d="M 2919 2988 
L 2919 4863 
L 4044 4863 
L 4044 0 
L 2919 0 
L 2919 506 
Q 2688 197 2409 53 
Q 2131 -91 1766 -91 
Q 1119 -91 703 423 
Q 288 938 288 1747 
Q 288 2556 703 3070 
Q 1119 3584 1766 3584 
Q 2128 3584 2408 3439 
Q 2688 3294 2919 2988 
z
M 2181 722 
Q 2541 722 2730 984 
Q 2919 1247 2919 1747 
Q 2919 2247 2730 2509 
Q 2541 2772 2181 2772 
Q 1825 2772 1636 2509 
Q 1447 2247 1447 1747 
Q 1447 1247 1636 984 
Q 1825 722 2181 722 
z
" transform="scale(0.015625)"/>
        <path id="DejaVuSans-Bold-65" d="M 4031 1759 
L 4031 1441 
L 1416 1441 
Q 1456 1047 1700 850 
Q 1944 653 2381 653 
Q 2734 653 3104 758 
Q 3475 863 3866 1075 
L 3866 213 
Q 3469 63 3072 -14 
Q 2675 -91 2278 -91 
Q 1328 -91 801 392 
Q 275 875 275 1747 
Q 275 2603 792 3093 
Q 1309 3584 2216 3584 
Q 3041 3584 3536 3087 
Q 4031 2591 4031 1759 
z
M 2881 2131 
Q 2881 2450 2695 2645 
Q 2509 2841 2209 2841 
Q 1884 2841 1681 2658 
Q 1478 2475 1428 2131 
L 2881 2131 
z
" transform="scale(0.015625)"/>
        <path id="DejaVuSans-Bold-72" d="M 3138 2547 
Q 2991 2616 2845 2648 
Q 2700 2681 2553 2681 
Q 2122 2681 1889 2404 
Q 1656 2128 1656 1613 
L 1656 0 
L 538 0 
L 538 3500 
L 1656 3500 
L 1656 2925 
Q 1872 3269 2151 3426 
Q 2431 3584 2822 3584 
Q 2878 3584 2943 3579 
Q 3009 3575 3134 3559 
L 3138 2547 
z
" transform="scale(0.015625)"/>
        <path id="DejaVuSans-Bold-79" d="M 78 3500 
L 1197 3500 
L 2138 1125 
L 2938 3500 
L 4056 3500 
L 2584 -331 
Q 2363 -916 2067 -1148 
Q 1772 -1381 1288 -1381 
L 641 -1381 
L 641 -647 
L 991 -647 
Q 1275 -647 1404 -556 
Q 1534 -466 1606 -231 
L 1638 -134 
L 78 3500 
z
" transform="scale(0.015625)"/>
       </defs>
       <use xlink:href="#DejaVuSans-Bold-70"/>
       <use xlink:href="#DejaVuSans-Bold-6f" x="71.582031"/>
       <use xlink:href="#DejaVuSans-Bold-77" x="140.283203"/>
       <use xlink:href="#DejaVuSans-Bold-64" x="232.666016"/>
       <use xlink:href="#DejaVuSans-Bold-65" x="304.248047"/>
       <use xlink:href="#DejaVuSans-Bold-72" x="372.070312"/>
       <use xlink:href="#DejaVuSans-Bold-79" x="421.386719"/>
      </g>
     </g>
    </g>
    <g id="xtick_2">
     <g id="line2d_2">
      <g>
       <use xlink:href="#me1cf282309" x="94.354563" y="286.939836" style="stroke: #000000; stroke-width: 0.8"/>
      </g>
     </g>
     <g id="text_2">
      <!-- musty -->
      <g transform="translate(83.950702 323.857082) rotate(-45) scale(0.1 -0.1)">
       <defs>
        <path id="DejaVuSans-Bold-6d" d="M 3781 2919 
Q 3994 3244 4286 3414 
Q 4578 3584 4928 3584 
Q 5531 3584 5847 3212 
Q 6163 2841 6163 2131 
L 6163 0 
L 5038 0 
L 5038 1825 
Q 5041 1866 5042 1909 
Q 5044 1953 5044 2034 
Q 5044 2406 4934 2573 
Q 4825 2741 4581 2741 
Q 4263 2741 4089 2478 
Q 3916 2216 3909 1719 
L 3909 0 
L 2784 0 
L 2784 1825 
Q 2784 2406 2684 2573 
Q 2584 2741 2328 2741 
Q 2006 2741 1831 2477 
Q 1656 2213 1656 1722 
L 1656 0 
L 531 0 
L 531 3500 
L 1656 3500 
L 1656 2988 
Q 1863 3284 2130 3434 
Q 2397 3584 2719 3584 
Q 3081 3584 3359 3409 
Q 3638 3234 3781 2919 
z
" transform="scale(0.015625)"/>
        <path id="DejaVuSans-Bold-75" d="M 500 1363 
L 500 3500 
L 1625 3500 
L 1625 3150 
Q 1625 2866 1622 2436 
Q 1619 2006 1619 1863 
Q 1619 1441 1641 1255 
Q 1663 1069 1716 984 
Q 1784 875 1895 815 
Q 2006 756 2150 756 
Q 2500 756 2700 1025 
Q 2900 1294 2900 1772 
L 2900 3500 
L 4019 3500 
L 4019 0 
L 2900 0 
L 2900 506 
Q 2647 200 2364 54 
Q 2081 -91 1741 -91 
Q 1134 -91 817 281 
Q 500 653 500 1363 
z
" transform="scale(0.015625)"/>
        <path id="DejaVuSans-Bold-73" d="M 3272 3391 
L 3272 2541 
Q 2913 2691 2578 2766 
Q 2244 2841 1947 2841 
Q 1628 2841 1473 2761 
Q 1319 2681 1319 2516 
Q 1319 2381 1436 2309 
Q 1553 2238 1856 2203 
L 2053 2175 
Q 2913 2066 3209 1816 
Q 3506 1566 3506 1031 
Q 3506 472 3093 190 
Q 2681 -91 1863 -91 
Q 1516 -91 1145 -36 
Q 775 19 384 128 
L 384 978 
Q 719 816 1070 734 
Q 1422 653 1784 653 
Q 2113 653 2278 743 
Q 2444 834 2444 1013 
Q 2444 1163 2330 1236 
Q 2216 1309 1875 1350 
L 1678 1375 
Q 931 1469 631 1722 
Q 331 1975 331 2491 
Q 331 3047 712 3315 
Q 1094 3584 1881 3584 
Q 2191 3584 2531 3537 
Q 2872 3491 3272 3391 
z
" transform="scale(0.015625)"/>
        <path id="DejaVuSans-Bold-74" d="M 1759 4494 
L 1759 3500 
L 2913 3500 
L 2913 2700 
L 1759 2700 
L 1759 1216 
Q 1759 972 1856 886 
Q 1953 800 2241 800 
L 2816 800 
L 2816 0 
L 1856 0 
Q 1194 0 917 276 
Q 641 553 641 1216 
L 641 2700 
L 84 2700 
L 84 3500 
L 641 3500 
L 641 4494 
L 1759 4494 
z
" transform="scale(0.015625)"/>
       </defs>
       <use xlink:href="#DejaVuSans-Bold-6d"/>
       <use xlink:href="#DejaVuSans-Bold-75" x="104.199219"/>
       <use xlink:href="#DejaVuSans-Bold-73" x="175.390625"/>
       <use xlink:href="#DejaVuSans-Bold-74" x="234.912109"/>
       <use xlink:href="#DejaVuSans-Bold-79" x="282.714844"/>
      </g>
     </g>
    </g>
    <g id="xtick_3">
     <g id="line2d_3">
      <g>
       <use xlink:href="#me1cf282309" x="135.981562" y="286.939836" style="stroke: #000000; stroke-width: 0.8"/>
      </g>
     </g>
     <g id="text_3">
      <!-- bitter -->
      <g transform="translate(126.668745 321.840723) rotate(-45) scale(0.1 -0.1)">
       <defs>
        <path id="DejaVuSans-Bold-62" d="M 2400 722 
Q 2759 722 2948 984 
Q 3138 1247 3138 1747 
Q 3138 2247 2948 2509 
Q 2759 2772 2400 2772 
Q 2041 2772 1848 2508 
Q 1656 2244 1656 1747 
Q 1656 1250 1848 986 
Q 2041 722 2400 722 
z
M 1656 2988 
Q 1888 3294 2169 3439 
Q 2450 3584 2816 3584 
Q 3463 3584 3878 3070 
Q 4294 2556 4294 1747 
Q 4294 938 3878 423 
Q 3463 -91 2816 -91 
Q 2450 -91 2169 54 
Q 1888 200 1656 506 
L 1656 0 
L 538 0 
L 538 4863 
L 1656 4863 
L 1656 2988 
z
" transform="scale(0.015625)"/>
        <path id="DejaVuSans-Bold-69" d="M 538 3500 
L 1656 3500 
L 1656 0 
L 538 0 
L 538 3500 
z
M 538 4863 
L 1656 4863 
L 1656 3950 
L 538 3950 
L 538 4863 
z
" transform="scale(0.015625)"/>
       </defs>
       <use xlink:href="#DejaVuSans-Bold-62"/>
       <use xlink:href="#DejaVuSans-Bold-69" x="71.582031"/>
       <use xlink:href="#DejaVuSans-Bold-74" x="105.859375"/>
       <use xlink:href="#DejaVuSans-Bold-74" x="153.662109"/>
       <use xlink:href="#DejaVuSans-Bold-65" x="201.464844"/>
       <use xlink:href="#DejaVuSans-Bold-72" x="269.287109"/>
      </g>
     </g>
    </g>
    <g id="xtick_4">
     <g id="line2d_4">
      <g>
       <use xlink:href="#me1cf282309" x="177.608563" y="286.939836" style="stroke: #000000; stroke-width: 0.8"/>
      </g>
     </g>
     <g id="text_4">
      <!-- cooling -->
      <g transform="translate(165.106583 328.163804) rotate(-45) scale(0.1 -0.1)">
       <defs>
        <path id="DejaVuSans-Bold-63" d="M 3366 3391 
L 3366 2478 
Q 3138 2634 2908 2709 
Q 2678 2784 2431 2784 
Q 1963 2784 1702 2511 
Q 1441 2238 1441 1747 
Q 1441 1256 1702 982 
Q 1963 709 2431 709 
Q 2694 709 2930 787 
Q 3166 866 3366 1019 
L 3366 103 
Q 3103 6 2833 -42 
Q 2563 -91 2291 -91 
Q 1344 -91 809 395 
Q 275 881 275 1747 
Q 275 2613 809 3098 
Q 1344 3584 2291 3584 
Q 2566 3584 2833 3536 
Q 3100 3488 3366 3391 
z
" transform="scale(0.015625)"/>
        <path id="DejaVuSans-Bold-6c" d="M 538 4863 
L 1656 4863 
L 1656 0 
L 538 0 
L 538 4863 
z
" transform="scale(0.015625)"/>
        <path id="DejaVuSans-Bold-6e" d="M 4056 2131 
L 4056 0 
L 2931 0 
L 2931 347 
L 2931 1631 
Q 2931 2084 2911 2256 
Q 2891 2428 2841 2509 
Q 2775 2619 2662 2680 
Q 2550 2741 2406 2741 
Q 2056 2741 1856 2470 
Q 1656 2200 1656 1722 
L 1656 0 
L 538 0 
L 538 3500 
L 1656 3500 
L 1656 2988 
Q 1909 3294 2193 3439 
Q 2478 3584 2822 3584 
Q 3428 3584 3742 3212 
Q 4056 2841 4056 2131 
z
" transform="scale(0.015625)"/>
        <path id="DejaVuSans-Bold-67" d="M 2919 594 
Q 2688 288 2409 144 
Q 2131 0 1766 0 
Q 1125 0 706 504 
Q 288 1009 288 1791 
Q 288 2575 706 3076 
Q 1125 3578 1766 3578 
Q 2131 3578 2409 3434 
Q 2688 3291 2919 2981 
L 2919 3500 
L 4044 3500 
L 4044 353 
Q 4044 -491 3511 -936 
Q 2978 -1381 1966 -1381 
Q 1638 -1381 1331 -1331 
Q 1025 -1281 716 -1178 
L 716 -306 
Q 1009 -475 1290 -558 
Q 1572 -641 1856 -641 
Q 2406 -641 2662 -400 
Q 2919 -159 2919 353 
L 2919 594 
z
M 2181 2772 
Q 1834 2772 1640 2515 
Q 1447 2259 1447 1791 
Q 1447 1309 1634 1061 
Q 1822 813 2181 813 
Q 2531 813 2725 1069 
Q 2919 1325 2919 1791 
Q 2919 2259 2725 2515 
Q 2531 2772 2181 2772 
z
" transform="scale(0.015625)"/>
       </defs>
       <use xlink:href="#DejaVuSans-Bold-63"/>
       <use xlink:href="#DejaVuSans-Bold-6f" x="59.277344"/>
       <use xlink:href="#DejaVuSans-Bold-6f" x="127.978516"/>
       <use xlink:href="#DejaVuSans-Bold-6c" x="196.679688"/>
       <use xlink:href="#DejaVuSans-Bold-69" x="230.957031"/>
       <use xlink:href="#DejaVuSans-Bold-6e" x="265.234375"/>
       <use xlink:href="#DejaVuSans-Bold-67" x="336.425781"/>
      </g>
     </g>
    </g>
    <g id="xtick_5">
     <g id="line2d_5">
      <g>
       <use xlink:href="#me1cf282309" x="219.235563" y="286.939836" style="stroke: #000000; stroke-width: 0.8"/>
      </g>
     </g>
     <g id="text_5">
      <!-- tropical -->
      <g transform="translate(205.887817 329.910579) rotate(-45) scale(0.1 -0.1)">
       <defs>
        <path id="DejaVuSans-Bold-61" d="M 2106 1575 
Q 1756 1575 1579 1456 
Q 1403 1338 1403 1106 
Q 1403 894 1545 773 
Q 1688 653 1941 653 
Q 2256 653 2472 879 
Q 2688 1106 2688 1447 
L 2688 1575 
L 2106 1575 
z
M 3816 1997 
L 3816 0 
L 2688 0 
L 2688 519 
Q 2463 200 2181 54 
Q 1900 -91 1497 -91 
Q 953 -91 614 226 
Q 275 544 275 1050 
Q 275 1666 698 1953 
Q 1122 2241 2028 2241 
L 2688 2241 
L 2688 2328 
Q 2688 2594 2478 2717 
Q 2269 2841 1825 2841 
Q 1466 2841 1156 2769 
Q 847 2697 581 2553 
L 581 3406 
Q 941 3494 1303 3539 
Q 1666 3584 2028 3584 
Q 2975 3584 3395 3211 
Q 3816 2838 3816 1997 
z
" transform="scale(0.015625)"/>
       </defs>
       <use xlink:href="#DejaVuSans-Bold-74"/>
       <use xlink:href="#DejaVuSans-Bold-72" x="47.802734"/>
       <use xlink:href="#DejaVuSans-Bold-6f" x="97.119141"/>
       <use xlink:href="#DejaVuSans-Bold-70" x="165.820312"/>
       <use xlink:href="#DejaVuSans-Bold-69" x="237.402344"/>
       <use xlink:href="#DejaVuSans-Bold-63" x="271.679688"/>
       <use xlink:href="#DejaVuSans-Bold-61" x="330.957031"/>
       <use xlink:href="#DejaVuSans-Bold-6c" x="398.4375"/>
      </g>
     </g>
    </g>
    <g id="xtick_6">
     <g id="line2d_6">
      <g>
       <use xlink:href="#me1cf282309" x="260.862563" y="286.939836" style="stroke: #000000; stroke-width: 0.8"/>
      </g>
     </g>
     <g id="text_6">
      <!-- rummy -->
      <g transform="translate(248.825174 327.124136) rotate(-45) scale(0.1 -0.1)">
       <use xlink:href="#DejaVuSans-Bold-72"/>
       <use xlink:href="#DejaVuSans-Bold-75" x="49.316406"/>
       <use xlink:href="#DejaVuSans-Bold-6d" x="120.507812"/>
       <use xlink:href="#DejaVuSans-Bold-6d" x="224.707031"/>
       <use xlink:href="#DejaVuSans-Bold-79" x="328.90625"/>
      </g>
     </g>
    </g>
    <g id="xtick_7">
     <g id="line2d_7">
      <g>
       <use xlink:href="#me1cf282309" x="302.489563" y="286.939836" style="stroke: #000000; stroke-width: 0.8"/>
      </g>
     </g>
     <g id="text_7">
      <!-- cocoa -->
      <g transform="translate(293.00494 322.184333) rotate(-45) scale(0.1 -0.1)">
       <use xlink:href="#DejaVuSans-Bold-63"/>
       <use xlink:href="#DejaVuSans-Bold-6f" x="59.277344"/>
       <use xlink:href="#DejaVuSans-Bold-63" x="127.978516"/>
       <use xlink:href="#DejaVuSans-Bold-6f" x="187.255859"/>
       <use xlink:href="#DejaVuSans-Bold-61" x="255.957031"/>
      </g>
     </g>
    </g>
    <g id="xtick_8">
     <g id="line2d_8">
      <g>
       <use xlink:href="#me1cf282309" x="344.116562" y="286.939836" style="stroke: #000000; stroke-width: 0.8"/>
      </g>
     </g>
     <g id="text_8">
      <!-- orris -->
      <g transform="translate(336.835572 317.777069) rotate(-45) scale(0.1 -0.1)">
       <use xlink:href="#DejaVuSans-Bold-6f"/>
       <use xlink:href="#DejaVuSans-Bold-72" x="68.701172"/>
       <use xlink:href="#DejaVuSans-Bold-72" x="118.017578"/>
       <use xlink:href="#DejaVuSans-Bold-69" x="167.333984"/>
       <use xlink:href="#DejaVuSans-Bold-73" x="201.611328"/>
      </g>
     </g>
    </g>
    <g id="xtick_9">
     <g id="line2d_9">
      <g>
       <use xlink:href="#me1cf282309" x="385.743563" y="286.939836" style="stroke: #000000; stroke-width: 0.8"/>
      </g>
     </g>
     <g id="text_9">
      <!-- earthy -->
      <g transform="translate(374.628175 325.39062) rotate(-45) scale(0.1 -0.1)">
       <defs>
        <path id="DejaVuSans-Bold-68" d="M 4056 2131 
L 4056 0 
L 2931 0 
L 2931 347 
L 2931 1625 
Q 2931 2084 2911 2256 
Q 2891 2428 2841 2509 
Q 2775 2619 2662 2680 
Q 2550 2741 2406 2741 
Q 2056 2741 1856 2470 
Q 1656 2200 1656 1722 
L 1656 0 
L 538 0 
L 538 4863 
L 1656 4863 
L 1656 2988 
Q 1909 3294 2193 3439 
Q 2478 3584 2822 3584 
Q 3428 3584 3742 3212 
Q 4056 2841 4056 2131 
z
" transform="scale(0.015625)"/>
       </defs>
       <use xlink:href="#DejaVuSans-Bold-65"/>
       <use xlink:href="#DejaVuSans-Bold-61" x="67.822266"/>
       <use xlink:href="#DejaVuSans-Bold-72" x="135.302734"/>
       <use xlink:href="#DejaVuSans-Bold-74" x="184.619141"/>
       <use xlink:href="#DejaVuSans-Bold-68" x="232.421875"/>
       <use xlink:href="#DejaVuSans-Bold-79" x="303.613281"/>
      </g>
     </g>
    </g>
    <g id="xtick_10">
     <g id="line2d_10">
      <g>
       <use xlink:href="#me1cf282309" x="427.370563" y="286.939836" style="stroke: #000000; stroke-width: 0.8"/>
      </g>
     </g>
     <g id="text_10">
      <!-- dairy -->
      <g transform="translate(419.117301 319.66637) rotate(-45) scale(0.1 -0.1)">
       <use xlink:href="#DejaVuSans-Bold-64"/>
       <use xlink:href="#DejaVuSans-Bold-61" x="71.582031"/>
       <use xlink:href="#DejaVuSans-Bold-69" x="139.0625"/>
       <use xlink:href="#DejaVuSans-Bold-72" x="173.339844"/>
       <use xlink:href="#DejaVuSans-Bold-79" x="222.65625"/>
      </g>
     </g>
    </g>
   </g>
   <g id="matplotlib.axis_2">
    <g id="ytick_1">
     <g id="line2d_11">
      <defs>
       <path id="md234cdb423" d="M 0 0 
L -3.5 0 
" style="stroke: #000000; stroke-width: 0.8"/>
      </defs>
      <g>
       <use xlink:href="#md234cdb423" x="31.914062" y="286.939836" style="stroke: #000000; stroke-width: 0.8"/>
      </g>
     </g>
     <g id="text_11">
      <!-- 0.0 -->
      <g transform="translate(7.2 290.739055) scale(0.1 -0.1)">
       <defs>
        <path id="DejaVuSans-Bold-30" d="M 2944 2338 
Q 2944 3213 2780 3570 
Q 2616 3928 2228 3928 
Q 1841 3928 1675 3570 
Q 1509 3213 1509 2338 
Q 1509 1453 1675 1090 
Q 1841 728 2228 728 
Q 2613 728 2778 1090 
Q 2944 1453 2944 2338 
z
M 4147 2328 
Q 4147 1169 3647 539 
Q 3147 -91 2228 -91 
Q 1306 -91 806 539 
Q 306 1169 306 2328 
Q 306 3491 806 4120 
Q 1306 4750 2228 4750 
Q 3147 4750 3647 4120 
Q 4147 3491 4147 2328 
z
" transform="scale(0.015625)"/>
        <path id="DejaVuSans-Bold-2e" d="M 653 1209 
L 1778 1209 
L 1778 0 
L 653 0 
L 653 1209 
z
" transform="scale(0.015625)"/>
       </defs>
       <use xlink:href="#DejaVuSans-Bold-30"/>
       <use xlink:href="#DejaVuSans-Bold-2e" x="69.580078"/>
       <use xlink:href="#DejaVuSans-Bold-30" x="107.568359"/>
      </g>
     </g>
    </g>
    <g id="ytick_2">
     <g id="line2d_12">
      <g>
       <use xlink:href="#md234cdb423" x="31.914062" y="246.936554" style="stroke: #000000; stroke-width: 0.8"/>
      </g>
     </g>
     <g id="text_12">
      <!-- 0.1 -->
      <g transform="translate(7.2 250.735773) scale(0.1 -0.1)">
       <defs>
        <path id="DejaVuSans-Bold-31" d="M 750 831 
L 1813 831 
L 1813 3847 
L 722 3622 
L 722 4441 
L 1806 4666 
L 2950 4666 
L 2950 831 
L 4013 831 
L 4013 0 
L 750 0 
L 750 831 
z
" transform="scale(0.015625)"/>
       </defs>
       <use xlink:href="#DejaVuSans-Bold-30"/>
       <use xlink:href="#DejaVuSans-Bold-2e" x="69.580078"/>
       <use xlink:href="#DejaVuSans-Bold-31" x="107.568359"/>
      </g>
     </g>
    </g>
    <g id="ytick_3">
     <g id="line2d_13">
      <g>
       <use xlink:href="#md234cdb423" x="31.914062" y="206.933272" style="stroke: #000000; stroke-width: 0.8"/>
      </g>
     </g>
     <g id="text_13">
      <!-- 0.2 -->
      <g transform="translate(7.2 210.732491) scale(0.1 -0.1)">
       <defs>
        <path id="DejaVuSans-Bold-32" d="M 1844 884 
L 3897 884 
L 3897 0 
L 506 0 
L 506 884 
L 2209 2388 
Q 2438 2594 2547 2791 
Q 2656 2988 2656 3200 
Q 2656 3528 2436 3728 
Q 2216 3928 1850 3928 
Q 1569 3928 1234 3808 
Q 900 3688 519 3450 
L 519 4475 
Q 925 4609 1322 4679 
Q 1719 4750 2100 4750 
Q 2938 4750 3402 4381 
Q 3866 4013 3866 3353 
Q 3866 2972 3669 2642 
Q 3472 2313 2841 1759 
L 1844 884 
z
" transform="scale(0.015625)"/>
       </defs>
       <use xlink:href="#DejaVuSans-Bold-30"/>
       <use xlink:href="#DejaVuSans-Bold-2e" x="69.580078"/>
       <use xlink:href="#DejaVuSans-Bold-32" x="107.568359"/>
      </g>
     </g>
    </g>
    <g id="ytick_4">
     <g id="line2d_14">
      <g>
       <use xlink:href="#md234cdb423" x="31.914062" y="166.92999" style="stroke: #000000; stroke-width: 0.8"/>
      </g>
     </g>
     <g id="text_14">
      <!-- 0.3 -->
      <g transform="translate(7.2 170.729209) scale(0.1 -0.1)">
       <defs>
        <path id="DejaVuSans-Bold-33" d="M 2981 2516 
Q 3453 2394 3698 2092 
Q 3944 1791 3944 1325 
Q 3944 631 3412 270 
Q 2881 -91 1863 -91 
Q 1503 -91 1142 -33 
Q 781 25 428 141 
L 428 1069 
Q 766 900 1098 814 
Q 1431 728 1753 728 
Q 2231 728 2486 893 
Q 2741 1059 2741 1369 
Q 2741 1688 2480 1852 
Q 2219 2016 1709 2016 
L 1228 2016 
L 1228 2791 
L 1734 2791 
Q 2188 2791 2409 2933 
Q 2631 3075 2631 3366 
Q 2631 3634 2415 3781 
Q 2200 3928 1806 3928 
Q 1516 3928 1219 3862 
Q 922 3797 628 3669 
L 628 4550 
Q 984 4650 1334 4700 
Q 1684 4750 2022 4750 
Q 2931 4750 3382 4451 
Q 3834 4153 3834 3553 
Q 3834 3144 3618 2883 
Q 3403 2622 2981 2516 
z
" transform="scale(0.015625)"/>
       </defs>
       <use xlink:href="#DejaVuSans-Bold-30"/>
       <use xlink:href="#DejaVuSans-Bold-2e" x="69.580078"/>
       <use xlink:href="#DejaVuSans-Bold-33" x="107.568359"/>
      </g>
     </g>
    </g>
    <g id="ytick_5">
     <g id="line2d_15">
      <g>
       <use xlink:href="#md234cdb423" x="31.914062" y="126.926708" style="stroke: #000000; stroke-width: 0.8"/>
      </g>
     </g>
     <g id="text_15">
      <!-- 0.4 -->
      <g transform="translate(7.2 130.725926) scale(0.1 -0.1)">
       <defs>
        <path id="DejaVuSans-Bold-34" d="M 2356 3675 
L 1038 1722 
L 2356 1722 
L 2356 3675 
z
M 2156 4666 
L 3494 4666 
L 3494 1722 
L 4159 1722 
L 4159 850 
L 3494 850 
L 3494 0 
L 2356 0 
L 2356 850 
L 288 850 
L 288 1881 
L 2156 4666 
z
" transform="scale(0.015625)"/>
       </defs>
       <use xlink:href="#DejaVuSans-Bold-30"/>
       <use xlink:href="#DejaVuSans-Bold-2e" x="69.580078"/>
       <use xlink:href="#DejaVuSans-Bold-34" x="107.568359"/>
      </g>
     </g>
    </g>
    <g id="ytick_6">
     <g id="line2d_16">
      <g>
       <use xlink:href="#md234cdb423" x="31.914062" y="86.923426" style="stroke: #000000; stroke-width: 0.8"/>
      </g>
     </g>
     <g id="text_16">
      <!-- 0.5 -->
      <g transform="translate(7.2 90.722644) scale(0.1 -0.1)">
       <defs>
        <path id="DejaVuSans-Bold-35" d="M 678 4666 
L 3669 4666 
L 3669 3781 
L 1638 3781 
L 1638 3059 
Q 1775 3097 1914 3117 
Q 2053 3138 2203 3138 
Q 3056 3138 3531 2711 
Q 4006 2284 4006 1522 
Q 4006 766 3489 337 
Q 2972 -91 2053 -91 
Q 1656 -91 1267 -14 
Q 878 63 494 219 
L 494 1166 
Q 875 947 1217 837 
Q 1559 728 1863 728 
Q 2300 728 2551 942 
Q 2803 1156 2803 1522 
Q 2803 1891 2551 2103 
Q 2300 2316 1863 2316 
Q 1603 2316 1309 2248 
Q 1016 2181 678 2041 
L 678 4666 
z
" transform="scale(0.015625)"/>
       </defs>
       <use xlink:href="#DejaVuSans-Bold-30"/>
       <use xlink:href="#DejaVuSans-Bold-2e" x="69.580078"/>
       <use xlink:href="#DejaVuSans-Bold-35" x="107.568359"/>
      </g>
     </g>
    </g>
    <g id="ytick_7">
     <g id="line2d_17">
      <g>
       <use xlink:href="#md234cdb423" x="31.914062" y="46.920143" style="stroke: #000000; stroke-width: 0.8"/>
      </g>
     </g>
     <g id="text_17">
      <!-- 0.6 -->
      <g transform="translate(7.2 50.719362) scale(0.1 -0.1)">
       <defs>
        <path id="DejaVuSans-Bold-36" d="M 2316 2303 
Q 2000 2303 1842 2098 
Q 1684 1894 1684 1484 
Q 1684 1075 1842 870 
Q 2000 666 2316 666 
Q 2634 666 2792 870 
Q 2950 1075 2950 1484 
Q 2950 1894 2792 2098 
Q 2634 2303 2316 2303 
z
M 3803 4544 
L 3803 3681 
Q 3506 3822 3243 3889 
Q 2981 3956 2731 3956 
Q 2194 3956 1894 3657 
Q 1594 3359 1544 2772 
Q 1750 2925 1990 3001 
Q 2231 3078 2516 3078 
Q 3231 3078 3670 2659 
Q 4109 2241 4109 1563 
Q 4109 813 3618 361 
Q 3128 -91 2303 -91 
Q 1394 -91 895 523 
Q 397 1138 397 2266 
Q 397 3422 980 4083 
Q 1563 4744 2578 4744 
Q 2900 4744 3203 4694 
Q 3506 4644 3803 4544 
z
" transform="scale(0.015625)"/>
       </defs>
       <use xlink:href="#DejaVuSans-Bold-30"/>
       <use xlink:href="#DejaVuSans-Bold-2e" x="69.580078"/>
       <use xlink:href="#DejaVuSans-Bold-36" x="107.568359"/>
      </g>
     </g>
    </g>
   </g>
   <g id="patch_33">
    <path d="M 31.914062 286.939836 
L 31.914062 22.318125 
" style="fill: none; stroke: #000000; stroke-width: 0.8; stroke-linejoin: miter; stroke-linecap: square"/>
   </g>
   <g id="patch_34">
    <path d="M 448.184062 286.939836 
L 448.184062 22.318125 
" style="fill: none; stroke: #000000; stroke-width: 0.8; stroke-linejoin: miter; stroke-linecap: square"/>
   </g>
   <g id="patch_35">
    <path d="M 31.914063 286.939836 
L 448.184062 286.939836 
" style="fill: none; stroke: #000000; stroke-width: 0.8; stroke-linejoin: miter; stroke-linecap: square"/>
   </g>
   <g id="patch_36">
    <path d="M 31.914063 22.318125 
L 448.184062 22.318125 
" style="fill: none; stroke: #000000; stroke-width: 0.8; stroke-linejoin: miter; stroke-linecap: square"/>
   </g>
   <g id="text_18">
    <!-- Bottom 10 Predicted Labels, by Model -->
    <g transform="translate(111.02 16.318125) scale(0.12 -0.12)">
     <defs>
      <path id="DejaVuSans-Bold-42" d="M 2456 2859 
Q 2741 2859 2887 2984 
Q 3034 3109 3034 3353 
Q 3034 3594 2887 3720 
Q 2741 3847 2456 3847 
L 1791 3847 
L 1791 2859 
L 2456 2859 
z
M 2497 819 
Q 2859 819 3042 972 
Q 3225 1125 3225 1434 
Q 3225 1738 3044 1889 
Q 2863 2041 2497 2041 
L 1791 2041 
L 1791 819 
L 2497 819 
z
M 3616 2497 
Q 4003 2384 4215 2081 
Q 4428 1778 4428 1338 
Q 4428 663 3972 331 
Q 3516 0 2584 0 
L 588 0 
L 588 4666 
L 2394 4666 
Q 3366 4666 3802 4372 
Q 4238 4078 4238 3431 
Q 4238 3091 4078 2852 
Q 3919 2613 3616 2497 
z
" transform="scale(0.015625)"/>
      <path id="DejaVuSans-Bold-20" transform="scale(0.015625)"/>
      <path id="DejaVuSans-Bold-50" d="M 588 4666 
L 2584 4666 
Q 3475 4666 3951 4270 
Q 4428 3875 4428 3144 
Q 4428 2409 3951 2014 
Q 3475 1619 2584 1619 
L 1791 1619 
L 1791 0 
L 588 0 
L 588 4666 
z
M 1791 3794 
L 1791 2491 
L 2456 2491 
Q 2806 2491 2997 2661 
Q 3188 2831 3188 3144 
Q 3188 3456 2997 3625 
Q 2806 3794 2456 3794 
L 1791 3794 
z
" transform="scale(0.015625)"/>
      <path id="DejaVuSans-Bold-4c" d="M 588 4666 
L 1791 4666 
L 1791 909 
L 3903 909 
L 3903 0 
L 588 0 
L 588 4666 
z
" transform="scale(0.015625)"/>
      <path id="DejaVuSans-Bold-2c" d="M 653 1209 
L 1778 1209 
L 1778 256 
L 1006 -909 
L 341 -909 
L 653 256 
L 653 1209 
z
" transform="scale(0.015625)"/>
      <path id="DejaVuSans-Bold-4d" d="M 588 4666 
L 2119 4666 
L 3181 2169 
L 4250 4666 
L 5778 4666 
L 5778 0 
L 4641 0 
L 4641 3413 
L 3566 897 
L 2803 897 
L 1728 3413 
L 1728 0 
L 588 0 
L 588 4666 
z
" transform="scale(0.015625)"/>
     </defs>
     <use xlink:href="#DejaVuSans-Bold-42"/>
     <use xlink:href="#DejaVuSans-Bold-6f" x="76.220703"/>
     <use xlink:href="#DejaVuSans-Bold-74" x="144.921875"/>
     <use xlink:href="#DejaVuSans-Bold-74" x="192.724609"/>
     <use xlink:href="#DejaVuSans-Bold-6f" x="240.527344"/>
     <use xlink:href="#DejaVuSans-Bold-6d" x="309.228516"/>
     <use xlink:href="#DejaVuSans-Bold-20" x="413.427734"/>
     <use xlink:href="#DejaVuSans-Bold-31" x="448.242188"/>
     <use xlink:href="#DejaVuSans-Bold-30" x="517.822266"/>
     <use xlink:href="#DejaVuSans-Bold-20" x="587.402344"/>
     <use xlink:href="#DejaVuSans-Bold-50" x="622.216797"/>
     <use xlink:href="#DejaVuSans-Bold-72" x="695.507812"/>
     <use xlink:href="#DejaVuSans-Bold-65" x="744.824219"/>
     <use xlink:href="#DejaVuSans-Bold-64" x="812.646484"/>
     <use xlink:href="#DejaVuSans-Bold-69" x="884.228516"/>
     <use xlink:href="#DejaVuSans-Bold-63" x="918.505859"/>
     <use xlink:href="#DejaVuSans-Bold-74" x="977.783203"/>
     <use xlink:href="#DejaVuSans-Bold-65" x="1025.585938"/>
     <use xlink:href="#DejaVuSans-Bold-64" x="1093.408203"/>
     <use xlink:href="#DejaVuSans-Bold-20" x="1164.990234"/>
     <use xlink:href="#DejaVuSans-Bold-4c" x="1199.804688"/>
     <use xlink:href="#DejaVuSans-Bold-61" x="1263.525391"/>
     <use xlink:href="#DejaVuSans-Bold-62" x="1331.005859"/>
     <use xlink:href="#DejaVuSans-Bold-65" x="1402.587891"/>
     <use xlink:href="#DejaVuSans-Bold-6c" x="1470.410156"/>
     <use xlink:href="#DejaVuSans-Bold-73" x="1504.6875"/>
     <use xlink:href="#DejaVuSans-Bold-2c" x="1564.208984"/>
     <use xlink:href="#DejaVuSans-Bold-20" x="1602.197266"/>
     <use xlink:href="#DejaVuSans-Bold-62" x="1637.011719"/>
     <use xlink:href="#DejaVuSans-Bold-79" x="1708.59375"/>
     <use xlink:href="#DejaVuSans-Bold-20" x="1773.779297"/>
     <use xlink:href="#DejaVuSans-Bold-4d" x="1808.59375"/>
     <use xlink:href="#DejaVuSans-Bold-6f" x="1908.105469"/>
     <use xlink:href="#DejaVuSans-Bold-64" x="1976.806641"/>
     <use xlink:href="#DejaVuSans-Bold-65" x="2048.388672"/>
     <use xlink:href="#DejaVuSans-Bold-6c" x="2116.210938"/>
    </g>
   </g>
   <g id="legend_1">
    <g id="patch_37">
     <path d="M 299.259062 74.430625 
L 441.184062 74.430625 
Q 443.184062 74.430625 443.184062 72.430625 
L 443.184062 29.318125 
Q 443.184062 27.318125 441.184062 27.318125 
L 299.259062 27.318125 
Q 297.259062 27.318125 297.259062 29.318125 
L 297.259062 72.430625 
Q 297.259062 74.430625 299.259062 74.430625 
z
" style="fill: #ffffff; opacity: 0.8; stroke: #cccccc; stroke-linejoin: miter"/>
    </g>
    <g id="patch_38">
     <path d="M 301.259062 38.916562 
L 321.259062 38.916562 
L 321.259062 31.916562 
L 301.259062 31.916562 
z
" style="fill: #1f77b4"/>
    </g>
    <g id="text_19">
     <!-- MPNN-GNN -->
     <g transform="translate(329.259062 38.916562) scale(0.1 -0.1)">
      <defs>
       <path id="DejaVuSans-Bold-4e" d="M 588 4666 
L 1931 4666 
L 3628 1466 
L 3628 4666 
L 4769 4666 
L 4769 0 
L 3425 0 
L 1728 3200 
L 1728 0 
L 588 0 
L 588 4666 
z
" transform="scale(0.015625)"/>
       <path id="DejaVuSans-Bold-2d" d="M 347 2297 
L 2309 2297 
L 2309 1388 
L 347 1388 
L 347 2297 
z
" transform="scale(0.015625)"/>
       <path id="DejaVuSans-Bold-47" d="M 4781 347 
Q 4331 128 3847 18 
Q 3363 -91 2847 -91 
Q 1681 -91 1000 561 
Q 319 1213 319 2328 
Q 319 3456 1012 4103 
Q 1706 4750 2913 4750 
Q 3378 4750 3804 4662 
Q 4231 4575 4609 4403 
L 4609 3438 
Q 4219 3659 3833 3768 
Q 3447 3878 3059 3878 
Q 2341 3878 1952 3476 
Q 1563 3075 1563 2328 
Q 1563 1588 1938 1184 
Q 2313 781 3003 781 
Q 3191 781 3352 804 
Q 3513 828 3641 878 
L 3641 1784 
L 2906 1784 
L 2906 2591 
L 4781 2591 
L 4781 347 
z
" transform="scale(0.015625)"/>
      </defs>
      <use xlink:href="#DejaVuSans-Bold-4d"/>
      <use xlink:href="#DejaVuSans-Bold-50" x="99.511719"/>
      <use xlink:href="#DejaVuSans-Bold-4e" x="172.802734"/>
      <use xlink:href="#DejaVuSans-Bold-4e" x="256.494141"/>
      <use xlink:href="#DejaVuSans-Bold-2d" x="340.185547"/>
      <use xlink:href="#DejaVuSans-Bold-47" x="381.689453"/>
      <use xlink:href="#DejaVuSans-Bold-4e" x="463.769531"/>
      <use xlink:href="#DejaVuSans-Bold-4e" x="547.460938"/>
     </g>
    </g>
    <g id="patch_39">
     <path d="M 301.259062 53.594687 
L 321.259062 53.594687 
L 321.259062 46.594687 
L 301.259062 46.594687 
z
" style="fill: #ff7f0e"/>
    </g>
    <g id="text_20">
     <!-- GIN-GNN -->
     <g transform="translate(329.259062 53.594687) scale(0.1 -0.1)">
      <defs>
       <path id="DejaVuSans-Bold-49" d="M 588 4666 
L 1791 4666 
L 1791 0 
L 588 0 
L 588 4666 
z
" transform="scale(0.015625)"/>
      </defs>
      <use xlink:href="#DejaVuSans-Bold-47"/>
      <use xlink:href="#DejaVuSans-Bold-49" x="82.080078"/>
      <use xlink:href="#DejaVuSans-Bold-4e" x="119.287109"/>
      <use xlink:href="#DejaVuSans-Bold-2d" x="202.978516"/>
      <use xlink:href="#DejaVuSans-Bold-47" x="244.482422"/>
      <use xlink:href="#DejaVuSans-Bold-4e" x="326.5625"/>
      <use xlink:href="#DejaVuSans-Bold-4e" x="410.253906"/>
     </g>
    </g>
    <g id="patch_40">
     <path d="M 301.259062 68.272812 
L 321.259062 68.272812 
L 321.259062 61.272812 
L 301.259062 61.272812 
z
" style="fill: #2ca02c"/>
    </g>
    <g id="text_21">
     <!-- Morgan Fingerprint -->
     <g transform="translate(329.259062 68.272812) scale(0.1 -0.1)">
      <defs>
       <path id="DejaVuSans-Bold-46" d="M 588 4666 
L 3834 4666 
L 3834 3756 
L 1791 3756 
L 1791 2888 
L 3713 2888 
L 3713 1978 
L 1791 1978 
L 1791 0 
L 588 0 
L 588 4666 
z
" transform="scale(0.015625)"/>
      </defs>
      <use xlink:href="#DejaVuSans-Bold-4d"/>
      <use xlink:href="#DejaVuSans-Bold-6f" x="99.511719"/>
      <use xlink:href="#DejaVuSans-Bold-72" x="168.212891"/>
      <use xlink:href="#DejaVuSans-Bold-67" x="217.529297"/>
      <use xlink:href="#DejaVuSans-Bold-61" x="289.111328"/>
      <use xlink:href="#DejaVuSans-Bold-6e" x="356.591797"/>
      <use xlink:href="#DejaVuSans-Bold-20" x="427.783203"/>
      <use xlink:href="#DejaVuSans-Bold-46" x="462.597656"/>
      <use xlink:href="#DejaVuSans-Bold-69" x="530.908203"/>
      <use xlink:href="#DejaVuSans-Bold-6e" x="565.185547"/>
      <use xlink:href="#DejaVuSans-Bold-67" x="636.376953"/>
      <use xlink:href="#DejaVuSans-Bold-65" x="707.958984"/>
      <use xlink:href="#DejaVuSans-Bold-72" x="775.78125"/>
      <use xlink:href="#DejaVuSans-Bold-70" x="825.097656"/>
      <use xlink:href="#DejaVuSans-Bold-72" x="896.679688"/>
      <use xlink:href="#DejaVuSans-Bold-69" x="945.996094"/>
      <use xlink:href="#DejaVuSans-Bold-6e" x="980.273438"/>
      <use xlink:href="#DejaVuSans-Bold-74" x="1051.464844"/>
     </g>
    </g>
   </g>
  </g>
 </g>
 <defs>
  <clipPath id="pfd40e796a2">
   <rect x="31.914062" y="22.318125" width="416.27" height="264.621711"/>
  </clipPath>
 </defs>
</svg>
